<?xml version="1.0" encoding="UTF-8" standalone="no"?><!DOCTYPE svg PUBLIC "-//W3C//DTD SVG 1.1//EN" "http://www.w3.org/Graphics/SVG/1.1/DTD/svg11.dtd"><svg width="100%" height="100%" viewBox="0 0 4500 4500" version="1.1" xmlns="http://www.w3.org/2000/svg" xmlns:xlink="http://www.w3.org/1999/xlink" xml:space="preserve" xmlns:serif="http://www.serif.com/" style="fill-rule:evenodd;clip-rule:evenodd;"><rect id="exit-door" serif:id="exit door" x="0" y="0" width="4500" height="4500" style="fill:none;"/><g><g><path d="M3638.24,160.892l-2523.63,0c-55.731,0 -100.945,44.308 -100.945,98.91l0,1478.74l138.842,0c-41.743,-52.226 -64.415,-116.219 -64.415,-183.571c-0.054,-79.783 31.687,-154.782 89.289,-211.176c11.851,-11.612 24.793,-21.954 38.217,-31.419l-0,-953.662l2321.69,-0l0,71.061l-1059.91,754.04l-0,3228.74l1065.68,-758.143c13.56,38.977 50.822,67.23 95.179,67.23c55.747,-0 100.945,-44.335 100.945,-98.91l-0,-3362.93c-0,-54.65 -45.209,-98.91 -100.945,-98.91Zm-760.439,2712.49c-47.616,-0 -87.292,-57.573 -97.489,-134.693l-113.658,-0l-0,-86.548l115.231,-0c12.074,-72.391 50.177,-125.669 95.813,-125.669c55.357,-0 100.158,77.609 100.158,173.479c0.104,95.769 -44.752,173.431 -100.055,173.431Zm-1700.38,-143.005c11.873,11.538 24.744,21.88 38.125,31.244l0,861.114c0,54.581 -45.246,98.91 -100.939,98.91c-55.731,-0 -100.945,-44.335 -100.945,-98.91l0,-1287.27l138.842,-0c-93.281,117.065 -85.047,287.057 24.917,394.912Zm722.016,-785.099c40.169,39.355 40.169,103.013 -0,142.373l-491.955,482.087c-20.036,19.563 -46.331,29.459 -72.621,29.506c-26.295,-0.047 -52.595,-9.853 -72.631,-29.506c-40.121,-39.36 -40.072,-103.056 -0,-142.325l316.659,-310.304l-1025.1,0c-56.729,0 -102.696,-45.041 -102.696,-100.626c-0,-55.585 45.913,-100.648 102.745,-100.648l1024.99,0l-316.61,-310.277c-40.067,-39.259 -40.115,-103.018 -0,-142.277c40.126,-39.322 105.186,-39.322 145.307,0l491.911,481.997Z" style="fill:#fff;fill-rule:nonzero;stroke:#fef6f6;stroke-width:5.37px;"/></g></g></svg>