<?xml version="1.0" encoding="UTF-8" standalone="no"?>
<!DOCTYPE svg PUBLIC "-//W3C//DTD SVG 1.1//EN" "http://www.w3.org/Graphics/SVG/1.1/DTD/svg11.dtd">
<svg width="100%" height="100%" viewBox="0 0 1080 1080" version="1.1" xmlns="http://www.w3.org/2000/svg" xmlns:xlink="http://www.w3.org/1999/xlink" xml:space="preserve" xmlns:serif="http://www.serif.com/" style="fill-rule:evenodd;clip-rule:evenodd;stroke-linejoin:round;stroke-miterlimit:2;">
    <g transform="matrix(1,0,0,1,-1235.3,0)">
        <g id="happy" transform="matrix(1,0,0,1,1235.3,0)">
            <rect x="0" y="0" width="1080" height="1080" style="fill:none;"/>
            <g transform="matrix(87.2449,0,0,87.2449,37.2682,22.0228)">
                <path d="M9.587,2.034C9.587,2.034 9.475,1.863 9.245,1.826C8.958,1.781 8.675,1.833 8.584,2.249C8.494,2.663 8.448,3.197 8.911,3.569L8.198,3.769L7.588,3.029C7.588,3.029 7.824,3.119 7.856,2.944C7.896,2.729 7.896,2.535 7.947,2.206C8.002,1.862 8.109,1.502 8.439,1.312C8.619,1.208 8.906,1.148 9.001,1.073C9.074,1.013 9.094,0.824 9.126,0.619L9.634,1.009L9.793,1.703L9.587,2.034Z" style="fill:rgb(44,179,182);fill-rule:nonzero;"/>
                <circle cx="10.068" cy="1.127" r="1.118" style="fill:rgb(252,194,27);"/>
                <path d="M2.413,2.034C2.413,2.034 2.525,1.863 2.755,1.826C3.042,1.781 3.325,1.833 3.416,2.249C3.506,2.663 3.553,3.197 3.089,3.569L3.802,3.769L4.412,3.029C4.412,3.029 4.176,3.119 4.144,2.944C4.104,2.729 4.104,2.535 4.053,2.206C3.997,1.862 3.891,1.502 3.561,1.312C3.381,1.208 3.094,1.148 2.999,1.073C2.926,1.013 2.906,0.824 2.874,0.619L2.366,1.009L2.207,1.703L2.413,2.034Z" style="fill:rgb(44,179,182);fill-rule:nonzero;"/>
                <circle cx="1.932" cy="1.127" r="1.118" style="fill:rgb(252,194,27);"/>
                <path d="M10.058,10.695C10.018,10.452 10.06,10.179 10.103,9.961C10.18,9.568 10.32,9.19 10.458,8.816C10.502,8.695 10.547,8.574 10.589,8.453C10.73,8.048 10.807,7.619 10.807,7.172C10.807,4.784 9.233,2.849 6.001,2.849C2.768,2.849 1.195,4.785 1.195,7.172C1.195,7.589 1.262,7.991 1.386,8.373C1.618,9.089 1.994,9.803 1.97,10.574C1.956,11.037 1.691,11.274 1.367,11.553C1.267,11.639 1.248,11.78 1.374,11.852C1.665,12.019 2.154,11.834 2.437,11.721C2.689,11.619 2.925,11.446 3.122,11.244C3.223,11.141 3.317,11.032 3.41,10.922C3.487,10.832 3.614,10.601 3.76,10.667C4.079,10.81 3.706,11.404 3.545,11.546C3.479,11.604 3.39,11.657 3.36,11.745C3.326,11.842 3.395,11.926 3.482,11.961C3.726,12.058 4.258,11.893 4.502,11.73C4.676,11.613 4.822,11.463 4.943,11.291C5.019,11.184 5.151,10.847 5.32,10.887C5.632,10.962 5.5,11.453 5.521,11.665C5.531,11.774 5.594,11.883 5.703,11.925C5.939,12.018 6.147,11.851 6.286,11.678C6.441,11.486 6.515,11.273 6.636,11.065C6.732,10.897 6.901,10.863 7.022,11.036C7.198,11.288 7.307,11.528 7.587,11.689C7.818,11.82 8.084,11.902 8.35,11.903C8.468,11.903 8.987,11.842 8.812,11.612C8.735,11.512 8.588,11.488 8.487,11.414C8.322,11.291 8.246,11.088 8.241,10.887C8.233,10.601 8.51,10.674 8.646,10.812C8.866,11.035 8.997,11.352 9.281,11.505C9.622,11.688 10.152,11.777 10.527,11.662C10.655,11.622 10.801,11.567 10.809,11.413C10.818,11.268 10.694,11.233 10.578,11.2C10.429,11.159 10.326,11.122 10.211,11.007C10.125,10.925 10.078,10.812 10.058,10.695" style="fill:rgb(44,179,182);fill-rule:nonzero;"/>
                <g>
                    <circle cx="4.181" cy="7.263" r="1.137" style="fill:white;"/>
                    <g transform="matrix(0.650307,0,0,0.650307,1.46213,2.53997)">
                        <circle cx="4.181" cy="7.263" r="1.137"/>
                    </g>
                    <g transform="matrix(0.355828,0,0,0.355828,2.91656,4.34415)">
                        <circle cx="4.181" cy="7.263" r="1.137" style="fill:white;"/>
                    </g>
                </g>
                <g>
                    <g transform="matrix(1,0,0,1,3.5578,0)">
                        <circle cx="4.181" cy="7.263" r="1.137" style="fill:white;"/>
                    </g>
                    <g transform="matrix(0.650307,0,0,0.650307,5.01993,2.53997)">
                        <circle cx="4.181" cy="7.263" r="1.137"/>
                    </g>
                    <g transform="matrix(0.355828,0,0,0.355828,6.44726,4.34415)">
                        <circle cx="4.181" cy="7.263" r="1.137" style="fill:white;"/>
                    </g>
                </g>
                <g transform="matrix(1.28463,0,0,1.31647,-1.74549,-2.83155)">
                    <path d="M5.114,9.394C5.081,9.379 5.067,9.341 5.082,9.308C5.098,9.276 5.137,9.262 5.17,9.277C5.46,9.404 5.742,9.462 6.015,9.46C6.298,9.459 6.575,9.393 6.845,9.25C6.878,9.233 6.919,9.244 6.937,9.276C6.955,9.307 6.944,9.347 6.911,9.365C6.623,9.529 6.324,9.617 6.016,9.618C5.722,9.619 5.421,9.541 5.114,9.394Z" style="fill:rgb(7,71,72);"/>
                </g>
            </g>
        </g>
    </g>
</svg>
