<?xml version="1.0" encoding="UTF-8" standalone="no"?>
<!DOCTYPE svg PUBLIC "-//W3C//DTD SVG 1.1//EN" "http://www.w3.org/Graphics/SVG/1.1/DTD/svg11.dtd">
<svg width="100%" height="100%" viewBox="0 0 1080 1080" version="1.1" xmlns="http://www.w3.org/2000/svg" xmlns:xlink="http://www.w3.org/1999/xlink" xml:space="preserve" xmlns:serif="http://www.serif.com/" style="fill-rule:evenodd;clip-rule:evenodd;stroke-linecap:round;stroke-linejoin:round;stroke-miterlimit:1.5;">
    <g transform="matrix(1,0,0,1,-3559.89,-1177.17)">
        <g id="poop" transform="matrix(1,0,0,1,3559.89,1177.17)">
            <rect x="0" y="0" width="1080" height="1080" style="fill:none;"/>
            <g id="poop1" serif:id="poop" transform="matrix(96.1609,0,0,96.1609,-54.9954,-60.8022)">
                <path d="M8.277,2.498C8.324,2.894 8.253,3.148 8.161,3.297C8.922,3.507 9.616,4.038 9.94,4.73C10.174,5.304 10.187,5.989 10.012,6.615C10.942,7.068 11.625,8.08 11.625,9.161C11.625,10.557 10.604,11.561 9.16,11.645L9.16,11.651L3.386,11.651L3.386,11.649C1.598,11.606 0.75,10.406 0.75,9.009C0.75,8.073 1.556,6.957 2.456,6.575C2.455,6.492 2.463,6.43 2.477,6.383C2.129,5.678 2.485,4.965 2.709,4.695L2.798,4.58C3.109,4.174 3.297,3.929 4.633,3.351C6.091,2.72 6.609,2.1 6.808,1.848C6.863,1.779 6.914,1.689 6.966,1.596C7.103,1.352 7.252,1.087 7.52,1.13C7.89,1.188 8.18,1.679 8.277,2.497" style="fill:rgb(103,58,0);fill-rule:nonzero;"/>
                <path d="M5.844,7.357C5.844,8.28 5.085,9.039 4.163,9.039C3.24,9.039 2.481,8.28 2.481,7.357C2.481,6.434 3.24,5.675 4.163,5.675C5.085,5.675 5.844,6.434 5.844,7.357M9.932,7.357C9.932,8.28 9.173,9.039 8.25,9.039C7.327,9.039 6.568,8.28 6.568,7.357C6.568,6.434 7.327,5.675 8.25,5.675C9.173,5.675 9.932,6.434 9.932,7.357" style="fill:white;"/>
                <path d="M4.506,8.299C5.017,8.299 5.437,7.879 5.437,7.368C5.437,6.857 5.017,6.437 4.506,6.437C3.995,6.437 3.574,6.857 3.574,7.368C3.574,7.879 3.995,8.299 4.506,8.299M7.885,8.299C8.396,8.299 8.816,7.879 8.816,7.368C8.816,6.857 8.396,6.437 7.885,6.437C7.374,6.437 6.953,6.857 6.953,7.368C6.953,7.879 7.374,8.299 7.885,8.299" style="fill:rgb(25,25,25);"/>
                <g transform="matrix(1.28442,0,0,1.28968,-2.09173,-1.94568)">
                    <ellipse cx="7.677" cy="7.025" rx="0.323" ry="0.308" style="fill:white;"/>
                </g>
                <g transform="matrix(1.28442,0,0,1.28968,-2.09173,-1.94568)">
                    <ellipse cx="7.677" cy="7.025" rx="0.323" ry="0.308" style="fill:white;"/>
                </g>
                <g transform="matrix(1.28442,0,0,1.28968,-5.44277,-1.93963)">
                    <ellipse cx="7.677" cy="7.025" rx="0.323" ry="0.308" style="fill:white;"/>
                </g>
                <g transform="matrix(1.0091,0,0,1,-0.0673424,0.307498)">
                    <path d="M5.378,9.417L6.967,9.417" style="fill:none;stroke:rgb(44,25,0);stroke-width:0.2px;"/>
                </g>
            </g>
        </g>
    </g>
</svg>
