<?xml version="1.0" encoding="UTF-8" standalone="no"?>
<!DOCTYPE svg PUBLIC "-//W3C//DTD SVG 1.1//EN" "http://www.w3.org/Graphics/SVG/1.1/DTD/svg11.dtd">
<svg width="100%" height="100%" viewBox="0 0 1080 1080" version="1.1" xmlns="http://www.w3.org/2000/svg" xmlns:xlink="http://www.w3.org/1999/xlink" xml:space="preserve" xmlns:serif="http://www.serif.com/" style="fill-rule:evenodd;clip-rule:evenodd;stroke-linecap:round;stroke-linejoin:round;stroke-miterlimit:5.51744;">
    <g transform="matrix(1,0,0,1,-2397.59,0)">
        <g id="sick" transform="matrix(1,0,0,1,2397.59,0)">
            <rect x="0" y="0" width="1080" height="1080" style="fill:none;"/>
            <g transform="matrix(87.2449,0,0,87.2449,37.2682,22.0228)">
                <g>
                    <path d="M9.587,2.034C9.587,2.034 9.475,1.863 9.245,1.826C8.958,1.781 8.675,1.833 8.584,2.249C8.494,2.663 8.448,3.197 8.911,3.569L8.198,3.769L7.588,3.029C7.588,3.029 7.824,3.119 7.856,2.944C7.896,2.729 7.896,2.535 7.947,2.206C8.002,1.862 8.109,1.502 8.439,1.312C8.619,1.208 8.906,1.148 9.001,1.073C9.074,1.013 9.094,0.824 9.126,0.619L9.634,1.009L9.793,1.703L9.587,2.034Z" style="fill:rgb(44,179,182);fill-rule:nonzero;"/>
                    <circle cx="10.068" cy="1.127" r="1.118" style="fill:rgb(252,194,27);"/>
                    <path d="M2.413,2.034C2.413,2.034 2.525,1.863 2.755,1.826C3.042,1.781 3.325,1.833 3.416,2.249C3.506,2.663 3.553,3.197 3.089,3.569L3.802,3.769L4.412,3.029C4.412,3.029 4.176,3.119 4.144,2.944C4.104,2.729 4.104,2.535 4.053,2.206C3.997,1.862 3.891,1.502 3.561,1.312C3.381,1.208 3.094,1.148 2.999,1.073C2.926,1.013 2.906,0.824 2.874,0.619L2.366,1.009L2.207,1.703L2.413,2.034Z" style="fill:rgb(44,179,182);fill-rule:nonzero;"/>
                    <circle cx="1.932" cy="1.127" r="1.118" style="fill:rgb(252,194,27);"/>
                    <path d="M10.058,10.695C10.018,10.452 10.06,10.179 10.103,9.961C10.18,9.568 10.32,9.19 10.458,8.816C10.502,8.695 10.547,8.574 10.589,8.453C10.73,8.048 10.807,7.619 10.807,7.172C10.807,4.784 9.233,2.849 6.001,2.849C2.768,2.849 1.195,4.785 1.195,7.172C1.195,7.589 1.262,7.991 1.386,8.373C1.618,9.089 1.994,9.803 1.97,10.574C1.956,11.037 1.691,11.274 1.367,11.553C1.267,11.639 1.248,11.78 1.374,11.852C1.665,12.019 2.154,11.834 2.437,11.721C2.689,11.619 2.925,11.446 3.122,11.244C3.223,11.141 3.317,11.032 3.41,10.922C3.487,10.832 3.614,10.601 3.76,10.667C4.079,10.81 3.706,11.404 3.545,11.546C3.479,11.604 3.39,11.657 3.36,11.745C3.326,11.842 3.395,11.926 3.482,11.961C3.726,12.058 4.258,11.893 4.502,11.73C4.676,11.613 4.822,11.463 4.943,11.291C5.019,11.184 5.151,10.847 5.32,10.887C5.632,10.962 5.5,11.453 5.521,11.665C5.531,11.774 5.594,11.883 5.703,11.925C5.939,12.018 6.147,11.851 6.286,11.678C6.441,11.486 6.515,11.273 6.636,11.065C6.732,10.897 6.901,10.863 7.022,11.036C7.198,11.288 7.307,11.528 7.587,11.689C7.818,11.82 8.084,11.902 8.35,11.903C8.468,11.903 8.987,11.842 8.812,11.612C8.735,11.512 8.588,11.488 8.487,11.414C8.322,11.291 8.246,11.088 8.241,10.887C8.233,10.601 8.51,10.674 8.646,10.812C8.866,11.035 8.997,11.352 9.281,11.505C9.622,11.688 10.152,11.777 10.527,11.662C10.655,11.622 10.801,11.567 10.809,11.413C10.818,11.268 10.694,11.233 10.578,11.2C10.429,11.159 10.326,11.122 10.211,11.007C10.125,10.925 10.078,10.812 10.058,10.695" style="fill:rgb(44,179,182);fill-rule:nonzero;"/>
                    <g transform="matrix(1.28463,0,0,1.31647,-1.74549,-2.83155)">
                        <path d="M5.114,9.394C5.081,9.379 5.067,9.341 5.082,9.308C5.098,9.276 5.137,9.262 5.17,9.277C5.46,9.404 5.742,9.462 6.015,9.46C6.298,9.459 6.575,9.393 6.845,9.25C6.878,9.233 6.919,9.244 6.937,9.276C6.955,9.307 6.944,9.347 6.911,9.365C6.623,9.529 6.324,9.617 6.016,9.618C5.722,9.619 5.421,9.541 5.114,9.394Z" style="fill:rgb(7,71,72);"/>
                    </g>
                </g>
                <g transform="matrix(1.03656,0,0,1.03656,-0.136991,-0.646863)">
                    <g transform="matrix(1.0114,0,0,1.0114,-0.068396,-0.0692903)">
                        <path d="M7.813,9.757C7.775,9.751 7.749,9.715 7.755,9.677C7.762,9.64 7.797,9.614 7.835,9.62C8.065,9.658 8.296,9.675 8.527,9.703C9.033,9.765 9.56,9.833 10.067,9.747C10.105,9.741 10.141,9.767 10.147,9.804C10.153,9.842 10.128,9.878 10.09,9.884C9.57,9.972 9.03,9.904 8.51,9.841C8.277,9.813 8.044,9.795 7.813,9.757Z" style="fill:white;"/>
                    </g>
                    <g transform="matrix(1.0114,0,0,1.0114,-0.0754234,-0.111254)">
                        <path d="M7.699,8.625C7.662,8.637 7.623,8.617 7.611,8.581C7.599,8.545 7.619,8.505 7.655,8.494C8.312,8.279 8.984,8.115 9.667,8.014C10.008,7.964 10.327,7.912 10.663,7.924C10.701,7.925 10.731,7.957 10.73,7.995C10.729,8.034 10.697,8.064 10.658,8.062C10.33,8.051 10.02,8.102 9.687,8.151C9.012,8.251 8.348,8.413 7.699,8.625Z" style="fill:white;"/>
                    </g>
                    <g transform="matrix(1.0114,0,0,1.0114,-0.068396,-0.0692903)">
                        <path d="M4.163,9.679C4.182,9.675 4.2,9.688 4.204,9.706C4.208,9.725 4.195,9.743 4.177,9.747C3.81,9.818 3.429,9.846 3.045,9.845C2.666,9.843 2.284,9.814 1.913,9.772C1.894,9.77 1.881,9.753 1.883,9.734C1.885,9.715 1.902,9.701 1.921,9.703C2.29,9.745 2.669,9.774 3.045,9.775C3.425,9.777 3.802,9.75 4.163,9.679Z" style="fill:white;"/>
                    </g>
                    <g transform="matrix(1.0114,0,0,1.0114,-0.068396,-0.0692903)">
                        <path d="M4.336,8.501C4.355,8.505 4.368,8.522 4.365,8.541C4.361,8.56 4.344,8.573 4.325,8.57C3.942,8.504 3.562,8.448 3.181,8.405C2.8,8.361 2.418,8.33 2.03,8.312L1.401,8.269C1.382,8.268 1.367,8.251 1.368,8.232C1.369,8.213 1.385,8.198 1.405,8.199L2.033,8.243C2.423,8.261 2.807,8.292 3.189,8.336C3.572,8.38 3.953,8.435 4.336,8.501Z" style="fill:white;"/>
                    </g>
                    <g transform="matrix(20.3378,-6.52501,8.69374,24.5394,-9.56483,-2.41657)">
                        <path d="M0.556,0.572C0.552,0.569 0.552,0.56 0.556,0.557C0.572,0.548 0.635,0.524 0.651,0.52C0.656,0.519 0.656,0.533 0.651,0.536C0.638,0.543 0.574,0.565 0.574,0.565C0.574,0.565 0.625,0.582 0.635,0.589C0.64,0.592 0.64,0.606 0.635,0.605C0.622,0.602 0.57,0.58 0.556,0.572Z" style="fill:rgb(0,89,84);fill-rule:nonzero;"/>
                    </g>
                    <g transform="matrix(-20.9592,-4.11216,-5.77682,25.3849,20.0737,-4.17915)">
                        <path d="M0.556,0.572C0.552,0.569 0.552,0.56 0.556,0.557C0.572,0.548 0.635,0.524 0.651,0.52C0.656,0.519 0.656,0.533 0.651,0.536C0.638,0.543 0.574,0.565 0.574,0.565C0.574,0.565 0.625,0.582 0.635,0.589C0.64,0.592 0.64,0.606 0.635,0.605C0.622,0.602 0.57,0.58 0.556,0.572Z" style="fill:rgb(0,89,84);fill-rule:nonzero;"/>
                    </g>
                    <g transform="matrix(10.1188,0,0,10.1188,0.664096,1.08807)">
                        <g transform="matrix(1.20509,0,0,1.20509,-0.107407,-0.18511)">
                            <path d="M0.371,0.864L0.382,0.761C0.429,0.745 0.475,0.731 0.522,0.721C0.573,0.731 0.622,0.744 0.666,0.761L0.677,0.864C0.677,0.864 0.618,0.981 0.522,0.981C0.425,0.981 0.371,0.864 0.371,0.864" style="fill:white;"/>
                        </g>
                        <g transform="matrix(1.20509,0,0,1.20509,-0.107407,-0.18511)">
                            <clipPath id="_clip1">
                                <path d="M0.371,0.864L0.382,0.761C0.429,0.745 0.475,0.731 0.522,0.721C0.573,0.731 0.622,0.744 0.666,0.761L0.677,0.864C0.677,0.864 0.618,0.981 0.522,0.981C0.425,0.981 0.371,0.864 0.371,0.864"/>
                            </clipPath>
                            <g clip-path="url(#_clip1)">
                                <g transform="matrix(0.933915,0,0,0.933915,0.0346092,0.0562563)">
                                    <path d="M0.371,0.864L0.382,0.761C0.429,0.745 0.475,0.731 0.522,0.721C0.573,0.731 0.622,0.744 0.666,0.761L0.677,0.864C0.677,0.864 0.618,0.981 0.522,0.981C0.425,0.981 0.371,0.864 0.371,0.864" style="fill:rgb(117,206,255);"/>
                                    <g>
                                        <clipPath id="_clip2">
                                            <path d="M0.371,0.864L0.382,0.761C0.429,0.745 0.475,0.731 0.522,0.721C0.573,0.731 0.622,0.744 0.666,0.761L0.677,0.864C0.677,0.864 0.618,0.981 0.522,0.981C0.425,0.981 0.371,0.864 0.371,0.864"/>
                                        </clipPath>
                                        <g clip-path="url(#_clip2)">
                                            <g>
                                                <g transform="matrix(-7.86332e-17,-0.202362,1.10519,-3.83577e-16,-0.304572,0.956501)">
                                                    <path d="M0.171,0.672C0.18,0.67 0.153,0.671 0.143,0.672C0.039,0.69 0.048,0.811 0.142,0.828C0.152,0.83 0.179,0.831 0.17,0.828C0.1,0.81 0.096,0.689 0.171,0.672Z" style="fill:rgb(30,115,162);fill-opacity:0.5;"/>
                                                </g>
                                                <g transform="matrix(-8.81858e-17,0.226945,1.23945,4.30175e-16,-0.405843,0.7381)">
                                                    <path d="M0.171,0.672C0.18,0.67 0.153,0.671 0.143,0.672C0.039,0.69 0.048,0.811 0.142,0.828C0.152,0.83 0.179,0.831 0.17,0.828C0.1,0.81 0.096,0.689 0.171,0.672Z" style="fill:rgb(30,115,162);fill-opacity:0.5;"/>
                                                </g>
                                                <g transform="matrix(-9.65948e-17,0.248586,1.35764,4.71194e-16,-0.496399,0.781358)">
                                                    <path d="M0.171,0.672C0.18,0.67 0.153,0.671 0.143,0.672C0.039,0.69 0.048,0.811 0.142,0.828C0.152,0.83 0.179,0.831 0.17,0.828C0.1,0.81 0.096,0.689 0.171,0.672Z" style="fill:rgb(30,115,162);fill-opacity:0.5;"/>
                                                </g>
                                                <g transform="matrix(-8.78831e-17,-0.226166,1.2352,-4.28698e-16,-0.402118,0.927447)">
                                                    <path d="M0.171,0.672C0.18,0.67 0.153,0.671 0.143,0.672C0.039,0.69 0.048,0.811 0.142,0.828C0.152,0.83 0.179,0.831 0.17,0.828C0.1,0.81 0.096,0.689 0.171,0.672Z" style="fill:rgb(30,115,162);fill-opacity:0.5;"/>
                                                </g>
                                            </g>
                                        </g>
                                    </g>
                                </g>
                            </g>
                        </g>
                    </g>
                </g>
            </g>
            <g id="Layer4">
                <g>
                    <g transform="matrix(19.5167,0,0,20.0964,865.041,190.027)">
                        <path d="M4.85,1.725C4.85,1.588 4.963,1.475 5.1,1.475L6.9,1.475C7.037,1.475 7.15,1.588 7.15,1.725C7.15,1.862 7.037,1.975 6.9,1.975L6.25,1.975L6.25,2.634C6.994,2.689 7.671,2.984 8.203,3.443L8.684,2.963L8.298,2.577C8.253,2.53 8.228,2.468 8.228,2.403C8.228,2.266 8.341,2.153 8.478,2.153C8.543,2.153 8.605,2.178 8.652,2.223L9.777,3.348C9.822,3.395 9.847,3.457 9.847,3.522C9.847,3.659 9.734,3.772 9.597,3.772C9.532,3.772 9.47,3.747 9.423,3.702L9.038,3.316L8.557,3.797C9.029,4.344 9.313,5.029 9.366,5.75L10.025,5.75L10.025,5.1C10.025,4.963 10.138,4.85 10.275,4.85C10.412,4.85 10.525,4.963 10.525,5.1L10.525,6.9C10.525,7.037 10.412,7.15 10.275,7.15C10.138,7.15 10.025,7.037 10.025,6.9L10.025,6.25L9.366,6.25C9.313,6.971 9.029,7.656 8.557,8.203L9.038,8.684L9.423,8.298C9.47,8.253 9.532,8.228 9.597,8.228C9.734,8.228 9.847,8.341 9.847,8.478C9.847,8.543 9.822,8.605 9.777,8.652L8.652,9.777C8.605,9.822 8.543,9.847 8.478,9.847C8.341,9.847 8.228,9.734 8.228,9.597C8.228,9.532 8.253,9.47 8.298,9.423L8.684,9.038L8.203,8.557C7.656,9.029 6.971,9.313 6.25,9.366L6.25,10.025L6.9,10.025C7.037,10.025 7.15,10.138 7.15,10.275C7.15,10.412 7.037,10.525 6.9,10.525L5.1,10.525C4.963,10.525 4.85,10.412 4.85,10.275C4.85,10.138 4.963,10.025 5.1,10.025L5.75,10.025L5.75,9.366C5.029,9.313 4.344,9.029 3.797,8.557L3.316,9.038L3.702,9.423C3.747,9.47 3.772,9.532 3.772,9.597C3.772,9.734 3.659,9.847 3.522,9.847C3.457,9.847 3.395,9.822 3.348,9.777L2.223,8.652C2.174,8.605 2.147,8.54 2.147,8.472C2.147,8.335 2.26,8.222 2.397,8.222C2.465,8.222 2.53,8.249 2.577,8.298L2.963,8.684L3.443,8.203C2.97,7.656 2.687,6.971 2.634,6.25L1.975,6.25L1.975,6.9C1.975,7.037 1.862,7.15 1.725,7.15C1.588,7.15 1.475,7.037 1.475,6.9L1.475,5.1C1.475,4.963 1.588,4.85 1.725,4.85C1.862,4.85 1.975,4.963 1.975,5.1L1.975,5.75L2.634,5.75C2.687,5.029 2.97,4.344 3.443,3.797L2.963,3.316L2.577,3.702C2.53,3.747 2.468,3.772 2.403,3.772C2.266,3.772 2.153,3.659 2.153,3.522C2.153,3.457 2.178,3.395 2.223,3.348L3.348,2.223C3.395,2.174 3.46,2.147 3.528,2.147C3.665,2.147 3.778,2.26 3.778,2.397C3.778,2.465 3.751,2.53 3.702,2.577L3.316,2.963L3.797,3.443C4.344,2.97 5.029,2.687 5.75,2.634L5.75,1.975L5.1,1.975C4.963,1.975 4.85,1.862 4.85,1.725" style="fill:rgb(87,157,79);"/>
                        <clipPath id="_clip3">
                            <path d="M4.85,1.725C4.85,1.588 4.963,1.475 5.1,1.475L6.9,1.475C7.037,1.475 7.15,1.588 7.15,1.725C7.15,1.862 7.037,1.975 6.9,1.975L6.25,1.975L6.25,2.634C6.994,2.689 7.671,2.984 8.203,3.443L8.684,2.963L8.298,2.577C8.253,2.53 8.228,2.468 8.228,2.403C8.228,2.266 8.341,2.153 8.478,2.153C8.543,2.153 8.605,2.178 8.652,2.223L9.777,3.348C9.822,3.395 9.847,3.457 9.847,3.522C9.847,3.659 9.734,3.772 9.597,3.772C9.532,3.772 9.47,3.747 9.423,3.702L9.038,3.316L8.557,3.797C9.029,4.344 9.313,5.029 9.366,5.75L10.025,5.75L10.025,5.1C10.025,4.963 10.138,4.85 10.275,4.85C10.412,4.85 10.525,4.963 10.525,5.1L10.525,6.9C10.525,7.037 10.412,7.15 10.275,7.15C10.138,7.15 10.025,7.037 10.025,6.9L10.025,6.25L9.366,6.25C9.313,6.971 9.029,7.656 8.557,8.203L9.038,8.684L9.423,8.298C9.47,8.253 9.532,8.228 9.597,8.228C9.734,8.228 9.847,8.341 9.847,8.478C9.847,8.543 9.822,8.605 9.777,8.652L8.652,9.777C8.605,9.822 8.543,9.847 8.478,9.847C8.341,9.847 8.228,9.734 8.228,9.597C8.228,9.532 8.253,9.47 8.298,9.423L8.684,9.038L8.203,8.557C7.656,9.029 6.971,9.313 6.25,9.366L6.25,10.025L6.9,10.025C7.037,10.025 7.15,10.138 7.15,10.275C7.15,10.412 7.037,10.525 6.9,10.525L5.1,10.525C4.963,10.525 4.85,10.412 4.85,10.275C4.85,10.138 4.963,10.025 5.1,10.025L5.75,10.025L5.75,9.366C5.029,9.313 4.344,9.029 3.797,8.557L3.316,9.038L3.702,9.423C3.747,9.47 3.772,9.532 3.772,9.597C3.772,9.734 3.659,9.847 3.522,9.847C3.457,9.847 3.395,9.822 3.348,9.777L2.223,8.652C2.174,8.605 2.147,8.54 2.147,8.472C2.147,8.335 2.26,8.222 2.397,8.222C2.465,8.222 2.53,8.249 2.577,8.298L2.963,8.684L3.443,8.203C2.97,7.656 2.687,6.971 2.634,6.25L1.975,6.25L1.975,6.9C1.975,7.037 1.862,7.15 1.725,7.15C1.588,7.15 1.475,7.037 1.475,6.9L1.475,5.1C1.475,4.963 1.588,4.85 1.725,4.85C1.862,4.85 1.975,4.963 1.975,5.1L1.975,5.75L2.634,5.75C2.687,5.029 2.97,4.344 3.443,3.797L2.963,3.316L2.577,3.702C2.53,3.747 2.468,3.772 2.403,3.772C2.266,3.772 2.153,3.659 2.153,3.522C2.153,3.457 2.178,3.395 2.223,3.348L3.348,2.223C3.395,2.174 3.46,2.147 3.528,2.147C3.665,2.147 3.778,2.26 3.778,2.397C3.778,2.465 3.751,2.53 3.702,2.577L3.316,2.963L3.797,3.443C4.344,2.97 5.029,2.687 5.75,2.634L5.75,1.975L5.1,1.975C4.963,1.975 4.85,1.862 4.85,1.725"/>
                        </clipPath>
                        <g clip-path="url(#_clip3)">
                            <g transform="matrix(0.00953872,0,0,0.00953872,-21.5223,0.849091)">
                                <path d="M2931.46,666.048C2945.7,664.767 2959.84,669.37 2970.41,678.729C2980.98,688.088 2987.01,701.337 2987.01,715.228C2987.28,715.271 2987.28,715.313 2987.28,715.355C2987.28,732.253 2975.5,747.009 2958.65,751.224C2915.24,761.966 2872.05,763.176 2829.05,755.028C2802.19,750.098 2782.74,727.302 2782.74,700.751C2782.61,700.749 2782.61,700.747 2782.61,700.745C2782.61,690.308 2787.19,680.365 2795.2,673.404C2803.21,666.443 2813.89,663.123 2824.57,664.275C2861.12,668.175 2896.76,668.747 2931.46,666.048Z" style="fill:white;"/>
                                <clipPath id="_clip4">
                                    <path d="M2931.46,666.048C2945.7,664.767 2959.84,669.37 2970.41,678.729C2980.98,688.088 2987.01,701.337 2987.01,715.228C2987.28,715.271 2987.28,715.313 2987.28,715.355C2987.28,732.253 2975.5,747.009 2958.65,751.224C2915.24,761.966 2872.05,763.176 2829.05,755.028C2802.19,750.098 2782.74,727.302 2782.74,700.751C2782.61,700.749 2782.61,700.747 2782.61,700.745C2782.61,690.308 2787.19,680.365 2795.2,673.404C2803.21,666.443 2813.89,663.123 2824.57,664.275C2861.12,668.175 2896.76,668.747 2931.46,666.048Z"/>
                                </clipPath>
                                <g clip-path="url(#_clip4)">
                                    <path d="M2840.88,665.875L2840.88,760.327" style="fill:none;stroke:black;stroke-width:14.53px;"/>
                                    <path d="M2930.87,665.875L2930.87,760.327" style="fill:none;stroke:black;stroke-width:14.53px;"/>
                                </g>
                                <path d="M2931.46,666.048C2945.7,664.767 2959.84,669.37 2970.41,678.729C2980.98,688.088 2987.01,701.337 2987.01,715.228C2987.28,715.271 2987.28,715.313 2987.28,715.355C2987.28,732.253 2975.5,747.009 2958.65,751.224C2915.24,761.966 2872.05,763.176 2829.05,755.028C2802.19,750.098 2782.74,727.302 2782.74,700.751C2782.61,700.749 2782.61,700.747 2782.61,700.745C2782.61,690.308 2787.19,680.365 2795.2,673.404C2803.21,666.443 2813.89,663.123 2824.57,664.275C2861.12,668.175 2896.76,668.747 2931.46,666.048Z" style="fill:none;stroke:black;stroke-width:14.53px;"/>
                            </g>
                            <g>
                                <g transform="matrix(0.487956,0.00415536,-0.00415536,0.487956,2.95366,2.4444)">
                                    <path d="M5.844,7.357C5.844,8.28 5.06,9.244 4.203,8.903C4.059,8.845 2.481,8.28 2.481,7.357C2.481,6.565 3.04,5.894 3.782,5.719C3.904,5.69 5.673,6.638 5.794,6.95C5.842,7.075 5.844,7.217 5.844,7.357" style="fill:white;"/>
                                    <clipPath id="_clip5">
                                        <path d="M5.844,7.357C5.844,8.28 5.06,9.244 4.203,8.903C4.059,8.845 2.481,8.28 2.481,7.357C2.481,6.565 3.04,5.894 3.782,5.719C3.904,5.69 5.673,6.638 5.794,6.95C5.842,7.075 5.844,7.217 5.844,7.357"/>
                                    </clipPath>
                                    <g clip-path="url(#_clip5)">
                                        <path d="M4.506,8.299C5.017,8.299 5.437,7.879 5.437,7.368C5.437,6.857 5.017,6.437 4.506,6.437C3.995,6.437 3.574,6.857 3.574,7.368C3.574,7.879 3.995,8.299 4.506,8.299" style="fill:rgb(25,25,25);"/>
                                        <clipPath id="_clip6">
                                            <path d="M4.506,8.299C5.017,8.299 5.437,7.879 5.437,7.368C5.437,6.857 5.017,6.437 4.506,6.437C3.995,6.437 3.574,6.857 3.574,7.368C3.574,7.879 3.995,8.299 4.506,8.299"/>
                                        </clipPath>
                                        <g clip-path="url(#_clip6)">
                                            <g transform="matrix(1.28442,0,1.73472e-18,1.28968,-2.09173,-1.94568)">
                                                <ellipse cx="7.677" cy="7.025" rx="0.323" ry="0.308" style="fill:white;"/>
                                            </g>
                                            <g transform="matrix(1.28442,0,1.73472e-18,1.28968,-5.44277,-1.93963)">
                                                <ellipse cx="7.677" cy="7.025" rx="0.323" ry="0.308" style="fill:white;"/>
                                            </g>
                                        </g>
                                    </g>
                                </g>
                                <g transform="matrix(0.0103529,0.000103685,0.000902567,0.00983876,-24.2206,0.565794)">
                                    <path d="M2745.94,437.183L2854.53,506.631" style="fill:none;stroke:black;stroke-width:25.35px;"/>
                                </g>
                            </g>
                            <g>
                                <g transform="matrix(-0.487956,0.00415536,0.00415536,0.487956,9.14212,2.4444)">
                                    <path d="M5.844,7.357C5.844,8.28 5.06,9.244 4.203,8.903C4.059,8.845 2.481,8.28 2.481,7.357C2.481,6.565 3.04,5.894 3.782,5.719C3.904,5.69 5.673,6.638 5.794,6.95C5.842,7.075 5.844,7.217 5.844,7.357" style="fill:white;"/>
                                    <clipPath id="_clip7">
                                        <path d="M5.844,7.357C5.844,8.28 5.06,9.244 4.203,8.903C4.059,8.845 2.481,8.28 2.481,7.357C2.481,6.565 3.04,5.894 3.782,5.719C3.904,5.69 5.673,6.638 5.794,6.95C5.842,7.075 5.844,7.217 5.844,7.357"/>
                                    </clipPath>
                                    <g clip-path="url(#_clip7)">
                                        <path d="M4.506,8.299C5.017,8.299 5.437,7.879 5.437,7.368C5.437,6.857 5.017,6.437 4.506,6.437C3.995,6.437 3.574,6.857 3.574,7.368C3.574,7.879 3.995,8.299 4.506,8.299" style="fill:rgb(25,25,25);"/>
                                        <clipPath id="_clip8">
                                            <path d="M4.506,8.299C5.017,8.299 5.437,7.879 5.437,7.368C5.437,6.857 5.017,6.437 4.506,6.437C3.995,6.437 3.574,6.857 3.574,7.368C3.574,7.879 3.995,8.299 4.506,8.299"/>
                                        </clipPath>
                                        <g clip-path="url(#_clip8)">
                                            <g transform="matrix(1.28442,0,1.73472e-18,1.28968,-2.09173,-1.94568)">
                                                <ellipse cx="7.677" cy="7.025" rx="0.323" ry="0.308" style="fill:white;"/>
                                            </g>
                                            <g transform="matrix(1.28442,0,1.73472e-18,1.28968,-5.44277,-1.93963)">
                                                <ellipse cx="7.677" cy="7.025" rx="0.323" ry="0.308" style="fill:white;"/>
                                            </g>
                                        </g>
                                    </g>
                                </g>
                                <g transform="matrix(-0.0103529,0.000103685,-0.000902567,0.00983876,36.3163,0.565794)">
                                    <path d="M2745.94,437.183L2854.53,506.631" style="fill:none;stroke:black;stroke-width:25.35px;"/>
                                </g>
                            </g>
                        </g>
                    </g>
                    <g transform="matrix(19.5167,0,0,20.0964,-13.2165,215.036)">
                        <path d="M4.85,1.725C4.85,1.588 4.963,1.475 5.1,1.475L6.9,1.475C7.037,1.475 7.15,1.588 7.15,1.725C7.15,1.862 7.037,1.975 6.9,1.975L6.25,1.975L6.25,2.634C6.994,2.689 7.671,2.984 8.203,3.443L8.684,2.963L8.298,2.577C8.253,2.53 8.228,2.468 8.228,2.403C8.228,2.266 8.341,2.153 8.478,2.153C8.543,2.153 8.605,2.178 8.652,2.223L9.777,3.348C9.822,3.395 9.847,3.457 9.847,3.522C9.847,3.659 9.734,3.772 9.597,3.772C9.532,3.772 9.47,3.747 9.423,3.702L9.038,3.316L8.557,3.797C9.029,4.344 9.313,5.029 9.366,5.75L10.025,5.75L10.025,5.1C10.025,4.963 10.138,4.85 10.275,4.85C10.412,4.85 10.525,4.963 10.525,5.1L10.525,6.9C10.525,7.037 10.412,7.15 10.275,7.15C10.138,7.15 10.025,7.037 10.025,6.9L10.025,6.25L9.366,6.25C9.313,6.971 9.029,7.656 8.557,8.203L9.038,8.684L9.423,8.298C9.47,8.253 9.532,8.228 9.597,8.228C9.734,8.228 9.847,8.341 9.847,8.478C9.847,8.543 9.822,8.605 9.777,8.652L8.652,9.777C8.605,9.822 8.543,9.847 8.478,9.847C8.341,9.847 8.228,9.734 8.228,9.597C8.228,9.532 8.253,9.47 8.298,9.423L8.684,9.038L8.203,8.557C7.656,9.029 6.971,9.313 6.25,9.366L6.25,10.025L6.9,10.025C7.037,10.025 7.15,10.138 7.15,10.275C7.15,10.412 7.037,10.525 6.9,10.525L5.1,10.525C4.963,10.525 4.85,10.412 4.85,10.275C4.85,10.138 4.963,10.025 5.1,10.025L5.75,10.025L5.75,9.366C5.029,9.313 4.344,9.029 3.797,8.557L3.316,9.038L3.702,9.423C3.747,9.47 3.772,9.532 3.772,9.597C3.772,9.734 3.659,9.847 3.522,9.847C3.457,9.847 3.395,9.822 3.348,9.777L2.223,8.652C2.174,8.605 2.147,8.54 2.147,8.472C2.147,8.335 2.26,8.222 2.397,8.222C2.465,8.222 2.53,8.249 2.577,8.298L2.963,8.684L3.443,8.203C2.97,7.656 2.687,6.971 2.634,6.25L1.975,6.25L1.975,6.9C1.975,7.037 1.862,7.15 1.725,7.15C1.588,7.15 1.475,7.037 1.475,6.9L1.475,5.1C1.475,4.963 1.588,4.85 1.725,4.85C1.862,4.85 1.975,4.963 1.975,5.1L1.975,5.75L2.634,5.75C2.687,5.029 2.97,4.344 3.443,3.797L2.963,3.316L2.577,3.702C2.53,3.747 2.468,3.772 2.403,3.772C2.266,3.772 2.153,3.659 2.153,3.522C2.153,3.457 2.178,3.395 2.223,3.348L3.348,2.223C3.395,2.174 3.46,2.147 3.528,2.147C3.665,2.147 3.778,2.26 3.778,2.397C3.778,2.465 3.751,2.53 3.702,2.577L3.316,2.963L3.797,3.443C4.344,2.97 5.029,2.687 5.75,2.634L5.75,1.975L5.1,1.975C4.963,1.975 4.85,1.862 4.85,1.725" style="fill:rgb(87,157,79);"/>
                        <clipPath id="_clip9">
                            <path d="M4.85,1.725C4.85,1.588 4.963,1.475 5.1,1.475L6.9,1.475C7.037,1.475 7.15,1.588 7.15,1.725C7.15,1.862 7.037,1.975 6.9,1.975L6.25,1.975L6.25,2.634C6.994,2.689 7.671,2.984 8.203,3.443L8.684,2.963L8.298,2.577C8.253,2.53 8.228,2.468 8.228,2.403C8.228,2.266 8.341,2.153 8.478,2.153C8.543,2.153 8.605,2.178 8.652,2.223L9.777,3.348C9.822,3.395 9.847,3.457 9.847,3.522C9.847,3.659 9.734,3.772 9.597,3.772C9.532,3.772 9.47,3.747 9.423,3.702L9.038,3.316L8.557,3.797C9.029,4.344 9.313,5.029 9.366,5.75L10.025,5.75L10.025,5.1C10.025,4.963 10.138,4.85 10.275,4.85C10.412,4.85 10.525,4.963 10.525,5.1L10.525,6.9C10.525,7.037 10.412,7.15 10.275,7.15C10.138,7.15 10.025,7.037 10.025,6.9L10.025,6.25L9.366,6.25C9.313,6.971 9.029,7.656 8.557,8.203L9.038,8.684L9.423,8.298C9.47,8.253 9.532,8.228 9.597,8.228C9.734,8.228 9.847,8.341 9.847,8.478C9.847,8.543 9.822,8.605 9.777,8.652L8.652,9.777C8.605,9.822 8.543,9.847 8.478,9.847C8.341,9.847 8.228,9.734 8.228,9.597C8.228,9.532 8.253,9.47 8.298,9.423L8.684,9.038L8.203,8.557C7.656,9.029 6.971,9.313 6.25,9.366L6.25,10.025L6.9,10.025C7.037,10.025 7.15,10.138 7.15,10.275C7.15,10.412 7.037,10.525 6.9,10.525L5.1,10.525C4.963,10.525 4.85,10.412 4.85,10.275C4.85,10.138 4.963,10.025 5.1,10.025L5.75,10.025L5.75,9.366C5.029,9.313 4.344,9.029 3.797,8.557L3.316,9.038L3.702,9.423C3.747,9.47 3.772,9.532 3.772,9.597C3.772,9.734 3.659,9.847 3.522,9.847C3.457,9.847 3.395,9.822 3.348,9.777L2.223,8.652C2.174,8.605 2.147,8.54 2.147,8.472C2.147,8.335 2.26,8.222 2.397,8.222C2.465,8.222 2.53,8.249 2.577,8.298L2.963,8.684L3.443,8.203C2.97,7.656 2.687,6.971 2.634,6.25L1.975,6.25L1.975,6.9C1.975,7.037 1.862,7.15 1.725,7.15C1.588,7.15 1.475,7.037 1.475,6.9L1.475,5.1C1.475,4.963 1.588,4.85 1.725,4.85C1.862,4.85 1.975,4.963 1.975,5.1L1.975,5.75L2.634,5.75C2.687,5.029 2.97,4.344 3.443,3.797L2.963,3.316L2.577,3.702C2.53,3.747 2.468,3.772 2.403,3.772C2.266,3.772 2.153,3.659 2.153,3.522C2.153,3.457 2.178,3.395 2.223,3.348L3.348,2.223C3.395,2.174 3.46,2.147 3.528,2.147C3.665,2.147 3.778,2.26 3.778,2.397C3.778,2.465 3.751,2.53 3.702,2.577L3.316,2.963L3.797,3.443C4.344,2.97 5.029,2.687 5.75,2.634L5.75,1.975L5.1,1.975C4.963,1.975 4.85,1.862 4.85,1.725"/>
                        </clipPath>
                        <g clip-path="url(#_clip9)">
                            <g transform="matrix(0.00953872,0,0,0.00953872,-21.5223,0.849091)">
                                <path d="M2931.46,666.048C2945.7,664.767 2959.84,669.37 2970.41,678.729C2980.98,688.088 2987.01,701.337 2987.01,715.228C2987.28,715.271 2987.28,715.313 2987.28,715.355C2987.28,732.253 2975.5,747.009 2958.65,751.224C2915.24,761.966 2872.05,763.176 2829.05,755.028C2802.19,750.098 2782.74,727.302 2782.74,700.751C2782.61,700.749 2782.61,700.747 2782.61,700.745C2782.61,690.308 2787.19,680.365 2795.2,673.404C2803.21,666.443 2813.89,663.123 2824.57,664.275C2861.12,668.175 2896.76,668.747 2931.46,666.048Z" style="fill:white;"/>
                                <clipPath id="_clip10">
                                    <path d="M2931.46,666.048C2945.7,664.767 2959.84,669.37 2970.41,678.729C2980.98,688.088 2987.01,701.337 2987.01,715.228C2987.28,715.271 2987.28,715.313 2987.28,715.355C2987.28,732.253 2975.5,747.009 2958.65,751.224C2915.24,761.966 2872.05,763.176 2829.05,755.028C2802.19,750.098 2782.74,727.302 2782.74,700.751C2782.61,700.749 2782.61,700.747 2782.61,700.745C2782.61,690.308 2787.19,680.365 2795.2,673.404C2803.21,666.443 2813.89,663.123 2824.57,664.275C2861.12,668.175 2896.76,668.747 2931.46,666.048Z"/>
                                </clipPath>
                                <g clip-path="url(#_clip10)">
                                    <path d="M2840.88,665.875L2840.88,760.327" style="fill:none;stroke:black;stroke-width:14.53px;"/>
                                    <path d="M2930.87,665.875L2930.87,760.327" style="fill:none;stroke:black;stroke-width:14.53px;"/>
                                </g>
                                <path d="M2931.46,666.048C2945.7,664.767 2959.84,669.37 2970.41,678.729C2980.98,688.088 2987.01,701.337 2987.01,715.228C2987.28,715.271 2987.28,715.313 2987.28,715.355C2987.28,732.253 2975.5,747.009 2958.65,751.224C2915.24,761.966 2872.05,763.176 2829.05,755.028C2802.19,750.098 2782.74,727.302 2782.74,700.751C2782.61,700.749 2782.61,700.747 2782.61,700.745C2782.61,690.308 2787.19,680.365 2795.2,673.404C2803.21,666.443 2813.89,663.123 2824.57,664.275C2861.12,668.175 2896.76,668.747 2931.46,666.048Z" style="fill:none;stroke:black;stroke-width:14.53px;"/>
                            </g>
                            <g>
                                <g transform="matrix(0.487956,0.00415536,-0.00415536,0.487956,2.95366,2.4444)">
                                    <path d="M5.844,7.357C5.844,8.28 5.06,9.244 4.203,8.903C4.059,8.845 2.481,8.28 2.481,7.357C2.481,6.565 3.04,5.894 3.782,5.719C3.904,5.69 5.673,6.638 5.794,6.95C5.842,7.075 5.844,7.217 5.844,7.357" style="fill:white;"/>
                                    <clipPath id="_clip11">
                                        <path d="M5.844,7.357C5.844,8.28 5.06,9.244 4.203,8.903C4.059,8.845 2.481,8.28 2.481,7.357C2.481,6.565 3.04,5.894 3.782,5.719C3.904,5.69 5.673,6.638 5.794,6.95C5.842,7.075 5.844,7.217 5.844,7.357"/>
                                    </clipPath>
                                    <g clip-path="url(#_clip11)">
                                        <path d="M4.506,8.299C5.017,8.299 5.437,7.879 5.437,7.368C5.437,6.857 5.017,6.437 4.506,6.437C3.995,6.437 3.574,6.857 3.574,7.368C3.574,7.879 3.995,8.299 4.506,8.299" style="fill:rgb(25,25,25);"/>
                                        <clipPath id="_clip12">
                                            <path d="M4.506,8.299C5.017,8.299 5.437,7.879 5.437,7.368C5.437,6.857 5.017,6.437 4.506,6.437C3.995,6.437 3.574,6.857 3.574,7.368C3.574,7.879 3.995,8.299 4.506,8.299"/>
                                        </clipPath>
                                        <g clip-path="url(#_clip12)">
                                            <g transform="matrix(1.28442,0,1.73472e-18,1.28968,-2.09173,-1.94568)">
                                                <ellipse cx="7.677" cy="7.025" rx="0.323" ry="0.308" style="fill:white;"/>
                                            </g>
                                            <g transform="matrix(1.28442,0,1.73472e-18,1.28968,-5.44277,-1.93963)">
                                                <ellipse cx="7.677" cy="7.025" rx="0.323" ry="0.308" style="fill:white;"/>
                                            </g>
                                        </g>
                                    </g>
                                </g>
                                <g transform="matrix(0.0103529,0.000103685,0.000902567,0.00983876,-24.2206,0.565794)">
                                    <path d="M2745.94,437.183L2854.53,506.631" style="fill:none;stroke:black;stroke-width:25.35px;"/>
                                </g>
                            </g>
                            <g>
                                <g transform="matrix(-0.487956,0.00415536,0.00415536,0.487956,9.14212,2.4444)">
                                    <path d="M5.844,7.357C5.844,8.28 5.06,9.244 4.203,8.903C4.059,8.845 2.481,8.28 2.481,7.357C2.481,6.565 3.04,5.894 3.782,5.719C3.904,5.69 5.673,6.638 5.794,6.95C5.842,7.075 5.844,7.217 5.844,7.357" style="fill:white;"/>
                                    <clipPath id="_clip13">
                                        <path d="M5.844,7.357C5.844,8.28 5.06,9.244 4.203,8.903C4.059,8.845 2.481,8.28 2.481,7.357C2.481,6.565 3.04,5.894 3.782,5.719C3.904,5.69 5.673,6.638 5.794,6.95C5.842,7.075 5.844,7.217 5.844,7.357"/>
                                    </clipPath>
                                    <g clip-path="url(#_clip13)">
                                        <path d="M4.506,8.299C5.017,8.299 5.437,7.879 5.437,7.368C5.437,6.857 5.017,6.437 4.506,6.437C3.995,6.437 3.574,6.857 3.574,7.368C3.574,7.879 3.995,8.299 4.506,8.299" style="fill:rgb(25,25,25);"/>
                                        <clipPath id="_clip14">
                                            <path d="M4.506,8.299C5.017,8.299 5.437,7.879 5.437,7.368C5.437,6.857 5.017,6.437 4.506,6.437C3.995,6.437 3.574,6.857 3.574,7.368C3.574,7.879 3.995,8.299 4.506,8.299"/>
                                        </clipPath>
                                        <g clip-path="url(#_clip14)">
                                            <g transform="matrix(1.28442,0,1.73472e-18,1.28968,-2.09173,-1.94568)">
                                                <ellipse cx="7.677" cy="7.025" rx="0.323" ry="0.308" style="fill:white;"/>
                                            </g>
                                            <g transform="matrix(1.28442,0,1.73472e-18,1.28968,-5.44277,-1.93963)">
                                                <ellipse cx="7.677" cy="7.025" rx="0.323" ry="0.308" style="fill:white;"/>
                                            </g>
                                        </g>
                                    </g>
                                </g>
                                <g transform="matrix(-0.0103529,0.000103685,-0.000902567,0.00983876,36.3163,0.565794)">
                                    <path d="M2745.94,437.183L2854.53,506.631" style="fill:none;stroke:black;stroke-width:25.35px;"/>
                                </g>
                            </g>
                        </g>
                    </g>
                    <g transform="matrix(19.3133,0,0,18.4692,69.3645,748.063)">
                        <path d="M4.85,1.725C4.85,1.588 4.963,1.475 5.1,1.475L6.9,1.475C7.037,1.475 7.15,1.588 7.15,1.725C7.15,1.862 7.037,1.975 6.9,1.975L6.25,1.975L6.25,2.634C6.994,2.689 7.671,2.984 8.203,3.443L8.684,2.963L8.298,2.577C8.253,2.53 8.228,2.468 8.228,2.403C8.228,2.266 8.341,2.153 8.478,2.153C8.543,2.153 8.605,2.178 8.652,2.223L9.777,3.348C9.822,3.395 9.847,3.457 9.847,3.522C9.847,3.659 9.734,3.772 9.597,3.772C9.532,3.772 9.47,3.747 9.423,3.702L9.038,3.316L8.557,3.797C9.029,4.344 9.313,5.029 9.366,5.75L10.025,5.75L10.025,5.1C10.025,4.963 10.138,4.85 10.275,4.85C10.412,4.85 10.525,4.963 10.525,5.1L10.525,6.9C10.525,7.037 10.412,7.15 10.275,7.15C10.138,7.15 10.025,7.037 10.025,6.9L10.025,6.25L9.366,6.25C9.313,6.971 9.029,7.656 8.557,8.203L9.038,8.684L9.423,8.298C9.47,8.253 9.532,8.228 9.597,8.228C9.734,8.228 9.847,8.341 9.847,8.478C9.847,8.543 9.822,8.605 9.777,8.652L8.652,9.777C8.605,9.822 8.543,9.847 8.478,9.847C8.341,9.847 8.228,9.734 8.228,9.597C8.228,9.532 8.253,9.47 8.298,9.423L8.684,9.038L8.203,8.557C7.656,9.029 6.971,9.313 6.25,9.366L6.25,10.025L6.9,10.025C7.037,10.025 7.15,10.138 7.15,10.275C7.15,10.412 7.037,10.525 6.9,10.525L5.1,10.525C4.963,10.525 4.85,10.412 4.85,10.275C4.85,10.138 4.963,10.025 5.1,10.025L5.75,10.025L5.75,9.366C5.029,9.313 4.344,9.029 3.797,8.557L3.316,9.038L3.702,9.423C3.747,9.47 3.772,9.532 3.772,9.597C3.772,9.734 3.659,9.847 3.522,9.847C3.457,9.847 3.395,9.822 3.348,9.777L2.223,8.652C2.174,8.605 2.147,8.54 2.147,8.472C2.147,8.335 2.26,8.222 2.397,8.222C2.465,8.222 2.53,8.249 2.577,8.298L2.963,8.684L3.443,8.203C2.97,7.656 2.687,6.971 2.634,6.25L1.975,6.25L1.975,6.9C1.975,7.037 1.862,7.15 1.725,7.15C1.588,7.15 1.475,7.037 1.475,6.9L1.475,5.1C1.475,4.963 1.588,4.85 1.725,4.85C1.862,4.85 1.975,4.963 1.975,5.1L1.975,5.75L2.634,5.75C2.687,5.029 2.97,4.344 3.443,3.797L2.963,3.316L2.577,3.702C2.53,3.747 2.468,3.772 2.403,3.772C2.266,3.772 2.153,3.659 2.153,3.522C2.153,3.457 2.178,3.395 2.223,3.348L3.348,2.223C3.395,2.174 3.46,2.147 3.528,2.147C3.665,2.147 3.778,2.26 3.778,2.397C3.778,2.465 3.751,2.53 3.702,2.577L3.316,2.963L3.797,3.443C4.344,2.97 5.029,2.687 5.75,2.634L5.75,1.975L5.1,1.975C4.963,1.975 4.85,1.862 4.85,1.725" style="fill:rgb(87,157,79);"/>
                        <clipPath id="_clip15">
                            <path d="M4.85,1.725C4.85,1.588 4.963,1.475 5.1,1.475L6.9,1.475C7.037,1.475 7.15,1.588 7.15,1.725C7.15,1.862 7.037,1.975 6.9,1.975L6.25,1.975L6.25,2.634C6.994,2.689 7.671,2.984 8.203,3.443L8.684,2.963L8.298,2.577C8.253,2.53 8.228,2.468 8.228,2.403C8.228,2.266 8.341,2.153 8.478,2.153C8.543,2.153 8.605,2.178 8.652,2.223L9.777,3.348C9.822,3.395 9.847,3.457 9.847,3.522C9.847,3.659 9.734,3.772 9.597,3.772C9.532,3.772 9.47,3.747 9.423,3.702L9.038,3.316L8.557,3.797C9.029,4.344 9.313,5.029 9.366,5.75L10.025,5.75L10.025,5.1C10.025,4.963 10.138,4.85 10.275,4.85C10.412,4.85 10.525,4.963 10.525,5.1L10.525,6.9C10.525,7.037 10.412,7.15 10.275,7.15C10.138,7.15 10.025,7.037 10.025,6.9L10.025,6.25L9.366,6.25C9.313,6.971 9.029,7.656 8.557,8.203L9.038,8.684L9.423,8.298C9.47,8.253 9.532,8.228 9.597,8.228C9.734,8.228 9.847,8.341 9.847,8.478C9.847,8.543 9.822,8.605 9.777,8.652L8.652,9.777C8.605,9.822 8.543,9.847 8.478,9.847C8.341,9.847 8.228,9.734 8.228,9.597C8.228,9.532 8.253,9.47 8.298,9.423L8.684,9.038L8.203,8.557C7.656,9.029 6.971,9.313 6.25,9.366L6.25,10.025L6.9,10.025C7.037,10.025 7.15,10.138 7.15,10.275C7.15,10.412 7.037,10.525 6.9,10.525L5.1,10.525C4.963,10.525 4.85,10.412 4.85,10.275C4.85,10.138 4.963,10.025 5.1,10.025L5.75,10.025L5.75,9.366C5.029,9.313 4.344,9.029 3.797,8.557L3.316,9.038L3.702,9.423C3.747,9.47 3.772,9.532 3.772,9.597C3.772,9.734 3.659,9.847 3.522,9.847C3.457,9.847 3.395,9.822 3.348,9.777L2.223,8.652C2.174,8.605 2.147,8.54 2.147,8.472C2.147,8.335 2.26,8.222 2.397,8.222C2.465,8.222 2.53,8.249 2.577,8.298L2.963,8.684L3.443,8.203C2.97,7.656 2.687,6.971 2.634,6.25L1.975,6.25L1.975,6.9C1.975,7.037 1.862,7.15 1.725,7.15C1.588,7.15 1.475,7.037 1.475,6.9L1.475,5.1C1.475,4.963 1.588,4.85 1.725,4.85C1.862,4.85 1.975,4.963 1.975,5.1L1.975,5.75L2.634,5.75C2.687,5.029 2.97,4.344 3.443,3.797L2.963,3.316L2.577,3.702C2.53,3.747 2.468,3.772 2.403,3.772C2.266,3.772 2.153,3.659 2.153,3.522C2.153,3.457 2.178,3.395 2.223,3.348L3.348,2.223C3.395,2.174 3.46,2.147 3.528,2.147C3.665,2.147 3.778,2.26 3.778,2.397C3.778,2.465 3.751,2.53 3.702,2.577L3.316,2.963L3.797,3.443C4.344,2.97 5.029,2.687 5.75,2.634L5.75,1.975L5.1,1.975C4.963,1.975 4.85,1.862 4.85,1.725"/>
                        </clipPath>
                        <g clip-path="url(#_clip15)">
                            <g transform="matrix(0.00953872,0,0,0.00953872,-21.5223,0.849091)">
                                <path d="M2933.64,665.874C2947.35,664.583 2960.95,669.381 2971.11,679.094C2981.27,688.807 2987.06,702.54 2987.06,716.936C2987.28,718.382 2987.28,719.797 2987.28,721.173C2987.28,734.208 2978.95,745.636 2966.93,749.09C2919.43,762.137 2872.19,763.793 2825.18,754.269C2800.56,749.398 2782.73,726.896 2782.73,700.686C2782.61,700.683 2782.61,700.68 2782.61,700.677C2782.61,690.205 2786.87,680.227 2794.32,673.229C2801.77,666.232 2811.71,662.874 2821.67,663.995C2860,668.225 2897.33,668.844 2933.64,665.874Z" style="fill:white;"/>
                                <clipPath id="_clip16">
                                    <path d="M2933.64,665.874C2947.35,664.583 2960.95,669.381 2971.11,679.094C2981.27,688.807 2987.06,702.54 2987.06,716.936C2987.28,718.382 2987.28,719.797 2987.28,721.173C2987.28,734.208 2978.95,745.636 2966.93,749.09C2919.43,762.137 2872.19,763.793 2825.18,754.269C2800.56,749.398 2782.73,726.896 2782.73,700.686C2782.61,700.683 2782.61,700.68 2782.61,700.677C2782.61,690.205 2786.87,680.227 2794.32,673.229C2801.77,666.232 2811.71,662.874 2821.67,663.995C2860,668.225 2897.33,668.844 2933.64,665.874Z"/>
                                </clipPath>
                                <g clip-path="url(#_clip16)">
                                    <path d="M2840.88,665.875L2840.88,760.327" style="fill:none;stroke:black;stroke-width:14.53px;"/>
                                    <path d="M2930.87,665.875L2930.87,760.327" style="fill:none;stroke:black;stroke-width:14.53px;"/>
                                </g>
                                <path d="M2933.64,665.874C2947.35,664.583 2960.95,669.381 2971.11,679.094C2981.27,688.807 2987.06,702.54 2987.06,716.936C2987.28,718.382 2987.28,719.797 2987.28,721.173C2987.28,734.208 2978.95,745.636 2966.93,749.09C2919.43,762.137 2872.19,763.793 2825.18,754.269C2800.56,749.398 2782.73,726.896 2782.73,700.686C2782.61,700.683 2782.61,700.68 2782.61,700.677C2782.61,690.205 2786.87,680.227 2794.32,673.229C2801.77,666.232 2811.71,662.874 2821.67,663.995C2860,668.225 2897.33,668.844 2933.64,665.874Z" style="fill:none;stroke:black;stroke-width:14.53px;"/>
                            </g>
                            <g>
                                <g transform="matrix(0.487956,0.00415536,-0.00415536,0.487956,2.95366,2.4444)">
                                    <path d="M5.844,7.357C5.844,8.28 5.06,9.244 4.203,8.903C4.059,8.845 2.481,8.28 2.481,7.357C2.481,6.565 3.04,5.894 3.782,5.719C3.904,5.69 5.673,6.638 5.794,6.95C5.842,7.075 5.844,7.217 5.844,7.357" style="fill:white;"/>
                                    <clipPath id="_clip17">
                                        <path d="M5.844,7.357C5.844,8.28 5.06,9.244 4.203,8.903C4.059,8.845 2.481,8.28 2.481,7.357C2.481,6.565 3.04,5.894 3.782,5.719C3.904,5.69 5.673,6.638 5.794,6.95C5.842,7.075 5.844,7.217 5.844,7.357"/>
                                    </clipPath>
                                    <g clip-path="url(#_clip17)">
                                        <path d="M4.506,8.299C5.017,8.299 5.437,7.879 5.437,7.368C5.437,6.857 5.017,6.437 4.506,6.437C3.995,6.437 3.574,6.857 3.574,7.368C3.574,7.879 3.995,8.299 4.506,8.299" style="fill:rgb(25,25,25);"/>
                                        <clipPath id="_clip18">
                                            <path d="M4.506,8.299C5.017,8.299 5.437,7.879 5.437,7.368C5.437,6.857 5.017,6.437 4.506,6.437C3.995,6.437 3.574,6.857 3.574,7.368C3.574,7.879 3.995,8.299 4.506,8.299"/>
                                        </clipPath>
                                        <g clip-path="url(#_clip18)">
                                            <g transform="matrix(1.28442,0,1.73472e-18,1.28968,-2.09173,-1.94568)">
                                                <ellipse cx="7.677" cy="7.025" rx="0.323" ry="0.308" style="fill:white;"/>
                                            </g>
                                            <g transform="matrix(1.28442,0,1.73472e-18,1.28968,-5.44277,-1.93963)">
                                                <ellipse cx="7.677" cy="7.025" rx="0.323" ry="0.308" style="fill:white;"/>
                                            </g>
                                        </g>
                                    </g>
                                </g>
                                <g transform="matrix(0.0103529,0.000103685,0.000902567,0.00983876,-24.2206,0.565794)">
                                    <path d="M2745.94,437.183L2854.53,506.631" style="fill:none;stroke:black;stroke-width:25.35px;"/>
                                </g>
                            </g>
                            <g>
                                <g transform="matrix(-0.487956,0.00415536,0.00415536,0.487956,9.14212,2.4444)">
                                    <path d="M5.844,7.357C5.844,8.28 5.06,9.244 4.203,8.903C4.059,8.845 2.481,8.28 2.481,7.357C2.481,6.565 3.04,5.894 3.782,5.719C3.904,5.69 5.673,6.638 5.794,6.95C5.842,7.075 5.844,7.217 5.844,7.357" style="fill:white;"/>
                                    <clipPath id="_clip19">
                                        <path d="M5.844,7.357C5.844,8.28 5.06,9.244 4.203,8.903C4.059,8.845 2.481,8.28 2.481,7.357C2.481,6.565 3.04,5.894 3.782,5.719C3.904,5.69 5.673,6.638 5.794,6.95C5.842,7.075 5.844,7.217 5.844,7.357"/>
                                    </clipPath>
                                    <g clip-path="url(#_clip19)">
                                        <path d="M4.506,8.299C5.017,8.299 5.437,7.879 5.437,7.368C5.437,6.857 5.017,6.437 4.506,6.437C3.995,6.437 3.574,6.857 3.574,7.368C3.574,7.879 3.995,8.299 4.506,8.299" style="fill:rgb(25,25,25);"/>
                                        <clipPath id="_clip20">
                                            <path d="M4.506,8.299C5.017,8.299 5.437,7.879 5.437,7.368C5.437,6.857 5.017,6.437 4.506,6.437C3.995,6.437 3.574,6.857 3.574,7.368C3.574,7.879 3.995,8.299 4.506,8.299"/>
                                        </clipPath>
                                        <g clip-path="url(#_clip20)">
                                            <g transform="matrix(1.28442,0,1.73472e-18,1.28968,-2.09173,-1.94568)">
                                                <ellipse cx="7.677" cy="7.025" rx="0.323" ry="0.308" style="fill:white;"/>
                                            </g>
                                            <g transform="matrix(1.28442,0,1.73472e-18,1.28968,-5.44277,-1.93963)">
                                                <ellipse cx="7.677" cy="7.025" rx="0.323" ry="0.308" style="fill:white;"/>
                                            </g>
                                        </g>
                                    </g>
                                </g>
                                <g transform="matrix(-0.0103529,0.000103685,-0.000902567,0.00983876,36.3163,0.565794)">
                                    <path d="M2745.94,437.183L2854.53,506.631" style="fill:none;stroke:black;stroke-width:25.35px;"/>
                                </g>
                            </g>
                        </g>
                    </g>
                    <g transform="matrix(15.7308,0,0,15.0433,909.421,804.139)">
                        <path d="M4.85,1.725C4.85,1.588 4.963,1.475 5.1,1.475L6.9,1.475C7.037,1.475 7.15,1.588 7.15,1.725C7.15,1.862 7.037,1.975 6.9,1.975L6.25,1.975L6.25,2.634C6.994,2.689 7.671,2.984 8.203,3.443L8.684,2.963L8.298,2.577C8.253,2.53 8.228,2.468 8.228,2.403C8.228,2.266 8.341,2.153 8.478,2.153C8.543,2.153 8.605,2.178 8.652,2.223L9.777,3.348C9.822,3.395 9.847,3.457 9.847,3.522C9.847,3.659 9.734,3.772 9.597,3.772C9.532,3.772 9.47,3.747 9.423,3.702L9.038,3.316L8.557,3.797C9.029,4.344 9.313,5.029 9.366,5.75L10.025,5.75L10.025,5.1C10.025,4.963 10.138,4.85 10.275,4.85C10.412,4.85 10.525,4.963 10.525,5.1L10.525,6.9C10.525,7.037 10.412,7.15 10.275,7.15C10.138,7.15 10.025,7.037 10.025,6.9L10.025,6.25L9.366,6.25C9.313,6.971 9.029,7.656 8.557,8.203L9.038,8.684L9.423,8.298C9.47,8.253 9.532,8.228 9.597,8.228C9.734,8.228 9.847,8.341 9.847,8.478C9.847,8.543 9.822,8.605 9.777,8.652L8.652,9.777C8.605,9.822 8.543,9.847 8.478,9.847C8.341,9.847 8.228,9.734 8.228,9.597C8.228,9.532 8.253,9.47 8.298,9.423L8.684,9.038L8.203,8.557C7.656,9.029 6.971,9.313 6.25,9.366L6.25,10.025L6.9,10.025C7.037,10.025 7.15,10.138 7.15,10.275C7.15,10.412 7.037,10.525 6.9,10.525L5.1,10.525C4.963,10.525 4.85,10.412 4.85,10.275C4.85,10.138 4.963,10.025 5.1,10.025L5.75,10.025L5.75,9.366C5.029,9.313 4.344,9.029 3.797,8.557L3.316,9.038L3.702,9.423C3.747,9.47 3.772,9.532 3.772,9.597C3.772,9.734 3.659,9.847 3.522,9.847C3.457,9.847 3.395,9.822 3.348,9.777L2.223,8.652C2.174,8.605 2.147,8.54 2.147,8.472C2.147,8.335 2.26,8.222 2.397,8.222C2.465,8.222 2.53,8.249 2.577,8.298L2.963,8.684L3.443,8.203C2.97,7.656 2.687,6.971 2.634,6.25L1.975,6.25L1.975,6.9C1.975,7.037 1.862,7.15 1.725,7.15C1.588,7.15 1.475,7.037 1.475,6.9L1.475,5.1C1.475,4.963 1.588,4.85 1.725,4.85C1.862,4.85 1.975,4.963 1.975,5.1L1.975,5.75L2.634,5.75C2.687,5.029 2.97,4.344 3.443,3.797L2.963,3.316L2.577,3.702C2.53,3.747 2.468,3.772 2.403,3.772C2.266,3.772 2.153,3.659 2.153,3.522C2.153,3.457 2.178,3.395 2.223,3.348L3.348,2.223C3.395,2.174 3.46,2.147 3.528,2.147C3.665,2.147 3.778,2.26 3.778,2.397C3.778,2.465 3.751,2.53 3.702,2.577L3.316,2.963L3.797,3.443C4.344,2.97 5.029,2.687 5.75,2.634L5.75,1.975L5.1,1.975C4.963,1.975 4.85,1.862 4.85,1.725" style="fill:rgb(87,157,79);"/>
                        <clipPath id="_clip21">
                            <path d="M4.85,1.725C4.85,1.588 4.963,1.475 5.1,1.475L6.9,1.475C7.037,1.475 7.15,1.588 7.15,1.725C7.15,1.862 7.037,1.975 6.9,1.975L6.25,1.975L6.25,2.634C6.994,2.689 7.671,2.984 8.203,3.443L8.684,2.963L8.298,2.577C8.253,2.53 8.228,2.468 8.228,2.403C8.228,2.266 8.341,2.153 8.478,2.153C8.543,2.153 8.605,2.178 8.652,2.223L9.777,3.348C9.822,3.395 9.847,3.457 9.847,3.522C9.847,3.659 9.734,3.772 9.597,3.772C9.532,3.772 9.47,3.747 9.423,3.702L9.038,3.316L8.557,3.797C9.029,4.344 9.313,5.029 9.366,5.75L10.025,5.75L10.025,5.1C10.025,4.963 10.138,4.85 10.275,4.85C10.412,4.85 10.525,4.963 10.525,5.1L10.525,6.9C10.525,7.037 10.412,7.15 10.275,7.15C10.138,7.15 10.025,7.037 10.025,6.9L10.025,6.25L9.366,6.25C9.313,6.971 9.029,7.656 8.557,8.203L9.038,8.684L9.423,8.298C9.47,8.253 9.532,8.228 9.597,8.228C9.734,8.228 9.847,8.341 9.847,8.478C9.847,8.543 9.822,8.605 9.777,8.652L8.652,9.777C8.605,9.822 8.543,9.847 8.478,9.847C8.341,9.847 8.228,9.734 8.228,9.597C8.228,9.532 8.253,9.47 8.298,9.423L8.684,9.038L8.203,8.557C7.656,9.029 6.971,9.313 6.25,9.366L6.25,10.025L6.9,10.025C7.037,10.025 7.15,10.138 7.15,10.275C7.15,10.412 7.037,10.525 6.9,10.525L5.1,10.525C4.963,10.525 4.85,10.412 4.85,10.275C4.85,10.138 4.963,10.025 5.1,10.025L5.75,10.025L5.75,9.366C5.029,9.313 4.344,9.029 3.797,8.557L3.316,9.038L3.702,9.423C3.747,9.47 3.772,9.532 3.772,9.597C3.772,9.734 3.659,9.847 3.522,9.847C3.457,9.847 3.395,9.822 3.348,9.777L2.223,8.652C2.174,8.605 2.147,8.54 2.147,8.472C2.147,8.335 2.26,8.222 2.397,8.222C2.465,8.222 2.53,8.249 2.577,8.298L2.963,8.684L3.443,8.203C2.97,7.656 2.687,6.971 2.634,6.25L1.975,6.25L1.975,6.9C1.975,7.037 1.862,7.15 1.725,7.15C1.588,7.15 1.475,7.037 1.475,6.9L1.475,5.1C1.475,4.963 1.588,4.85 1.725,4.85C1.862,4.85 1.975,4.963 1.975,5.1L1.975,5.75L2.634,5.75C2.687,5.029 2.97,4.344 3.443,3.797L2.963,3.316L2.577,3.702C2.53,3.747 2.468,3.772 2.403,3.772C2.266,3.772 2.153,3.659 2.153,3.522C2.153,3.457 2.178,3.395 2.223,3.348L3.348,2.223C3.395,2.174 3.46,2.147 3.528,2.147C3.665,2.147 3.778,2.26 3.778,2.397C3.778,2.465 3.751,2.53 3.702,2.577L3.316,2.963L3.797,3.443C4.344,2.97 5.029,2.687 5.75,2.634L5.75,1.975L5.1,1.975C4.963,1.975 4.85,1.862 4.85,1.725"/>
                        </clipPath>
                        <g clip-path="url(#_clip21)">
                            <g transform="matrix(0.00953872,0,0,0.00953872,-21.5223,0.849091)">
                                <path d="M2936.43,665.638C2949.41,664.348 2962.3,668.84 2971.94,678.01C2981.59,687.18 2987.08,700.176 2987.08,713.805C2987.28,714.594 2987.28,715.375 2987.28,716.149C2987.28,732.341 2976.81,746.488 2961.83,750.556C2916.1,762.222 2870.65,763.446 2825.41,754.314C2800.66,749.439 2782.73,726.83 2782.73,700.491C2782.61,700.486 2782.61,700.48 2782.61,700.475C2782.61,690.053 2786.85,680.123 2794.27,673.16C2801.68,666.197 2811.58,662.858 2821.49,663.975C2860.87,668.33 2899.19,668.879 2936.43,665.638Z" style="fill:white;"/>
                                <clipPath id="_clip22">
                                    <path d="M2936.43,665.638C2949.41,664.348 2962.3,668.84 2971.94,678.01C2981.59,687.18 2987.08,700.176 2987.08,713.805C2987.28,714.594 2987.28,715.375 2987.28,716.149C2987.28,732.341 2976.81,746.488 2961.83,750.556C2916.1,762.222 2870.65,763.446 2825.41,754.314C2800.66,749.439 2782.73,726.83 2782.73,700.491C2782.61,700.486 2782.61,700.48 2782.61,700.475C2782.61,690.053 2786.85,680.123 2794.27,673.16C2801.68,666.197 2811.58,662.858 2821.49,663.975C2860.87,668.33 2899.19,668.879 2936.43,665.638Z"/>
                                </clipPath>
                                <g clip-path="url(#_clip22)">
                                    <path d="M2840.88,665.875L2840.88,760.327" style="fill:none;stroke:black;stroke-width:14.53px;"/>
                                    <path d="M2930.87,665.875L2930.87,760.327" style="fill:none;stroke:black;stroke-width:14.53px;"/>
                                </g>
                                <path d="M2936.43,665.638C2949.41,664.348 2962.3,668.84 2971.94,678.01C2981.59,687.18 2987.08,700.176 2987.08,713.805C2987.28,714.594 2987.28,715.375 2987.28,716.149C2987.28,732.341 2976.81,746.488 2961.83,750.556C2916.1,762.222 2870.65,763.446 2825.41,754.314C2800.66,749.439 2782.73,726.83 2782.73,700.491C2782.61,700.486 2782.61,700.48 2782.61,700.475C2782.61,690.053 2786.85,680.123 2794.27,673.16C2801.68,666.197 2811.58,662.858 2821.49,663.975C2860.87,668.33 2899.19,668.879 2936.43,665.638Z" style="fill:none;stroke:black;stroke-width:14.53px;"/>
                            </g>
                            <g>
                                <g transform="matrix(0.487956,0.00415536,-0.00415536,0.487956,2.95366,2.4444)">
                                    <path d="M5.844,7.357C5.844,8.28 5.06,9.244 4.203,8.903C4.059,8.845 2.481,8.28 2.481,7.357C2.481,6.565 3.04,5.894 3.782,5.719C3.904,5.69 5.673,6.638 5.794,6.95C5.842,7.075 5.844,7.217 5.844,7.357" style="fill:white;"/>
                                    <clipPath id="_clip23">
                                        <path d="M5.844,7.357C5.844,8.28 5.06,9.244 4.203,8.903C4.059,8.845 2.481,8.28 2.481,7.357C2.481,6.565 3.04,5.894 3.782,5.719C3.904,5.69 5.673,6.638 5.794,6.95C5.842,7.075 5.844,7.217 5.844,7.357"/>
                                    </clipPath>
                                    <g clip-path="url(#_clip23)">
                                        <path d="M4.506,8.299C5.017,8.299 5.437,7.879 5.437,7.368C5.437,6.857 5.017,6.437 4.506,6.437C3.995,6.437 3.574,6.857 3.574,7.368C3.574,7.879 3.995,8.299 4.506,8.299" style="fill:rgb(25,25,25);"/>
                                        <clipPath id="_clip24">
                                            <path d="M4.506,8.299C5.017,8.299 5.437,7.879 5.437,7.368C5.437,6.857 5.017,6.437 4.506,6.437C3.995,6.437 3.574,6.857 3.574,7.368C3.574,7.879 3.995,8.299 4.506,8.299"/>
                                        </clipPath>
                                        <g clip-path="url(#_clip24)">
                                            <g transform="matrix(1.28442,0,1.73472e-18,1.28968,-2.09173,-1.94568)">
                                                <ellipse cx="7.677" cy="7.025" rx="0.323" ry="0.308" style="fill:white;"/>
                                            </g>
                                            <g transform="matrix(1.28442,0,1.73472e-18,1.28968,-5.44277,-1.93963)">
                                                <ellipse cx="7.677" cy="7.025" rx="0.323" ry="0.308" style="fill:white;"/>
                                            </g>
                                        </g>
                                    </g>
                                </g>
                                <g transform="matrix(0.0103529,0.000103685,0.000902567,0.00983876,-24.2206,0.565794)">
                                    <path d="M2745.94,437.183L2854.53,506.631" style="fill:none;stroke:black;stroke-width:25.35px;"/>
                                </g>
                            </g>
                            <g>
                                <g transform="matrix(-0.487956,0.00415536,0.00415536,0.487956,9.14212,2.4444)">
                                    <path d="M5.844,7.357C5.844,8.28 5.06,9.244 4.203,8.903C4.059,8.845 2.481,8.28 2.481,7.357C2.481,6.565 3.04,5.894 3.782,5.719C3.904,5.69 5.673,6.638 5.794,6.95C5.842,7.075 5.844,7.217 5.844,7.357" style="fill:white;"/>
                                    <clipPath id="_clip25">
                                        <path d="M5.844,7.357C5.844,8.28 5.06,9.244 4.203,8.903C4.059,8.845 2.481,8.28 2.481,7.357C2.481,6.565 3.04,5.894 3.782,5.719C3.904,5.69 5.673,6.638 5.794,6.95C5.842,7.075 5.844,7.217 5.844,7.357"/>
                                    </clipPath>
                                    <g clip-path="url(#_clip25)">
                                        <path d="M4.506,8.299C5.017,8.299 5.437,7.879 5.437,7.368C5.437,6.857 5.017,6.437 4.506,6.437C3.995,6.437 3.574,6.857 3.574,7.368C3.574,7.879 3.995,8.299 4.506,8.299" style="fill:rgb(25,25,25);"/>
                                        <clipPath id="_clip26">
                                            <path d="M4.506,8.299C5.017,8.299 5.437,7.879 5.437,7.368C5.437,6.857 5.017,6.437 4.506,6.437C3.995,6.437 3.574,6.857 3.574,7.368C3.574,7.879 3.995,8.299 4.506,8.299"/>
                                        </clipPath>
                                        <g clip-path="url(#_clip26)">
                                            <g transform="matrix(1.28442,0,1.73472e-18,1.28968,-2.09173,-1.94568)">
                                                <ellipse cx="7.677" cy="7.025" rx="0.323" ry="0.308" style="fill:white;"/>
                                            </g>
                                            <g transform="matrix(1.28442,0,1.73472e-18,1.28968,-5.44277,-1.93963)">
                                                <ellipse cx="7.677" cy="7.025" rx="0.323" ry="0.308" style="fill:white;"/>
                                            </g>
                                        </g>
                                    </g>
                                </g>
                                <g transform="matrix(-0.0103529,0.000103685,-0.000902567,0.00983876,36.3163,0.565794)">
                                    <path d="M2745.94,437.183L2854.53,506.631" style="fill:none;stroke:black;stroke-width:25.35px;"/>
                                </g>
                            </g>
                        </g>
                    </g>
                    <g transform="matrix(13.9599,0,0,12.4332,-9.03816,533.752)">
                        <path d="M4.85,1.725C4.85,1.588 4.963,1.475 5.1,1.475L6.9,1.475C7.037,1.475 7.15,1.588 7.15,1.725C7.15,1.862 7.037,1.975 6.9,1.975L6.25,1.975L6.25,2.634C6.994,2.689 7.671,2.984 8.203,3.443L8.684,2.963L8.298,2.577C8.253,2.53 8.228,2.468 8.228,2.403C8.228,2.266 8.341,2.153 8.478,2.153C8.543,2.153 8.605,2.178 8.652,2.223L9.777,3.348C9.822,3.395 9.847,3.457 9.847,3.522C9.847,3.659 9.734,3.772 9.597,3.772C9.532,3.772 9.47,3.747 9.423,3.702L9.038,3.316L8.557,3.797C9.029,4.344 9.313,5.029 9.366,5.75L10.025,5.75L10.025,5.1C10.025,4.963 10.138,4.85 10.275,4.85C10.412,4.85 10.525,4.963 10.525,5.1L10.525,6.9C10.525,7.037 10.412,7.15 10.275,7.15C10.138,7.15 10.025,7.037 10.025,6.9L10.025,6.25L9.366,6.25C9.313,6.971 9.029,7.656 8.557,8.203L9.038,8.684L9.423,8.298C9.47,8.253 9.532,8.228 9.597,8.228C9.734,8.228 9.847,8.341 9.847,8.478C9.847,8.543 9.822,8.605 9.777,8.652L8.652,9.777C8.605,9.822 8.543,9.847 8.478,9.847C8.341,9.847 8.228,9.734 8.228,9.597C8.228,9.532 8.253,9.47 8.298,9.423L8.684,9.038L8.203,8.557C7.656,9.029 6.971,9.313 6.25,9.366L6.25,10.025L6.9,10.025C7.037,10.025 7.15,10.138 7.15,10.275C7.15,10.412 7.037,10.525 6.9,10.525L5.1,10.525C4.963,10.525 4.85,10.412 4.85,10.275C4.85,10.138 4.963,10.025 5.1,10.025L5.75,10.025L5.75,9.366C5.029,9.313 4.344,9.029 3.797,8.557L3.316,9.038L3.702,9.423C3.747,9.47 3.772,9.532 3.772,9.597C3.772,9.734 3.659,9.847 3.522,9.847C3.457,9.847 3.395,9.822 3.348,9.777L2.223,8.652C2.174,8.605 2.147,8.54 2.147,8.472C2.147,8.335 2.26,8.222 2.397,8.222C2.465,8.222 2.53,8.249 2.577,8.298L2.963,8.684L3.443,8.203C2.97,7.656 2.687,6.971 2.634,6.25L1.975,6.25L1.975,6.9C1.975,7.037 1.862,7.15 1.725,7.15C1.588,7.15 1.475,7.037 1.475,6.9L1.475,5.1C1.475,4.963 1.588,4.85 1.725,4.85C1.862,4.85 1.975,4.963 1.975,5.1L1.975,5.75L2.634,5.75C2.687,5.029 2.97,4.344 3.443,3.797L2.963,3.316L2.577,3.702C2.53,3.747 2.468,3.772 2.403,3.772C2.266,3.772 2.153,3.659 2.153,3.522C2.153,3.457 2.178,3.395 2.223,3.348L3.348,2.223C3.395,2.174 3.46,2.147 3.528,2.147C3.665,2.147 3.778,2.26 3.778,2.397C3.778,2.465 3.751,2.53 3.702,2.577L3.316,2.963L3.797,3.443C4.344,2.97 5.029,2.687 5.75,2.634L5.75,1.975L5.1,1.975C4.963,1.975 4.85,1.862 4.85,1.725" style="fill:rgb(87,157,79);"/>
                        <clipPath id="_clip27">
                            <path d="M4.85,1.725C4.85,1.588 4.963,1.475 5.1,1.475L6.9,1.475C7.037,1.475 7.15,1.588 7.15,1.725C7.15,1.862 7.037,1.975 6.9,1.975L6.25,1.975L6.25,2.634C6.994,2.689 7.671,2.984 8.203,3.443L8.684,2.963L8.298,2.577C8.253,2.53 8.228,2.468 8.228,2.403C8.228,2.266 8.341,2.153 8.478,2.153C8.543,2.153 8.605,2.178 8.652,2.223L9.777,3.348C9.822,3.395 9.847,3.457 9.847,3.522C9.847,3.659 9.734,3.772 9.597,3.772C9.532,3.772 9.47,3.747 9.423,3.702L9.038,3.316L8.557,3.797C9.029,4.344 9.313,5.029 9.366,5.75L10.025,5.75L10.025,5.1C10.025,4.963 10.138,4.85 10.275,4.85C10.412,4.85 10.525,4.963 10.525,5.1L10.525,6.9C10.525,7.037 10.412,7.15 10.275,7.15C10.138,7.15 10.025,7.037 10.025,6.9L10.025,6.25L9.366,6.25C9.313,6.971 9.029,7.656 8.557,8.203L9.038,8.684L9.423,8.298C9.47,8.253 9.532,8.228 9.597,8.228C9.734,8.228 9.847,8.341 9.847,8.478C9.847,8.543 9.822,8.605 9.777,8.652L8.652,9.777C8.605,9.822 8.543,9.847 8.478,9.847C8.341,9.847 8.228,9.734 8.228,9.597C8.228,9.532 8.253,9.47 8.298,9.423L8.684,9.038L8.203,8.557C7.656,9.029 6.971,9.313 6.25,9.366L6.25,10.025L6.9,10.025C7.037,10.025 7.15,10.138 7.15,10.275C7.15,10.412 7.037,10.525 6.9,10.525L5.1,10.525C4.963,10.525 4.85,10.412 4.85,10.275C4.85,10.138 4.963,10.025 5.1,10.025L5.75,10.025L5.75,9.366C5.029,9.313 4.344,9.029 3.797,8.557L3.316,9.038L3.702,9.423C3.747,9.47 3.772,9.532 3.772,9.597C3.772,9.734 3.659,9.847 3.522,9.847C3.457,9.847 3.395,9.822 3.348,9.777L2.223,8.652C2.174,8.605 2.147,8.54 2.147,8.472C2.147,8.335 2.26,8.222 2.397,8.222C2.465,8.222 2.53,8.249 2.577,8.298L2.963,8.684L3.443,8.203C2.97,7.656 2.687,6.971 2.634,6.25L1.975,6.25L1.975,6.9C1.975,7.037 1.862,7.15 1.725,7.15C1.588,7.15 1.475,7.037 1.475,6.9L1.475,5.1C1.475,4.963 1.588,4.85 1.725,4.85C1.862,4.85 1.975,4.963 1.975,5.1L1.975,5.75L2.634,5.75C2.687,5.029 2.97,4.344 3.443,3.797L2.963,3.316L2.577,3.702C2.53,3.747 2.468,3.772 2.403,3.772C2.266,3.772 2.153,3.659 2.153,3.522C2.153,3.457 2.178,3.395 2.223,3.348L3.348,2.223C3.395,2.174 3.46,2.147 3.528,2.147C3.665,2.147 3.778,2.26 3.778,2.397C3.778,2.465 3.751,2.53 3.702,2.577L3.316,2.963L3.797,3.443C4.344,2.97 5.029,2.687 5.75,2.634L5.75,1.975L5.1,1.975C4.963,1.975 4.85,1.862 4.85,1.725"/>
                        </clipPath>
                        <g clip-path="url(#_clip27)">
                            <g transform="matrix(0.00953872,0,0,0.00953872,-21.5223,0.849091)">
                                <path d="M2941.63,665.161C2953.28,663.889 2964.86,668.2 2973.53,677.031C2982.2,685.863 2987.14,698.393 2987.14,711.535C2987.28,714.099 2987.28,716.605 2987.28,719.011C2987.28,733.276 2978.66,745.725 2966.35,749.246C2918.05,762.426 2870.01,763.817 2822.22,753.653C2799.32,748.867 2782.71,726.43 2782.71,700.277C2782.61,700.276 2782.61,700.276 2782.61,700.276C2782.62,689.858 2786.55,679.929 2793.44,672.955C2800.34,665.981 2809.54,662.617 2818.77,663.697C2860.94,668.508 2901.91,669.005 2941.63,665.161Z" style="fill:white;"/>
                                <clipPath id="_clip28">
                                    <path d="M2941.63,665.161C2953.28,663.889 2964.86,668.2 2973.53,677.031C2982.2,685.863 2987.14,698.393 2987.14,711.535C2987.28,714.099 2987.28,716.605 2987.28,719.011C2987.28,733.276 2978.66,745.725 2966.35,749.246C2918.05,762.426 2870.01,763.817 2822.22,753.653C2799.32,748.867 2782.71,726.43 2782.71,700.277C2782.61,700.276 2782.61,700.276 2782.61,700.276C2782.62,689.858 2786.55,679.929 2793.44,672.955C2800.34,665.981 2809.54,662.617 2818.77,663.697C2860.94,668.508 2901.91,669.005 2941.63,665.161Z"/>
                                </clipPath>
                                <g clip-path="url(#_clip28)">
                                    <path d="M2840.88,665.875L2840.88,760.327" style="fill:none;stroke:black;stroke-width:14.53px;"/>
                                    <path d="M2930.87,665.875L2930.87,760.327" style="fill:none;stroke:black;stroke-width:14.53px;"/>
                                </g>
                                <path d="M2941.63,665.161C2953.28,663.889 2964.86,668.2 2973.53,677.031C2982.2,685.863 2987.14,698.393 2987.14,711.535C2987.28,714.099 2987.28,716.605 2987.28,719.011C2987.28,733.276 2978.66,745.725 2966.35,749.246C2918.05,762.426 2870.01,763.817 2822.22,753.653C2799.32,748.867 2782.71,726.43 2782.71,700.277C2782.61,700.276 2782.61,700.276 2782.61,700.276C2782.62,689.858 2786.55,679.929 2793.44,672.955C2800.34,665.981 2809.54,662.617 2818.77,663.697C2860.94,668.508 2901.91,669.005 2941.63,665.161Z" style="fill:none;stroke:black;stroke-width:14.53px;"/>
                            </g>
                            <g>
                                <g transform="matrix(0.487956,0.00415536,-0.00415536,0.487956,2.95366,2.4444)">
                                    <path d="M5.844,7.357C5.844,8.28 5.06,9.244 4.203,8.903C4.059,8.845 2.481,8.28 2.481,7.357C2.481,6.565 3.04,5.894 3.782,5.719C3.904,5.69 5.673,6.638 5.794,6.95C5.842,7.075 5.844,7.217 5.844,7.357" style="fill:white;"/>
                                    <clipPath id="_clip29">
                                        <path d="M5.844,7.357C5.844,8.28 5.06,9.244 4.203,8.903C4.059,8.845 2.481,8.28 2.481,7.357C2.481,6.565 3.04,5.894 3.782,5.719C3.904,5.69 5.673,6.638 5.794,6.95C5.842,7.075 5.844,7.217 5.844,7.357"/>
                                    </clipPath>
                                    <g clip-path="url(#_clip29)">
                                        <path d="M4.506,8.299C5.017,8.299 5.437,7.879 5.437,7.368C5.437,6.857 5.017,6.437 4.506,6.437C3.995,6.437 3.574,6.857 3.574,7.368C3.574,7.879 3.995,8.299 4.506,8.299" style="fill:rgb(25,25,25);"/>
                                        <clipPath id="_clip30">
                                            <path d="M4.506,8.299C5.017,8.299 5.437,7.879 5.437,7.368C5.437,6.857 5.017,6.437 4.506,6.437C3.995,6.437 3.574,6.857 3.574,7.368C3.574,7.879 3.995,8.299 4.506,8.299"/>
                                        </clipPath>
                                        <g clip-path="url(#_clip30)">
                                            <g transform="matrix(1.28442,0,1.73472e-18,1.28968,-2.09173,-1.94568)">
                                                <ellipse cx="7.677" cy="7.025" rx="0.323" ry="0.308" style="fill:white;"/>
                                            </g>
                                            <g transform="matrix(1.28442,0,1.73472e-18,1.28968,-5.44277,-1.93963)">
                                                <ellipse cx="7.677" cy="7.025" rx="0.323" ry="0.308" style="fill:white;"/>
                                            </g>
                                        </g>
                                    </g>
                                </g>
                                <g transform="matrix(0.0103529,0.000103685,0.000902567,0.00983876,-24.2206,0.565794)">
                                    <path d="M2745.94,437.183L2854.53,506.631" style="fill:none;stroke:black;stroke-width:25.35px;"/>
                                </g>
                            </g>
                            <g>
                                <g transform="matrix(-0.487956,0.00415536,0.00415536,0.487956,9.14212,2.4444)">
                                    <path d="M5.844,7.357C5.844,8.28 5.06,9.244 4.203,8.903C4.059,8.845 2.481,8.28 2.481,7.357C2.481,6.565 3.04,5.894 3.782,5.719C3.904,5.69 5.673,6.638 5.794,6.95C5.842,7.075 5.844,7.217 5.844,7.357" style="fill:white;"/>
                                    <clipPath id="_clip31">
                                        <path d="M5.844,7.357C5.844,8.28 5.06,9.244 4.203,8.903C4.059,8.845 2.481,8.28 2.481,7.357C2.481,6.565 3.04,5.894 3.782,5.719C3.904,5.69 5.673,6.638 5.794,6.95C5.842,7.075 5.844,7.217 5.844,7.357"/>
                                    </clipPath>
                                    <g clip-path="url(#_clip31)">
                                        <path d="M4.506,8.299C5.017,8.299 5.437,7.879 5.437,7.368C5.437,6.857 5.017,6.437 4.506,6.437C3.995,6.437 3.574,6.857 3.574,7.368C3.574,7.879 3.995,8.299 4.506,8.299" style="fill:rgb(25,25,25);"/>
                                        <clipPath id="_clip32">
                                            <path d="M4.506,8.299C5.017,8.299 5.437,7.879 5.437,7.368C5.437,6.857 5.017,6.437 4.506,6.437C3.995,6.437 3.574,6.857 3.574,7.368C3.574,7.879 3.995,8.299 4.506,8.299"/>
                                        </clipPath>
                                        <g clip-path="url(#_clip32)">
                                            <g transform="matrix(1.28442,0,1.73472e-18,1.28968,-2.09173,-1.94568)">
                                                <ellipse cx="7.677" cy="7.025" rx="0.323" ry="0.308" style="fill:white;"/>
                                            </g>
                                            <g transform="matrix(1.28442,0,1.73472e-18,1.28968,-5.44277,-1.93963)">
                                                <ellipse cx="7.677" cy="7.025" rx="0.323" ry="0.308" style="fill:white;"/>
                                            </g>
                                        </g>
                                    </g>
                                </g>
                                <g transform="matrix(-0.0103529,0.000103685,-0.000902567,0.00983876,36.3163,0.565794)">
                                    <path d="M2745.94,437.183L2854.53,506.631" style="fill:none;stroke:black;stroke-width:25.35px;"/>
                                </g>
                            </g>
                        </g>
                    </g>
                    <g transform="matrix(14.2346,0,0,12.6779,914.372,537.838)">
                        <path d="M4.85,1.725C4.85,1.588 4.963,1.475 5.1,1.475L6.9,1.475C7.037,1.475 7.15,1.588 7.15,1.725C7.15,1.862 7.037,1.975 6.9,1.975L6.25,1.975L6.25,2.634C6.994,2.689 7.671,2.984 8.203,3.443L8.684,2.963L8.298,2.577C8.253,2.53 8.228,2.468 8.228,2.403C8.228,2.266 8.341,2.153 8.478,2.153C8.543,2.153 8.605,2.178 8.652,2.223L9.777,3.348C9.822,3.395 9.847,3.457 9.847,3.522C9.847,3.659 9.734,3.772 9.597,3.772C9.532,3.772 9.47,3.747 9.423,3.702L9.038,3.316L8.557,3.797C9.029,4.344 9.313,5.029 9.366,5.75L10.025,5.75L10.025,5.1C10.025,4.963 10.138,4.85 10.275,4.85C10.412,4.85 10.525,4.963 10.525,5.1L10.525,6.9C10.525,7.037 10.412,7.15 10.275,7.15C10.138,7.15 10.025,7.037 10.025,6.9L10.025,6.25L9.366,6.25C9.313,6.971 9.029,7.656 8.557,8.203L9.038,8.684L9.423,8.298C9.47,8.253 9.532,8.228 9.597,8.228C9.734,8.228 9.847,8.341 9.847,8.478C9.847,8.543 9.822,8.605 9.777,8.652L8.652,9.777C8.605,9.822 8.543,9.847 8.478,9.847C8.341,9.847 8.228,9.734 8.228,9.597C8.228,9.532 8.253,9.47 8.298,9.423L8.684,9.038L8.203,8.557C7.656,9.029 6.971,9.313 6.25,9.366L6.25,10.025L6.9,10.025C7.037,10.025 7.15,10.138 7.15,10.275C7.15,10.412 7.037,10.525 6.9,10.525L5.1,10.525C4.963,10.525 4.85,10.412 4.85,10.275C4.85,10.138 4.963,10.025 5.1,10.025L5.75,10.025L5.75,9.366C5.029,9.313 4.344,9.029 3.797,8.557L3.316,9.038L3.702,9.423C3.747,9.47 3.772,9.532 3.772,9.597C3.772,9.734 3.659,9.847 3.522,9.847C3.457,9.847 3.395,9.822 3.348,9.777L2.223,8.652C2.174,8.605 2.147,8.54 2.147,8.472C2.147,8.335 2.26,8.222 2.397,8.222C2.465,8.222 2.53,8.249 2.577,8.298L2.963,8.684L3.443,8.203C2.97,7.656 2.687,6.971 2.634,6.25L1.975,6.25L1.975,6.9C1.975,7.037 1.862,7.15 1.725,7.15C1.588,7.15 1.475,7.037 1.475,6.9L1.475,5.1C1.475,4.963 1.588,4.85 1.725,4.85C1.862,4.85 1.975,4.963 1.975,5.1L1.975,5.75L2.634,5.75C2.687,5.029 2.97,4.344 3.443,3.797L2.963,3.316L2.577,3.702C2.53,3.747 2.468,3.772 2.403,3.772C2.266,3.772 2.153,3.659 2.153,3.522C2.153,3.457 2.178,3.395 2.223,3.348L3.348,2.223C3.395,2.174 3.46,2.147 3.528,2.147C3.665,2.147 3.778,2.26 3.778,2.397C3.778,2.465 3.751,2.53 3.702,2.577L3.316,2.963L3.797,3.443C4.344,2.97 5.029,2.687 5.75,2.634L5.75,1.975L5.1,1.975C4.963,1.975 4.85,1.862 4.85,1.725" style="fill:rgb(87,157,79);"/>
                        <clipPath id="_clip33">
                            <path d="M4.85,1.725C4.85,1.588 4.963,1.475 5.1,1.475L6.9,1.475C7.037,1.475 7.15,1.588 7.15,1.725C7.15,1.862 7.037,1.975 6.9,1.975L6.25,1.975L6.25,2.634C6.994,2.689 7.671,2.984 8.203,3.443L8.684,2.963L8.298,2.577C8.253,2.53 8.228,2.468 8.228,2.403C8.228,2.266 8.341,2.153 8.478,2.153C8.543,2.153 8.605,2.178 8.652,2.223L9.777,3.348C9.822,3.395 9.847,3.457 9.847,3.522C9.847,3.659 9.734,3.772 9.597,3.772C9.532,3.772 9.47,3.747 9.423,3.702L9.038,3.316L8.557,3.797C9.029,4.344 9.313,5.029 9.366,5.75L10.025,5.75L10.025,5.1C10.025,4.963 10.138,4.85 10.275,4.85C10.412,4.85 10.525,4.963 10.525,5.1L10.525,6.9C10.525,7.037 10.412,7.15 10.275,7.15C10.138,7.15 10.025,7.037 10.025,6.9L10.025,6.25L9.366,6.25C9.313,6.971 9.029,7.656 8.557,8.203L9.038,8.684L9.423,8.298C9.47,8.253 9.532,8.228 9.597,8.228C9.734,8.228 9.847,8.341 9.847,8.478C9.847,8.543 9.822,8.605 9.777,8.652L8.652,9.777C8.605,9.822 8.543,9.847 8.478,9.847C8.341,9.847 8.228,9.734 8.228,9.597C8.228,9.532 8.253,9.47 8.298,9.423L8.684,9.038L8.203,8.557C7.656,9.029 6.971,9.313 6.25,9.366L6.25,10.025L6.9,10.025C7.037,10.025 7.15,10.138 7.15,10.275C7.15,10.412 7.037,10.525 6.9,10.525L5.1,10.525C4.963,10.525 4.85,10.412 4.85,10.275C4.85,10.138 4.963,10.025 5.1,10.025L5.75,10.025L5.75,9.366C5.029,9.313 4.344,9.029 3.797,8.557L3.316,9.038L3.702,9.423C3.747,9.47 3.772,9.532 3.772,9.597C3.772,9.734 3.659,9.847 3.522,9.847C3.457,9.847 3.395,9.822 3.348,9.777L2.223,8.652C2.174,8.605 2.147,8.54 2.147,8.472C2.147,8.335 2.26,8.222 2.397,8.222C2.465,8.222 2.53,8.249 2.577,8.298L2.963,8.684L3.443,8.203C2.97,7.656 2.687,6.971 2.634,6.25L1.975,6.25L1.975,6.9C1.975,7.037 1.862,7.15 1.725,7.15C1.588,7.15 1.475,7.037 1.475,6.9L1.475,5.1C1.475,4.963 1.588,4.85 1.725,4.85C1.862,4.85 1.975,4.963 1.975,5.1L1.975,5.75L2.634,5.75C2.687,5.029 2.97,4.344 3.443,3.797L2.963,3.316L2.577,3.702C2.53,3.747 2.468,3.772 2.403,3.772C2.266,3.772 2.153,3.659 2.153,3.522C2.153,3.457 2.178,3.395 2.223,3.348L3.348,2.223C3.395,2.174 3.46,2.147 3.528,2.147C3.665,2.147 3.778,2.26 3.778,2.397C3.778,2.465 3.751,2.53 3.702,2.577L3.316,2.963L3.797,3.443C4.344,2.97 5.029,2.687 5.75,2.634L5.75,1.975L5.1,1.975C4.963,1.975 4.85,1.862 4.85,1.725"/>
                        </clipPath>
                        <g clip-path="url(#_clip33)">
                            <g transform="matrix(0.00953872,0,0,0.00953872,-21.5223,0.849091)">
                                <path d="M2940.44,665.274C2952.4,663.995 2964.29,668.439 2973.18,677.513C2982.06,686.588 2987.13,699.451 2987.13,712.94C2987.28,715.18 2987.28,717.368 2987.28,719.477C2987.28,733.454 2978.84,745.656 2966.78,749.121C2918.25,762.44 2869.99,763.853 2821.97,753.601C2799.21,748.822 2782.71,726.514 2782.71,700.516C2782.61,700.515 2782.61,700.515 2782.61,700.514C2782.62,690.037 2786.57,680.051 2793.5,673.037C2800.43,666.022 2809.69,662.636 2818.97,663.72C2860.66,668.463 2901.16,668.988 2940.44,665.274Z" style="fill:white;"/>
                                <clipPath id="_clip34">
                                    <path d="M2940.44,665.274C2952.4,663.995 2964.29,668.439 2973.18,677.513C2982.06,686.588 2987.13,699.451 2987.13,712.94C2987.28,715.18 2987.28,717.368 2987.28,719.477C2987.28,733.454 2978.84,745.656 2966.78,749.121C2918.25,762.44 2869.99,763.853 2821.97,753.601C2799.21,748.822 2782.71,726.514 2782.71,700.516C2782.61,700.515 2782.61,700.515 2782.61,700.514C2782.62,690.037 2786.57,680.051 2793.5,673.037C2800.43,666.022 2809.69,662.636 2818.97,663.72C2860.66,668.463 2901.16,668.988 2940.44,665.274Z"/>
                                </clipPath>
                                <g clip-path="url(#_clip34)">
                                    <path d="M2840.88,665.875L2840.88,760.327" style="fill:none;stroke:black;stroke-width:14.53px;"/>
                                    <path d="M2930.87,665.875L2930.87,760.327" style="fill:none;stroke:black;stroke-width:14.53px;"/>
                                </g>
                                <path d="M2940.44,665.274C2952.4,663.995 2964.29,668.439 2973.18,677.513C2982.06,686.588 2987.13,699.451 2987.13,712.94C2987.28,715.18 2987.28,717.368 2987.28,719.477C2987.28,733.454 2978.84,745.656 2966.78,749.121C2918.25,762.44 2869.99,763.853 2821.97,753.601C2799.21,748.822 2782.71,726.514 2782.71,700.516C2782.61,700.515 2782.61,700.515 2782.61,700.514C2782.62,690.037 2786.57,680.051 2793.5,673.037C2800.43,666.022 2809.69,662.636 2818.97,663.72C2860.66,668.463 2901.16,668.988 2940.44,665.274Z" style="fill:none;stroke:black;stroke-width:14.53px;"/>
                            </g>
                            <g>
                                <g transform="matrix(0.487956,0.00415536,-0.00415536,0.487956,2.95366,2.4444)">
                                    <path d="M5.844,7.357C5.844,8.28 5.06,9.244 4.203,8.903C4.059,8.845 2.481,8.28 2.481,7.357C2.481,6.565 3.04,5.894 3.782,5.719C3.904,5.69 5.673,6.638 5.794,6.95C5.842,7.075 5.844,7.217 5.844,7.357" style="fill:white;"/>
                                    <clipPath id="_clip35">
                                        <path d="M5.844,7.357C5.844,8.28 5.06,9.244 4.203,8.903C4.059,8.845 2.481,8.28 2.481,7.357C2.481,6.565 3.04,5.894 3.782,5.719C3.904,5.69 5.673,6.638 5.794,6.95C5.842,7.075 5.844,7.217 5.844,7.357"/>
                                    </clipPath>
                                    <g clip-path="url(#_clip35)">
                                        <path d="M4.506,8.299C5.017,8.299 5.437,7.879 5.437,7.368C5.437,6.857 5.017,6.437 4.506,6.437C3.995,6.437 3.574,6.857 3.574,7.368C3.574,7.879 3.995,8.299 4.506,8.299" style="fill:rgb(25,25,25);"/>
                                        <clipPath id="_clip36">
                                            <path d="M4.506,8.299C5.017,8.299 5.437,7.879 5.437,7.368C5.437,6.857 5.017,6.437 4.506,6.437C3.995,6.437 3.574,6.857 3.574,7.368C3.574,7.879 3.995,8.299 4.506,8.299"/>
                                        </clipPath>
                                        <g clip-path="url(#_clip36)">
                                            <g transform="matrix(1.28442,0,1.73472e-18,1.28968,-2.09173,-1.94568)">
                                                <ellipse cx="7.677" cy="7.025" rx="0.323" ry="0.308" style="fill:white;"/>
                                            </g>
                                            <g transform="matrix(1.28442,0,1.73472e-18,1.28968,-5.44277,-1.93963)">
                                                <ellipse cx="7.677" cy="7.025" rx="0.323" ry="0.308" style="fill:white;"/>
                                            </g>
                                        </g>
                                    </g>
                                </g>
                                <g transform="matrix(0.0103529,0.000103685,0.000902567,0.00983876,-24.2206,0.565794)">
                                    <path d="M2745.94,437.183L2854.53,506.631" style="fill:none;stroke:black;stroke-width:25.35px;"/>
                                </g>
                            </g>
                            <g>
                                <g transform="matrix(-0.487956,0.00415536,0.00415536,0.487956,9.14212,2.4444)">
                                    <path d="M5.844,7.357C5.844,8.28 5.06,9.244 4.203,8.903C4.059,8.845 2.481,8.28 2.481,7.357C2.481,6.565 3.04,5.894 3.782,5.719C3.904,5.69 5.673,6.638 5.794,6.95C5.842,7.075 5.844,7.217 5.844,7.357" style="fill:white;"/>
                                    <clipPath id="_clip37">
                                        <path d="M5.844,7.357C5.844,8.28 5.06,9.244 4.203,8.903C4.059,8.845 2.481,8.28 2.481,7.357C2.481,6.565 3.04,5.894 3.782,5.719C3.904,5.69 5.673,6.638 5.794,6.95C5.842,7.075 5.844,7.217 5.844,7.357"/>
                                    </clipPath>
                                    <g clip-path="url(#_clip37)">
                                        <path d="M4.506,8.299C5.017,8.299 5.437,7.879 5.437,7.368C5.437,6.857 5.017,6.437 4.506,6.437C3.995,6.437 3.574,6.857 3.574,7.368C3.574,7.879 3.995,8.299 4.506,8.299" style="fill:rgb(25,25,25);"/>
                                        <clipPath id="_clip38">
                                            <path d="M4.506,8.299C5.017,8.299 5.437,7.879 5.437,7.368C5.437,6.857 5.017,6.437 4.506,6.437C3.995,6.437 3.574,6.857 3.574,7.368C3.574,7.879 3.995,8.299 4.506,8.299"/>
                                        </clipPath>
                                        <g clip-path="url(#_clip38)">
                                            <g transform="matrix(1.28442,0,1.73472e-18,1.28968,-2.09173,-1.94568)">
                                                <ellipse cx="7.677" cy="7.025" rx="0.323" ry="0.308" style="fill:white;"/>
                                            </g>
                                            <g transform="matrix(1.28442,0,1.73472e-18,1.28968,-5.44277,-1.93963)">
                                                <ellipse cx="7.677" cy="7.025" rx="0.323" ry="0.308" style="fill:white;"/>
                                            </g>
                                        </g>
                                    </g>
                                </g>
                                <g transform="matrix(-0.0103529,0.000103685,-0.000902567,0.00983876,36.3163,0.565794)">
                                    <path d="M2745.94,437.183L2854.53,506.631" style="fill:none;stroke:black;stroke-width:25.35px;"/>
                                </g>
                            </g>
                        </g>
                    </g>
                    <g transform="matrix(23.3483,0,0,24.0419,451.89,-15.8645)">
                        <path d="M4.85,1.725C4.85,1.588 4.963,1.475 5.1,1.475L6.9,1.475C7.037,1.475 7.15,1.588 7.15,1.725C7.15,1.862 7.037,1.975 6.9,1.975L6.25,1.975L6.25,2.634C6.994,2.689 7.671,2.984 8.203,3.443L8.684,2.963L8.298,2.577C8.253,2.53 8.228,2.468 8.228,2.403C8.228,2.266 8.341,2.153 8.478,2.153C8.543,2.153 8.605,2.178 8.652,2.223L9.777,3.348C9.822,3.395 9.847,3.457 9.847,3.522C9.847,3.659 9.734,3.772 9.597,3.772C9.532,3.772 9.47,3.747 9.423,3.702L9.038,3.316L8.557,3.797C9.029,4.344 9.313,5.029 9.366,5.75L10.025,5.75L10.025,5.1C10.025,4.963 10.138,4.85 10.275,4.85C10.412,4.85 10.525,4.963 10.525,5.1L10.525,6.9C10.525,7.037 10.412,7.15 10.275,7.15C10.138,7.15 10.025,7.037 10.025,6.9L10.025,6.25L9.366,6.25C9.313,6.971 9.029,7.656 8.557,8.203L9.038,8.684L9.423,8.298C9.47,8.253 9.532,8.228 9.597,8.228C9.734,8.228 9.847,8.341 9.847,8.478C9.847,8.543 9.822,8.605 9.777,8.652L8.652,9.777C8.605,9.822 8.543,9.847 8.478,9.847C8.341,9.847 8.228,9.734 8.228,9.597C8.228,9.532 8.253,9.47 8.298,9.423L8.684,9.038L8.203,8.557C7.656,9.029 6.971,9.313 6.25,9.366L6.25,10.025L6.9,10.025C7.037,10.025 7.15,10.138 7.15,10.275C7.15,10.412 7.037,10.525 6.9,10.525L5.1,10.525C4.963,10.525 4.85,10.412 4.85,10.275C4.85,10.138 4.963,10.025 5.1,10.025L5.75,10.025L5.75,9.366C5.029,9.313 4.344,9.029 3.797,8.557L3.316,9.038L3.702,9.423C3.747,9.47 3.772,9.532 3.772,9.597C3.772,9.734 3.659,9.847 3.522,9.847C3.457,9.847 3.395,9.822 3.348,9.777L2.223,8.652C2.174,8.605 2.147,8.54 2.147,8.472C2.147,8.335 2.26,8.222 2.397,8.222C2.465,8.222 2.53,8.249 2.577,8.298L2.963,8.684L3.443,8.203C2.97,7.656 2.687,6.971 2.634,6.25L1.975,6.25L1.975,6.9C1.975,7.037 1.862,7.15 1.725,7.15C1.588,7.15 1.475,7.037 1.475,6.9L1.475,5.1C1.475,4.963 1.588,4.85 1.725,4.85C1.862,4.85 1.975,4.963 1.975,5.1L1.975,5.75L2.634,5.75C2.687,5.029 2.97,4.344 3.443,3.797L2.963,3.316L2.577,3.702C2.53,3.747 2.468,3.772 2.403,3.772C2.266,3.772 2.153,3.659 2.153,3.522C2.153,3.457 2.178,3.395 2.223,3.348L3.348,2.223C3.395,2.174 3.46,2.147 3.528,2.147C3.665,2.147 3.778,2.26 3.778,2.397C3.778,2.465 3.751,2.53 3.702,2.577L3.316,2.963L3.797,3.443C4.344,2.97 5.029,2.687 5.75,2.634L5.75,1.975L5.1,1.975C4.963,1.975 4.85,1.862 4.85,1.725" style="fill:rgb(87,157,79);"/>
                        <clipPath id="_clip39">
                            <path d="M4.85,1.725C4.85,1.588 4.963,1.475 5.1,1.475L6.9,1.475C7.037,1.475 7.15,1.588 7.15,1.725C7.15,1.862 7.037,1.975 6.9,1.975L6.25,1.975L6.25,2.634C6.994,2.689 7.671,2.984 8.203,3.443L8.684,2.963L8.298,2.577C8.253,2.53 8.228,2.468 8.228,2.403C8.228,2.266 8.341,2.153 8.478,2.153C8.543,2.153 8.605,2.178 8.652,2.223L9.777,3.348C9.822,3.395 9.847,3.457 9.847,3.522C9.847,3.659 9.734,3.772 9.597,3.772C9.532,3.772 9.47,3.747 9.423,3.702L9.038,3.316L8.557,3.797C9.029,4.344 9.313,5.029 9.366,5.75L10.025,5.75L10.025,5.1C10.025,4.963 10.138,4.85 10.275,4.85C10.412,4.85 10.525,4.963 10.525,5.1L10.525,6.9C10.525,7.037 10.412,7.15 10.275,7.15C10.138,7.15 10.025,7.037 10.025,6.9L10.025,6.25L9.366,6.25C9.313,6.971 9.029,7.656 8.557,8.203L9.038,8.684L9.423,8.298C9.47,8.253 9.532,8.228 9.597,8.228C9.734,8.228 9.847,8.341 9.847,8.478C9.847,8.543 9.822,8.605 9.777,8.652L8.652,9.777C8.605,9.822 8.543,9.847 8.478,9.847C8.341,9.847 8.228,9.734 8.228,9.597C8.228,9.532 8.253,9.47 8.298,9.423L8.684,9.038L8.203,8.557C7.656,9.029 6.971,9.313 6.25,9.366L6.25,10.025L6.9,10.025C7.037,10.025 7.15,10.138 7.15,10.275C7.15,10.412 7.037,10.525 6.9,10.525L5.1,10.525C4.963,10.525 4.85,10.412 4.85,10.275C4.85,10.138 4.963,10.025 5.1,10.025L5.75,10.025L5.75,9.366C5.029,9.313 4.344,9.029 3.797,8.557L3.316,9.038L3.702,9.423C3.747,9.47 3.772,9.532 3.772,9.597C3.772,9.734 3.659,9.847 3.522,9.847C3.457,9.847 3.395,9.822 3.348,9.777L2.223,8.652C2.174,8.605 2.147,8.54 2.147,8.472C2.147,8.335 2.26,8.222 2.397,8.222C2.465,8.222 2.53,8.249 2.577,8.298L2.963,8.684L3.443,8.203C2.97,7.656 2.687,6.971 2.634,6.25L1.975,6.25L1.975,6.9C1.975,7.037 1.862,7.15 1.725,7.15C1.588,7.15 1.475,7.037 1.475,6.9L1.475,5.1C1.475,4.963 1.588,4.85 1.725,4.85C1.862,4.85 1.975,4.963 1.975,5.1L1.975,5.75L2.634,5.75C2.687,5.029 2.97,4.344 3.443,3.797L2.963,3.316L2.577,3.702C2.53,3.747 2.468,3.772 2.403,3.772C2.266,3.772 2.153,3.659 2.153,3.522C2.153,3.457 2.178,3.395 2.223,3.348L3.348,2.223C3.395,2.174 3.46,2.147 3.528,2.147C3.665,2.147 3.778,2.26 3.778,2.397C3.778,2.465 3.751,2.53 3.702,2.577L3.316,2.963L3.797,3.443C4.344,2.97 5.029,2.687 5.75,2.634L5.75,1.975L5.1,1.975C4.963,1.975 4.85,1.862 4.85,1.725"/>
                        </clipPath>
                        <g clip-path="url(#_clip39)">
                            <g transform="matrix(0.00953872,0,0,0.00953872,-21.5223,0.849091)">
                                <path d="M2932.94,665.93C2946.79,664.646 2960.56,669.096 2970.86,678.186C2981.15,687.276 2987.02,700.163 2987.02,713.676C2987.28,715.844 2987.28,717.961 2987.28,719.999C2987.28,733.903 2977.73,746.103 2963.94,749.829C2918.89,761.818 2874.06,763.498 2829.44,755.101C2802.36,750.168 2782.74,727.204 2782.74,700.447C2782.61,700.445 2782.61,700.443 2782.61,700.441C2782.61,690.079 2787.16,680.208 2795.11,673.299C2803.06,666.39 2813.67,663.098 2824.27,664.246C2861.44,668.226 2897.68,668.77 2932.94,665.93Z" style="fill:white;"/>
                                <clipPath id="_clip40">
                                    <path d="M2932.94,665.93C2946.79,664.646 2960.56,669.096 2970.86,678.186C2981.15,687.276 2987.02,700.163 2987.02,713.676C2987.28,715.844 2987.28,717.961 2987.28,719.999C2987.28,733.903 2977.73,746.103 2963.94,749.829C2918.89,761.818 2874.06,763.498 2829.44,755.101C2802.36,750.168 2782.74,727.204 2782.74,700.447C2782.61,700.445 2782.61,700.443 2782.61,700.441C2782.61,690.079 2787.16,680.208 2795.11,673.299C2803.06,666.39 2813.67,663.098 2824.27,664.246C2861.44,668.226 2897.68,668.77 2932.94,665.93Z"/>
                                </clipPath>
                                <g clip-path="url(#_clip40)">
                                    <path d="M2840.88,665.875L2840.88,760.327" style="fill:none;stroke:black;stroke-width:14.53px;"/>
                                    <path d="M2930.87,665.875L2930.87,760.327" style="fill:none;stroke:black;stroke-width:14.53px;"/>
                                </g>
                                <path d="M2932.94,665.93C2946.79,664.646 2960.56,669.096 2970.86,678.186C2981.15,687.276 2987.02,700.163 2987.02,713.676C2987.28,715.844 2987.28,717.961 2987.28,719.999C2987.28,733.903 2977.73,746.103 2963.94,749.829C2918.89,761.818 2874.06,763.498 2829.44,755.101C2802.36,750.168 2782.74,727.204 2782.74,700.447C2782.61,700.445 2782.61,700.443 2782.61,700.441C2782.61,690.079 2787.16,680.208 2795.11,673.299C2803.06,666.39 2813.67,663.098 2824.27,664.246C2861.44,668.226 2897.68,668.77 2932.94,665.93Z" style="fill:none;stroke:black;stroke-width:14.53px;"/>
                            </g>
                            <g>
                                <g transform="matrix(0.487956,0.00415536,-0.00415536,0.487956,2.95366,2.4444)">
                                    <path d="M5.844,7.357C5.844,8.28 5.06,9.244 4.203,8.903C4.059,8.845 2.481,8.28 2.481,7.357C2.481,6.565 3.04,5.894 3.782,5.719C3.904,5.69 5.673,6.638 5.794,6.95C5.842,7.075 5.844,7.217 5.844,7.357" style="fill:white;"/>
                                    <clipPath id="_clip41">
                                        <path d="M5.844,7.357C5.844,8.28 5.06,9.244 4.203,8.903C4.059,8.845 2.481,8.28 2.481,7.357C2.481,6.565 3.04,5.894 3.782,5.719C3.904,5.69 5.673,6.638 5.794,6.95C5.842,7.075 5.844,7.217 5.844,7.357"/>
                                    </clipPath>
                                    <g clip-path="url(#_clip41)">
                                        <path d="M4.506,8.299C5.017,8.299 5.437,7.879 5.437,7.368C5.437,6.857 5.017,6.437 4.506,6.437C3.995,6.437 3.574,6.857 3.574,7.368C3.574,7.879 3.995,8.299 4.506,8.299" style="fill:rgb(25,25,25);"/>
                                        <clipPath id="_clip42">
                                            <path d="M4.506,8.299C5.017,8.299 5.437,7.879 5.437,7.368C5.437,6.857 5.017,6.437 4.506,6.437C3.995,6.437 3.574,6.857 3.574,7.368C3.574,7.879 3.995,8.299 4.506,8.299"/>
                                        </clipPath>
                                        <g clip-path="url(#_clip42)">
                                            <g transform="matrix(1.28442,0,1.73472e-18,1.28968,-2.09173,-1.94568)">
                                                <ellipse cx="7.677" cy="7.025" rx="0.323" ry="0.308" style="fill:white;"/>
                                            </g>
                                            <g transform="matrix(1.28442,0,1.73472e-18,1.28968,-5.44277,-1.93963)">
                                                <ellipse cx="7.677" cy="7.025" rx="0.323" ry="0.308" style="fill:white;"/>
                                            </g>
                                        </g>
                                    </g>
                                </g>
                                <g transform="matrix(0.0103529,0.000103685,0.000902567,0.00983876,-24.2206,0.565794)">
                                    <path d="M2745.94,437.183L2854.53,506.631" style="fill:none;stroke:black;stroke-width:25.35px;"/>
                                </g>
                            </g>
                            <g>
                                <g transform="matrix(-0.487956,0.00415536,0.00415536,0.487956,9.14212,2.4444)">
                                    <path d="M5.844,7.357C5.844,8.28 5.06,9.244 4.203,8.903C4.059,8.845 2.481,8.28 2.481,7.357C2.481,6.565 3.04,5.894 3.782,5.719C3.904,5.69 5.673,6.638 5.794,6.95C5.842,7.075 5.844,7.217 5.844,7.357" style="fill:white;"/>
                                    <clipPath id="_clip43">
                                        <path d="M5.844,7.357C5.844,8.28 5.06,9.244 4.203,8.903C4.059,8.845 2.481,8.28 2.481,7.357C2.481,6.565 3.04,5.894 3.782,5.719C3.904,5.69 5.673,6.638 5.794,6.95C5.842,7.075 5.844,7.217 5.844,7.357"/>
                                    </clipPath>
                                    <g clip-path="url(#_clip43)">
                                        <path d="M4.506,8.299C5.017,8.299 5.437,7.879 5.437,7.368C5.437,6.857 5.017,6.437 4.506,6.437C3.995,6.437 3.574,6.857 3.574,7.368C3.574,7.879 3.995,8.299 4.506,8.299" style="fill:rgb(25,25,25);"/>
                                        <clipPath id="_clip44">
                                            <path d="M4.506,8.299C5.017,8.299 5.437,7.879 5.437,7.368C5.437,6.857 5.017,6.437 4.506,6.437C3.995,6.437 3.574,6.857 3.574,7.368C3.574,7.879 3.995,8.299 4.506,8.299"/>
                                        </clipPath>
                                        <g clip-path="url(#_clip44)">
                                            <g transform="matrix(1.28442,0,1.73472e-18,1.28968,-2.09173,-1.94568)">
                                                <ellipse cx="7.677" cy="7.025" rx="0.323" ry="0.308" style="fill:white;"/>
                                            </g>
                                            <g transform="matrix(1.28442,0,1.73472e-18,1.28968,-5.44277,-1.93963)">
                                                <ellipse cx="7.677" cy="7.025" rx="0.323" ry="0.308" style="fill:white;"/>
                                            </g>
                                        </g>
                                    </g>
                                </g>
                                <g transform="matrix(-0.0103529,0.000103685,-0.000902567,0.00983876,36.3163,0.565794)">
                                    <path d="M2745.94,437.183L2854.53,506.631" style="fill:none;stroke:black;stroke-width:25.35px;"/>
                                </g>
                            </g>
                        </g>
                    </g>
                </g>
            </g>
        </g>
    </g>
</svg>
