<?xml version="1.0" encoding="UTF-8" standalone="no"?>
<!DOCTYPE svg PUBLIC "-//W3C//DTD SVG 1.1//EN" "http://www.w3.org/Graphics/SVG/1.1/DTD/svg11.dtd">
<svg width="100%" height="100%" viewBox="0 0 1080 1080" version="1.1" xmlns="http://www.w3.org/2000/svg" xmlns:xlink="http://www.w3.org/1999/xlink" xml:space="preserve" xmlns:serif="http://www.serif.com/" style="fill-rule:evenodd;clip-rule:evenodd;stroke-linecap:round;stroke-linejoin:round;stroke-miterlimit:1.5;">
    <g transform="matrix(1,0,0,1,-2397.59,-1177.17)">
        <g id="sleeping" transform="matrix(1,0,0,1,2397.59,1177.17)">
            <rect x="0" y="0" width="1080" height="1080" style="fill:none;"/>
            <g>
                <g transform="matrix(87.2449,0,0,87.2449,37.2682,22.0228)">
                    <path d="M10.058,10.695C10.018,10.452 10.06,10.179 10.103,9.961C10.18,9.568 10.32,9.19 10.458,8.816C10.502,8.695 10.547,8.574 10.589,8.453C10.73,8.048 10.807,7.619 10.807,7.172C10.807,4.784 9.233,2.849 6.001,2.849C2.768,2.849 1.195,4.785 1.195,7.172C1.195,7.589 1.262,7.991 1.386,8.373C1.618,9.089 1.994,9.803 1.97,10.574C1.956,11.037 1.691,11.274 1.367,11.553C1.267,11.639 1.248,11.78 1.374,11.852C1.665,12.019 2.154,11.834 2.437,11.721C2.689,11.619 2.925,11.446 3.122,11.244C3.223,11.141 3.317,11.032 3.41,10.922C3.487,10.832 3.614,10.601 3.76,10.667C4.079,10.81 3.706,11.404 3.545,11.546C3.479,11.604 3.39,11.657 3.36,11.745C3.326,11.842 3.395,11.926 3.482,11.961C3.726,12.058 4.258,11.893 4.502,11.73C4.676,11.613 4.822,11.463 4.943,11.291C5.019,11.184 5.151,10.847 5.32,10.887C5.632,10.962 5.5,11.453 5.521,11.665C5.531,11.774 5.594,11.883 5.703,11.925C5.939,12.018 6.147,11.851 6.286,11.678C6.441,11.486 6.515,11.273 6.636,11.065C6.732,10.897 6.901,10.863 7.022,11.036C7.198,11.288 7.307,11.528 7.587,11.689C7.818,11.82 8.084,11.902 8.35,11.903C8.468,11.903 8.987,11.842 8.812,11.612C8.735,11.512 8.588,11.488 8.487,11.414C8.322,11.291 8.246,11.088 8.241,10.887C8.233,10.601 8.51,10.674 8.646,10.812C8.866,11.035 8.997,11.352 9.281,11.505C9.622,11.688 10.152,11.777 10.527,11.662C10.655,11.622 10.801,11.567 10.809,11.413C10.818,11.268 10.694,11.233 10.578,11.2C10.429,11.159 10.326,11.122 10.211,11.007C10.125,10.925 10.078,10.812 10.058,10.695" style="fill:rgb(44,179,182);fill-rule:nonzero;"/>
                </g>
                <g transform="matrix(9.17009e-17,-1.16338,0.786065,3.73912e-17,-1037.57,2832.33)">
                    <g id="Layer1">
                        <path d="M1674.25,1977.14C1690.11,1976.31 1714.24,1997.29 1714.24,2028.3C1714.24,2059.3 1700.83,2089.49 1674.25,2089.49C1647.66,2089.49 1640.62,2062.23 1640.62,2031.23C1640.62,2000.22 1647.67,1978.55 1674.25,1977.14Z" style="fill:rgb(71,53,50);"/>
                        <clipPath id="_clip1">
                            <path d="M1674.25,1977.14C1690.11,1976.31 1714.24,1997.29 1714.24,2028.3C1714.24,2059.3 1700.83,2089.49 1674.25,2089.49C1647.66,2089.49 1640.62,2062.23 1640.62,2031.23C1640.62,2000.22 1647.67,1978.55 1674.25,1977.14Z"/>
                        </clipPath>
                        <g clip-path="url(#_clip1)">
                            <g transform="matrix(0.912708,0.537942,-0.148207,0.912708,431.336,-700.858)">
                                <path d="M1674.25,1977.14C1690.11,1976.31 1714.24,1997.29 1714.24,2028.3C1714.24,2059.3 1700.83,2089.49 1674.25,2089.49C1647.66,2089.49 1640.62,2062.23 1640.62,2031.23C1640.62,2000.22 1647.67,1978.55 1674.25,1977.14Z" style="fill:rgb(168,99,86);"/>
                            </g>
                        </g>
                    </g>
                </g>
                <g id="Layer2" transform="matrix(1,0,0,-1,-1162.29,2464.03)">
                    <path d="M1775.58,1832.89C1838.8,1801.49 1904.67,1798.78 1973.92,1832.89" style="fill:none;stroke:rgb(7,71,72);stroke-width:19.17px;"/>
                    <g transform="matrix(1,0,0,1,-314.692,0)">
                        <path d="M1775.58,1832.89C1838.8,1801.49 1904.67,1798.78 1973.92,1832.89" style="fill:none;stroke:rgb(7,71,72);stroke-width:19.17px;"/>
                    </g>
                </g>
                <g transform="matrix(1,0,0,1,-1150.99,-1176.6)">
                    <path d="M2033.5,1530.86C2101.59,1620.51 2129.39,1682.44 2132.57,1787.75C2039.91,1756.3 1904.86,1729.85 1725.44,1729.85C1545.74,1729.85 1387.02,1756.39 1294,1787.9C1297.16,1674.57 1340.83,1597.43 1416.81,1517.09C1465.48,1465.63 1457.94,1349.6 1414.03,1305.83C1515.36,1279.23 1623.52,1370.96 1669.86,1432.56C1685.79,1431.15 1702.01,1430.43 1718.48,1430.43C1743.29,1430.43 1767.69,1432.06 1791.49,1435.24C1837.83,1373.64 1945.85,1279.23 2047.17,1305.83C2003.26,1349.6 1987.89,1470.81 2033.5,1530.86Z" style="fill:rgb(96,160,189);stroke:rgb(49,107,132);stroke-width:14.17px;stroke-miterlimit:5.51744;"/>
                </g>
                <g transform="matrix(1.00792,0,0,1.00792,-1164.56,-1189.98)">
                    <path d="M1323.59,1649.94C1325.14,1646.43 1519.2,1593.77 1715.74,1589.76C1905.48,1585.9 2097.82,1630.28 2105.61,1649.08C2122.66,1690.25 2130.92,1744.16 2132.57,1798.74C2039.91,1767.29 1904.86,1740.84 1725.44,1740.84C1545.74,1740.84 1387.02,1767.37 1294,1798.89C1295.47,1746.46 1305.6,1690.78 1323.59,1649.94Z" style="fill:white;stroke:rgb(182,182,182);stroke-width:10.9px;stroke-miterlimit:5.51744;"/>
                </g>
                <g id="Layer3" transform="matrix(1,0,0,1,-1162.29,-1177.17)">
                    <g transform="matrix(-0.57433,0.566199,-0.574054,-0.582297,1385.68,1302.18)">
                        <path d="M7.428,-123.254C12.906,-129.936 29.984,-127.086 32.995,-118.988C36.019,-110.858 23.226,-75.28 25.568,-74.476C27.909,-73.672 39.667,-109.606 47.046,-114.164C54.397,-118.705 69.624,-110.465 69.843,-101.827C70.063,-93.156 46.411,-63.659 48.364,-62.139C50.318,-60.618 73.106,-90.787 81.566,-92.703C89.993,-94.611 101.719,-81.873 99.122,-73.632C96.514,-65.359 64.566,-45.141 65.92,-43.068C67.275,-40.995 98.624,-62.13 107.247,-61.195C115.837,-60.264 122.792,-44.408 117.659,-37.458C112.507,-30.48 75.725,-21.73 76.333,-19.33C76.941,-16.93 113.454,-26.741 121.306,-23.057C129.128,-19.386 130.558,-2.132 123.447,2.776C116.308,7.702 78.678,4.035 78.473,6.502C78.269,8.97 115.989,11.546 122.22,17.581C128.426,23.592 124.176,40.376 115.857,42.709C107.505,45.05 73.105,29.363 72.11,31.63C71.115,33.898 105.956,48.582 109.889,56.313C113.808,64.013 104.338,78.508 95.712,78.013C87.052,77.516 59.609,51.509 57.933,53.331C56.256,55.152 84.44,80.354 85.65,88.943C86.856,97.498 73.193,108.133 65.195,104.864C57.166,101.582 39.655,68.073 37.477,69.252C35.3,70.43 53.774,103.418 52.13,111.934C50.492,120.418 34.117,126.04 27.613,120.351C21.085,114.64 15.403,77.261 12.961,77.668C10.518,78.076 17.281,115.274 12.961,122.796C8.657,130.288 -8.657,130.288 -12.961,122.796C-17.281,115.274 -10.518,78.076 -12.961,77.668C-15.403,77.261 -21.085,114.64 -27.613,120.351C-34.117,126.04 -50.492,120.418 -52.13,111.934C-53.774,103.418 -35.3,70.43 -37.477,69.252C-39.655,68.073 -57.166,101.582 -65.195,104.864C-73.193,108.133 -86.856,97.498 -85.65,88.943C-84.44,80.354 -56.256,55.152 -57.933,53.331C-59.609,51.509 -87.052,77.516 -95.712,78.013C-104.338,78.508 -113.808,64.013 -109.889,56.313C-105.956,48.582 -71.115,33.898 -72.11,31.63C-73.105,29.363 -107.505,45.05 -115.857,42.709C-124.176,40.376 -128.426,23.592 -122.22,17.581C-115.989,11.546 -78.269,8.97 -78.473,6.502C-78.678,4.035 -116.308,7.702 -123.447,2.776C-130.558,-2.132 -129.128,-19.386 -121.306,-23.057C-113.454,-26.741 -76.941,-16.93 -76.333,-19.33C-75.725,-21.73 -112.507,-30.48 -117.659,-37.458C-122.792,-44.408 -115.837,-60.264 -107.247,-61.195C-98.624,-62.13 -67.275,-40.995 -65.92,-43.068C-64.566,-45.141 -96.514,-65.359 -99.122,-73.632C-101.719,-81.873 -89.993,-94.611 -81.566,-92.703C-73.106,-90.787 -50.318,-60.618 -48.364,-62.139C-46.411,-63.659 -70.063,-93.156 -69.843,-101.827C-69.624,-110.465 -54.397,-118.705 -47.046,-114.164C-39.667,-109.606 -27.909,-73.672 -25.568,-74.476C-23.226,-75.28 -36.019,-110.858 -32.995,-118.988C-29.984,-127.086 -12.906,-129.936 -7.428,-123.254C-1.929,-116.547 -2.476,-78.742 0,-78.742C2.476,-78.742 1.929,-116.547 7.428,-123.254Z" style="fill:rgb(252,252,252);stroke:rgb(182,182,182);stroke-width:4.1px;stroke-miterlimit:5.51744;"/>
                    </g>
                    <g transform="matrix(-0.57433,0.566199,-0.574054,-0.582297,2058.87,1302.18)">
                        <path d="M7.428,-123.254C12.906,-129.936 29.984,-127.086 32.995,-118.988C36.019,-110.858 23.226,-75.28 25.568,-74.476C27.909,-73.672 39.667,-109.606 47.046,-114.164C54.397,-118.705 69.624,-110.465 69.843,-101.827C70.063,-93.156 46.411,-63.659 48.364,-62.139C50.318,-60.618 73.106,-90.787 81.566,-92.703C89.993,-94.611 101.719,-81.873 99.122,-73.632C96.514,-65.359 64.566,-45.141 65.92,-43.068C67.275,-40.995 98.624,-62.13 107.247,-61.195C115.837,-60.264 122.792,-44.408 117.659,-37.458C112.507,-30.48 75.725,-21.73 76.333,-19.33C76.941,-16.93 113.454,-26.741 121.306,-23.057C129.128,-19.386 130.558,-2.132 123.447,2.776C116.308,7.702 78.678,4.035 78.473,6.502C78.269,8.97 115.989,11.546 122.22,17.581C128.426,23.592 124.176,40.376 115.857,42.709C107.505,45.05 73.105,29.363 72.11,31.63C71.115,33.898 105.956,48.582 109.889,56.313C113.808,64.013 104.338,78.508 95.712,78.013C87.052,77.516 59.609,51.509 57.933,53.331C56.256,55.152 84.44,80.354 85.65,88.943C86.856,97.498 73.193,108.133 65.195,104.864C57.166,101.582 39.655,68.073 37.477,69.252C35.3,70.43 53.774,103.418 52.13,111.934C50.492,120.418 34.117,126.04 27.613,120.351C21.085,114.64 15.403,77.261 12.961,77.668C10.518,78.076 17.281,115.274 12.961,122.796C8.657,130.288 -8.657,130.288 -12.961,122.796C-17.281,115.274 -10.518,78.076 -12.961,77.668C-15.403,77.261 -21.085,114.64 -27.613,120.351C-34.117,126.04 -50.492,120.418 -52.13,111.934C-53.774,103.418 -35.3,70.43 -37.477,69.252C-39.655,68.073 -57.166,101.582 -65.195,104.864C-73.193,108.133 -86.856,97.498 -85.65,88.943C-84.44,80.354 -56.256,55.152 -57.933,53.331C-59.609,51.509 -87.052,77.516 -95.712,78.013C-104.338,78.508 -113.808,64.013 -109.889,56.313C-105.956,48.582 -71.115,33.898 -72.11,31.63C-73.105,29.363 -107.505,45.05 -115.857,42.709C-124.176,40.376 -128.426,23.592 -122.22,17.581C-115.989,11.546 -78.269,8.97 -78.473,6.502C-78.678,4.035 -116.308,7.702 -123.447,2.776C-130.558,-2.132 -129.128,-19.386 -121.306,-23.057C-113.454,-26.741 -76.941,-16.93 -76.333,-19.33C-75.725,-21.73 -112.507,-30.48 -117.659,-37.458C-122.792,-44.408 -115.837,-60.264 -107.247,-61.195C-98.624,-62.13 -67.275,-40.995 -65.92,-43.068C-64.566,-45.141 -96.514,-65.359 -99.122,-73.632C-101.719,-81.873 -89.993,-94.611 -81.566,-92.703C-73.106,-90.787 -50.318,-60.618 -48.364,-62.139C-46.411,-63.659 -70.063,-93.156 -69.843,-101.827C-69.624,-110.465 -54.397,-118.705 -47.046,-114.164C-39.667,-109.606 -27.909,-73.672 -25.568,-74.476C-23.226,-75.28 -36.019,-110.858 -32.995,-118.988C-29.984,-127.086 -12.906,-129.936 -7.428,-123.254C-1.929,-116.547 -2.476,-78.742 0,-78.742C2.476,-78.742 1.929,-116.547 7.428,-123.254Z" style="fill:rgb(252,252,252);stroke:rgb(182,182,182);stroke-width:3.98px;stroke-miterlimit:5.51744;"/>
                    </g>
                </g>
            </g>
        </g>
    </g>
</svg>
