<?xml version="1.0" encoding="UTF-8" standalone="no"?>
<!DOCTYPE svg PUBLIC "-//W3C//DTD SVG 1.1//EN" "http://www.w3.org/Graphics/SVG/1.1/DTD/svg11.dtd">
<svg width="100%" height="100%" viewBox="0 0 1080 1080" version="1.1" xmlns="http://www.w3.org/2000/svg" xmlns:xlink="http://www.w3.org/1999/xlink" xml:space="preserve" xmlns:serif="http://www.serif.com/" style="fill-rule:evenodd;clip-rule:evenodd;stroke-linecap:round;stroke-linejoin:round;stroke-miterlimit:5.51744;">
    <g transform="matrix(1,0,0,1,-2397.59,-2353.33)">
        <g id="sleeping-sick" transform="matrix(1,0,0,1,2397.59,2353.33)">
            <rect x="0" y="0" width="1080" height="1080" style="fill:none;"/>
            <g>
                <g transform="matrix(87.2449,0,0,87.2449,37.2682,22.0228)">
                    <path d="M10.058,10.695C10.018,10.452 10.06,10.179 10.103,9.961C10.18,9.568 10.32,9.19 10.458,8.816C10.502,8.695 10.547,8.574 10.589,8.453C10.73,8.048 10.807,7.619 10.807,7.172C10.807,4.784 9.233,2.849 6.001,2.849C2.768,2.849 1.195,4.785 1.195,7.172C1.195,7.589 1.262,7.991 1.386,8.373C1.618,9.089 1.994,9.803 1.97,10.574C1.956,11.037 1.691,11.274 1.367,11.553C1.267,11.639 1.248,11.78 1.374,11.852C1.665,12.019 2.154,11.834 2.437,11.721C2.689,11.619 2.925,11.446 3.122,11.244C3.223,11.141 3.317,11.032 3.41,10.922C3.487,10.832 3.614,10.601 3.76,10.667C4.079,10.81 3.706,11.404 3.545,11.546C3.479,11.604 3.39,11.657 3.36,11.745C3.326,11.842 3.395,11.926 3.482,11.961C3.726,12.058 4.258,11.893 4.502,11.73C4.676,11.613 4.822,11.463 4.943,11.291C5.019,11.184 5.151,10.847 5.32,10.887C5.632,10.962 5.5,11.453 5.521,11.665C5.531,11.774 5.594,11.883 5.703,11.925C5.939,12.018 6.147,11.851 6.286,11.678C6.441,11.486 6.515,11.273 6.636,11.065C6.732,10.897 6.901,10.863 7.022,11.036C7.198,11.288 7.307,11.528 7.587,11.689C7.818,11.82 8.084,11.902 8.35,11.903C8.468,11.903 8.987,11.842 8.812,11.612C8.735,11.512 8.588,11.488 8.487,11.414C8.322,11.291 8.246,11.088 8.241,10.887C8.233,10.601 8.51,10.674 8.646,10.812C8.866,11.035 8.997,11.352 9.281,11.505C9.622,11.688 10.152,11.777 10.527,11.662C10.655,11.622 10.801,11.567 10.809,11.413C10.818,11.268 10.694,11.233 10.578,11.2C10.429,11.159 10.326,11.122 10.211,11.007C10.125,10.925 10.078,10.812 10.058,10.695" style="fill:rgb(44,179,182);fill-rule:nonzero;"/>
                </g>
                <g transform="matrix(1,0,0,1,-1150.99,-1176.6)">
                    <path d="M2033.5,1530.86C2101.59,1620.51 2129.39,1682.44 2132.57,1787.75C2039.91,1756.3 1904.86,1729.85 1725.44,1729.85C1545.74,1729.85 1387.02,1756.39 1294,1787.9C1297.16,1674.57 1340.83,1597.43 1416.81,1517.09C1465.48,1465.63 1457.94,1349.6 1414.03,1305.83C1515.36,1279.23 1623.52,1370.96 1669.86,1432.56C1685.79,1431.15 1702.01,1430.43 1718.48,1430.43C1743.29,1430.43 1767.69,1432.06 1791.49,1435.24C1837.83,1373.64 1945.85,1279.23 2047.17,1305.83C2003.26,1349.6 1987.89,1470.81 2033.5,1530.86Z" style="fill:rgb(96,160,189);stroke:rgb(49,107,132);stroke-width:14.17px;"/>
                </g>
                <g transform="matrix(1.00792,0,0,1.00792,-1164.56,-1189.98)">
                    <path d="M1323.59,1649.94C1325.14,1646.43 1519.2,1593.77 1715.74,1589.76C1905.48,1585.9 2097.82,1630.28 2105.61,1649.08C2122.66,1690.25 2130.92,1744.16 2132.57,1798.74C2039.91,1767.29 1904.86,1740.84 1725.44,1740.84C1545.74,1740.84 1387.02,1767.37 1294,1798.89C1295.47,1746.46 1305.6,1690.78 1323.59,1649.94Z" style="fill:white;stroke:rgb(182,182,182);stroke-width:10.9px;"/>
                </g>
                <g id="Layer3" transform="matrix(1,0,0,1,-1162.29,-1177.17)">
                    <g transform="matrix(-0.57433,0.566199,-0.574054,-0.582297,1385.68,1302.18)">
                        <path d="M7.428,-123.254C12.906,-129.936 29.984,-127.086 32.995,-118.988C36.019,-110.858 23.226,-75.28 25.568,-74.476C27.909,-73.672 39.667,-109.606 47.046,-114.164C54.397,-118.705 69.624,-110.465 69.843,-101.827C70.063,-93.156 46.411,-63.659 48.364,-62.139C50.318,-60.618 73.106,-90.787 81.566,-92.703C89.993,-94.611 101.719,-81.873 99.122,-73.632C96.514,-65.359 64.566,-45.141 65.92,-43.068C67.275,-40.995 98.624,-62.13 107.247,-61.195C115.837,-60.264 122.792,-44.408 117.659,-37.458C112.507,-30.48 75.725,-21.73 76.333,-19.33C76.941,-16.93 113.454,-26.741 121.306,-23.057C129.128,-19.386 130.558,-2.132 123.447,2.776C116.308,7.702 78.678,4.035 78.473,6.502C78.269,8.97 115.989,11.546 122.22,17.581C128.426,23.592 124.176,40.376 115.857,42.709C107.505,45.05 73.105,29.363 72.11,31.63C71.115,33.898 105.956,48.582 109.889,56.313C113.808,64.013 104.338,78.508 95.712,78.013C87.052,77.516 59.609,51.509 57.933,53.331C56.256,55.152 84.44,80.354 85.65,88.943C86.856,97.498 73.193,108.133 65.195,104.864C57.166,101.582 39.655,68.073 37.477,69.252C35.3,70.43 53.774,103.418 52.13,111.934C50.492,120.418 34.117,126.04 27.613,120.351C21.085,114.64 15.403,77.261 12.961,77.668C10.518,78.076 17.281,115.274 12.961,122.796C8.657,130.288 -8.657,130.288 -12.961,122.796C-17.281,115.274 -10.518,78.076 -12.961,77.668C-15.403,77.261 -21.085,114.64 -27.613,120.351C-34.117,126.04 -50.492,120.418 -52.13,111.934C-53.774,103.418 -35.3,70.43 -37.477,69.252C-39.655,68.073 -57.166,101.582 -65.195,104.864C-73.193,108.133 -86.856,97.498 -85.65,88.943C-84.44,80.354 -56.256,55.152 -57.933,53.331C-59.609,51.509 -87.052,77.516 -95.712,78.013C-104.338,78.508 -113.808,64.013 -109.889,56.313C-105.956,48.582 -71.115,33.898 -72.11,31.63C-73.105,29.363 -107.505,45.05 -115.857,42.709C-124.176,40.376 -128.426,23.592 -122.22,17.581C-115.989,11.546 -78.269,8.97 -78.473,6.502C-78.678,4.035 -116.308,7.702 -123.447,2.776C-130.558,-2.132 -129.128,-19.386 -121.306,-23.057C-113.454,-26.741 -76.941,-16.93 -76.333,-19.33C-75.725,-21.73 -112.507,-30.48 -117.659,-37.458C-122.792,-44.408 -115.837,-60.264 -107.247,-61.195C-98.624,-62.13 -67.275,-40.995 -65.92,-43.068C-64.566,-45.141 -96.514,-65.359 -99.122,-73.632C-101.719,-81.873 -89.993,-94.611 -81.566,-92.703C-73.106,-90.787 -50.318,-60.618 -48.364,-62.139C-46.411,-63.659 -70.063,-93.156 -69.843,-101.827C-69.624,-110.465 -54.397,-118.705 -47.046,-114.164C-39.667,-109.606 -27.909,-73.672 -25.568,-74.476C-23.226,-75.28 -36.019,-110.858 -32.995,-118.988C-29.984,-127.086 -12.906,-129.936 -7.428,-123.254C-1.929,-116.547 -2.476,-78.742 0,-78.742C2.476,-78.742 1.929,-116.547 7.428,-123.254Z" style="fill:rgb(252,252,252);stroke:rgb(182,182,182);stroke-width:4.1px;"/>
                    </g>
                    <g transform="matrix(-0.57433,0.566199,-0.574054,-0.582297,2058.87,1302.18)">
                        <path d="M7.428,-123.254C12.906,-129.936 29.984,-127.086 32.995,-118.988C36.019,-110.858 23.226,-75.28 25.568,-74.476C27.909,-73.672 39.667,-109.606 47.046,-114.164C54.397,-118.705 69.624,-110.465 69.843,-101.827C70.063,-93.156 46.411,-63.659 48.364,-62.139C50.318,-60.618 73.106,-90.787 81.566,-92.703C89.993,-94.611 101.719,-81.873 99.122,-73.632C96.514,-65.359 64.566,-45.141 65.92,-43.068C67.275,-40.995 98.624,-62.13 107.247,-61.195C115.837,-60.264 122.792,-44.408 117.659,-37.458C112.507,-30.48 75.725,-21.73 76.333,-19.33C76.941,-16.93 113.454,-26.741 121.306,-23.057C129.128,-19.386 130.558,-2.132 123.447,2.776C116.308,7.702 78.678,4.035 78.473,6.502C78.269,8.97 115.989,11.546 122.22,17.581C128.426,23.592 124.176,40.376 115.857,42.709C107.505,45.05 73.105,29.363 72.11,31.63C71.115,33.898 105.956,48.582 109.889,56.313C113.808,64.013 104.338,78.508 95.712,78.013C87.052,77.516 59.609,51.509 57.933,53.331C56.256,55.152 84.44,80.354 85.65,88.943C86.856,97.498 73.193,108.133 65.195,104.864C57.166,101.582 39.655,68.073 37.477,69.252C35.3,70.43 53.774,103.418 52.13,111.934C50.492,120.418 34.117,126.04 27.613,120.351C21.085,114.64 15.403,77.261 12.961,77.668C10.518,78.076 17.281,115.274 12.961,122.796C8.657,130.288 -8.657,130.288 -12.961,122.796C-17.281,115.274 -10.518,78.076 -12.961,77.668C-15.403,77.261 -21.085,114.64 -27.613,120.351C-34.117,126.04 -50.492,120.418 -52.13,111.934C-53.774,103.418 -35.3,70.43 -37.477,69.252C-39.655,68.073 -57.166,101.582 -65.195,104.864C-73.193,108.133 -86.856,97.498 -85.65,88.943C-84.44,80.354 -56.256,55.152 -57.933,53.331C-59.609,51.509 -87.052,77.516 -95.712,78.013C-104.338,78.508 -113.808,64.013 -109.889,56.313C-105.956,48.582 -71.115,33.898 -72.11,31.63C-73.105,29.363 -107.505,45.05 -115.857,42.709C-124.176,40.376 -128.426,23.592 -122.22,17.581C-115.989,11.546 -78.269,8.97 -78.473,6.502C-78.678,4.035 -116.308,7.702 -123.447,2.776C-130.558,-2.132 -129.128,-19.386 -121.306,-23.057C-113.454,-26.741 -76.941,-16.93 -76.333,-19.33C-75.725,-21.73 -112.507,-30.48 -117.659,-37.458C-122.792,-44.408 -115.837,-60.264 -107.247,-61.195C-98.624,-62.13 -67.275,-40.995 -65.92,-43.068C-64.566,-45.141 -96.514,-65.359 -99.122,-73.632C-101.719,-81.873 -89.993,-94.611 -81.566,-92.703C-73.106,-90.787 -50.318,-60.618 -48.364,-62.139C-46.411,-63.659 -70.063,-93.156 -69.843,-101.827C-69.624,-110.465 -54.397,-118.705 -47.046,-114.164C-39.667,-109.606 -27.909,-73.672 -25.568,-74.476C-23.226,-75.28 -36.019,-110.858 -32.995,-118.988C-29.984,-127.086 -12.906,-129.936 -7.428,-123.254C-1.929,-116.547 -2.476,-78.742 0,-78.742C2.476,-78.742 1.929,-116.547 7.428,-123.254Z" style="fill:rgb(252,252,252);stroke:rgb(182,182,182);stroke-width:3.98px;"/>
                    </g>
                </g>
            </g>
            <g>
                <g transform="matrix(19.5167,0,0,20.0964,865.041,190.027)">
                    <path d="M4.85,1.725C4.85,1.588 4.963,1.475 5.1,1.475L6.9,1.475C7.037,1.475 7.15,1.588 7.15,1.725C7.15,1.862 7.037,1.975 6.9,1.975L6.25,1.975L6.25,2.634C6.994,2.689 7.671,2.984 8.203,3.443L8.684,2.963L8.298,2.577C8.253,2.53 8.228,2.468 8.228,2.403C8.228,2.266 8.341,2.153 8.478,2.153C8.543,2.153 8.605,2.178 8.652,2.223L9.777,3.348C9.822,3.395 9.847,3.457 9.847,3.522C9.847,3.659 9.734,3.772 9.597,3.772C9.532,3.772 9.47,3.747 9.423,3.702L9.038,3.316L8.557,3.797C9.029,4.344 9.313,5.029 9.366,5.75L10.025,5.75L10.025,5.1C10.025,4.963 10.138,4.85 10.275,4.85C10.412,4.85 10.525,4.963 10.525,5.1L10.525,6.9C10.525,7.037 10.412,7.15 10.275,7.15C10.138,7.15 10.025,7.037 10.025,6.9L10.025,6.25L9.366,6.25C9.313,6.971 9.029,7.656 8.557,8.203L9.038,8.684L9.423,8.298C9.47,8.253 9.532,8.228 9.597,8.228C9.734,8.228 9.847,8.341 9.847,8.478C9.847,8.543 9.822,8.605 9.777,8.652L8.652,9.777C8.605,9.822 8.543,9.847 8.478,9.847C8.341,9.847 8.228,9.734 8.228,9.597C8.228,9.532 8.253,9.47 8.298,9.423L8.684,9.038L8.203,8.557C7.656,9.029 6.971,9.313 6.25,9.366L6.25,10.025L6.9,10.025C7.037,10.025 7.15,10.138 7.15,10.275C7.15,10.412 7.037,10.525 6.9,10.525L5.1,10.525C4.963,10.525 4.85,10.412 4.85,10.275C4.85,10.138 4.963,10.025 5.1,10.025L5.75,10.025L5.75,9.366C5.029,9.313 4.344,9.029 3.797,8.557L3.316,9.038L3.702,9.423C3.747,9.47 3.772,9.532 3.772,9.597C3.772,9.734 3.659,9.847 3.522,9.847C3.457,9.847 3.395,9.822 3.348,9.777L2.223,8.652C2.174,8.605 2.147,8.54 2.147,8.472C2.147,8.335 2.26,8.222 2.397,8.222C2.465,8.222 2.53,8.249 2.577,8.298L2.963,8.684L3.443,8.203C2.97,7.656 2.687,6.971 2.634,6.25L1.975,6.25L1.975,6.9C1.975,7.037 1.862,7.15 1.725,7.15C1.588,7.15 1.475,7.037 1.475,6.9L1.475,5.1C1.475,4.963 1.588,4.85 1.725,4.85C1.862,4.85 1.975,4.963 1.975,5.1L1.975,5.75L2.634,5.75C2.687,5.029 2.97,4.344 3.443,3.797L2.963,3.316L2.577,3.702C2.53,3.747 2.468,3.772 2.403,3.772C2.266,3.772 2.153,3.659 2.153,3.522C2.153,3.457 2.178,3.395 2.223,3.348L3.348,2.223C3.395,2.174 3.46,2.147 3.528,2.147C3.665,2.147 3.778,2.26 3.778,2.397C3.778,2.465 3.751,2.53 3.702,2.577L3.316,2.963L3.797,3.443C4.344,2.97 5.029,2.687 5.75,2.634L5.75,1.975L5.1,1.975C4.963,1.975 4.85,1.862 4.85,1.725" style="fill:rgb(87,157,79);"/>
                    <clipPath id="_clip1">
                        <path d="M4.85,1.725C4.85,1.588 4.963,1.475 5.1,1.475L6.9,1.475C7.037,1.475 7.15,1.588 7.15,1.725C7.15,1.862 7.037,1.975 6.9,1.975L6.25,1.975L6.25,2.634C6.994,2.689 7.671,2.984 8.203,3.443L8.684,2.963L8.298,2.577C8.253,2.53 8.228,2.468 8.228,2.403C8.228,2.266 8.341,2.153 8.478,2.153C8.543,2.153 8.605,2.178 8.652,2.223L9.777,3.348C9.822,3.395 9.847,3.457 9.847,3.522C9.847,3.659 9.734,3.772 9.597,3.772C9.532,3.772 9.47,3.747 9.423,3.702L9.038,3.316L8.557,3.797C9.029,4.344 9.313,5.029 9.366,5.75L10.025,5.75L10.025,5.1C10.025,4.963 10.138,4.85 10.275,4.85C10.412,4.85 10.525,4.963 10.525,5.1L10.525,6.9C10.525,7.037 10.412,7.15 10.275,7.15C10.138,7.15 10.025,7.037 10.025,6.9L10.025,6.25L9.366,6.25C9.313,6.971 9.029,7.656 8.557,8.203L9.038,8.684L9.423,8.298C9.47,8.253 9.532,8.228 9.597,8.228C9.734,8.228 9.847,8.341 9.847,8.478C9.847,8.543 9.822,8.605 9.777,8.652L8.652,9.777C8.605,9.822 8.543,9.847 8.478,9.847C8.341,9.847 8.228,9.734 8.228,9.597C8.228,9.532 8.253,9.47 8.298,9.423L8.684,9.038L8.203,8.557C7.656,9.029 6.971,9.313 6.25,9.366L6.25,10.025L6.9,10.025C7.037,10.025 7.15,10.138 7.15,10.275C7.15,10.412 7.037,10.525 6.9,10.525L5.1,10.525C4.963,10.525 4.85,10.412 4.85,10.275C4.85,10.138 4.963,10.025 5.1,10.025L5.75,10.025L5.75,9.366C5.029,9.313 4.344,9.029 3.797,8.557L3.316,9.038L3.702,9.423C3.747,9.47 3.772,9.532 3.772,9.597C3.772,9.734 3.659,9.847 3.522,9.847C3.457,9.847 3.395,9.822 3.348,9.777L2.223,8.652C2.174,8.605 2.147,8.54 2.147,8.472C2.147,8.335 2.26,8.222 2.397,8.222C2.465,8.222 2.53,8.249 2.577,8.298L2.963,8.684L3.443,8.203C2.97,7.656 2.687,6.971 2.634,6.25L1.975,6.25L1.975,6.9C1.975,7.037 1.862,7.15 1.725,7.15C1.588,7.15 1.475,7.037 1.475,6.9L1.475,5.1C1.475,4.963 1.588,4.85 1.725,4.85C1.862,4.85 1.975,4.963 1.975,5.1L1.975,5.75L2.634,5.75C2.687,5.029 2.97,4.344 3.443,3.797L2.963,3.316L2.577,3.702C2.53,3.747 2.468,3.772 2.403,3.772C2.266,3.772 2.153,3.659 2.153,3.522C2.153,3.457 2.178,3.395 2.223,3.348L3.348,2.223C3.395,2.174 3.46,2.147 3.528,2.147C3.665,2.147 3.778,2.26 3.778,2.397C3.778,2.465 3.751,2.53 3.702,2.577L3.316,2.963L3.797,3.443C4.344,2.97 5.029,2.687 5.75,2.634L5.75,1.975L5.1,1.975C4.963,1.975 4.85,1.862 4.85,1.725"/>
                    </clipPath>
                    <g clip-path="url(#_clip1)">
                        <g transform="matrix(0.00953872,0,0,0.00953872,-21.5223,0.849091)">
                            <path d="M2931.46,666.048C2945.7,664.767 2959.84,669.37 2970.41,678.729C2980.98,688.088 2987.01,701.337 2987.01,715.228C2987.28,715.271 2987.28,715.313 2987.28,715.355C2987.28,732.253 2975.5,747.009 2958.65,751.224C2915.24,761.966 2872.05,763.176 2829.05,755.028C2802.19,750.098 2782.74,727.302 2782.74,700.751C2782.61,700.749 2782.61,700.747 2782.61,700.745C2782.61,690.308 2787.19,680.365 2795.2,673.404C2803.21,666.443 2813.89,663.123 2824.57,664.275C2861.12,668.175 2896.76,668.747 2931.46,666.048Z" style="fill:white;"/>
                            <clipPath id="_clip2">
                                <path d="M2931.46,666.048C2945.7,664.767 2959.84,669.37 2970.41,678.729C2980.98,688.088 2987.01,701.337 2987.01,715.228C2987.28,715.271 2987.28,715.313 2987.28,715.355C2987.28,732.253 2975.5,747.009 2958.65,751.224C2915.24,761.966 2872.05,763.176 2829.05,755.028C2802.19,750.098 2782.74,727.302 2782.74,700.751C2782.61,700.749 2782.61,700.747 2782.61,700.745C2782.61,690.308 2787.19,680.365 2795.2,673.404C2803.21,666.443 2813.89,663.123 2824.57,664.275C2861.12,668.175 2896.76,668.747 2931.46,666.048Z"/>
                            </clipPath>
                            <g clip-path="url(#_clip2)">
                                <path d="M2840.88,665.875L2840.88,760.327" style="fill:none;stroke:black;stroke-width:14.53px;"/>
                                <path d="M2930.87,665.875L2930.87,760.327" style="fill:none;stroke:black;stroke-width:14.53px;"/>
                            </g>
                            <path d="M2931.46,666.048C2945.7,664.767 2959.84,669.37 2970.41,678.729C2980.98,688.088 2987.01,701.337 2987.01,715.228C2987.28,715.271 2987.28,715.313 2987.28,715.355C2987.28,732.253 2975.5,747.009 2958.65,751.224C2915.24,761.966 2872.05,763.176 2829.05,755.028C2802.19,750.098 2782.74,727.302 2782.74,700.751C2782.61,700.749 2782.61,700.747 2782.61,700.745C2782.61,690.308 2787.19,680.365 2795.2,673.404C2803.21,666.443 2813.89,663.123 2824.57,664.275C2861.12,668.175 2896.76,668.747 2931.46,666.048Z" style="fill:none;stroke:black;stroke-width:14.53px;"/>
                        </g>
                        <g>
                            <g transform="matrix(0.487956,0.00415536,-0.00415536,0.487956,2.95366,2.4444)">
                                <path d="M5.844,7.357C5.844,8.28 5.06,9.244 4.203,8.903C4.059,8.845 2.481,8.28 2.481,7.357C2.481,6.565 3.04,5.894 3.782,5.719C3.904,5.69 5.673,6.638 5.794,6.95C5.842,7.075 5.844,7.217 5.844,7.357" style="fill:white;"/>
                                <clipPath id="_clip3">
                                    <path d="M5.844,7.357C5.844,8.28 5.06,9.244 4.203,8.903C4.059,8.845 2.481,8.28 2.481,7.357C2.481,6.565 3.04,5.894 3.782,5.719C3.904,5.69 5.673,6.638 5.794,6.95C5.842,7.075 5.844,7.217 5.844,7.357"/>
                                </clipPath>
                                <g clip-path="url(#_clip3)">
                                    <path d="M4.506,8.299C5.017,8.299 5.437,7.879 5.437,7.368C5.437,6.857 5.017,6.437 4.506,6.437C3.995,6.437 3.574,6.857 3.574,7.368C3.574,7.879 3.995,8.299 4.506,8.299" style="fill:rgb(25,25,25);"/>
                                    <clipPath id="_clip4">
                                        <path d="M4.506,8.299C5.017,8.299 5.437,7.879 5.437,7.368C5.437,6.857 5.017,6.437 4.506,6.437C3.995,6.437 3.574,6.857 3.574,7.368C3.574,7.879 3.995,8.299 4.506,8.299"/>
                                    </clipPath>
                                    <g clip-path="url(#_clip4)">
                                        <g transform="matrix(1.28442,0,1.73472e-18,1.28968,-2.09173,-1.94568)">
                                            <ellipse cx="7.677" cy="7.025" rx="0.323" ry="0.308" style="fill:white;"/>
                                        </g>
                                        <g transform="matrix(1.28442,0,1.73472e-18,1.28968,-5.44277,-1.93963)">
                                            <ellipse cx="7.677" cy="7.025" rx="0.323" ry="0.308" style="fill:white;"/>
                                        </g>
                                    </g>
                                </g>
                            </g>
                            <g transform="matrix(0.0103529,0.000103685,0.000902567,0.00983876,-24.2206,0.565794)">
                                <path d="M2745.94,437.183L2854.53,506.631" style="fill:none;stroke:black;stroke-width:25.35px;"/>
                            </g>
                        </g>
                        <g>
                            <g transform="matrix(-0.487956,0.00415536,0.00415536,0.487956,9.14212,2.4444)">
                                <path d="M5.844,7.357C5.844,8.28 5.06,9.244 4.203,8.903C4.059,8.845 2.481,8.28 2.481,7.357C2.481,6.565 3.04,5.894 3.782,5.719C3.904,5.69 5.673,6.638 5.794,6.95C5.842,7.075 5.844,7.217 5.844,7.357" style="fill:white;"/>
                                <clipPath id="_clip5">
                                    <path d="M5.844,7.357C5.844,8.28 5.06,9.244 4.203,8.903C4.059,8.845 2.481,8.28 2.481,7.357C2.481,6.565 3.04,5.894 3.782,5.719C3.904,5.69 5.673,6.638 5.794,6.95C5.842,7.075 5.844,7.217 5.844,7.357"/>
                                </clipPath>
                                <g clip-path="url(#_clip5)">
                                    <path d="M4.506,8.299C5.017,8.299 5.437,7.879 5.437,7.368C5.437,6.857 5.017,6.437 4.506,6.437C3.995,6.437 3.574,6.857 3.574,7.368C3.574,7.879 3.995,8.299 4.506,8.299" style="fill:rgb(25,25,25);"/>
                                    <clipPath id="_clip6">
                                        <path d="M4.506,8.299C5.017,8.299 5.437,7.879 5.437,7.368C5.437,6.857 5.017,6.437 4.506,6.437C3.995,6.437 3.574,6.857 3.574,7.368C3.574,7.879 3.995,8.299 4.506,8.299"/>
                                    </clipPath>
                                    <g clip-path="url(#_clip6)">
                                        <g transform="matrix(1.28442,0,1.73472e-18,1.28968,-2.09173,-1.94568)">
                                            <ellipse cx="7.677" cy="7.025" rx="0.323" ry="0.308" style="fill:white;"/>
                                        </g>
                                        <g transform="matrix(1.28442,0,1.73472e-18,1.28968,-5.44277,-1.93963)">
                                            <ellipse cx="7.677" cy="7.025" rx="0.323" ry="0.308" style="fill:white;"/>
                                        </g>
                                    </g>
                                </g>
                            </g>
                            <g transform="matrix(-0.0103529,0.000103685,-0.000902567,0.00983876,36.3163,0.565794)">
                                <path d="M2745.94,437.183L2854.53,506.631" style="fill:none;stroke:black;stroke-width:25.35px;"/>
                            </g>
                        </g>
                    </g>
                </g>
                <g transform="matrix(19.5167,0,0,20.0964,-13.2165,215.036)">
                    <path d="M4.85,1.725C4.85,1.588 4.963,1.475 5.1,1.475L6.9,1.475C7.037,1.475 7.15,1.588 7.15,1.725C7.15,1.862 7.037,1.975 6.9,1.975L6.25,1.975L6.25,2.634C6.994,2.689 7.671,2.984 8.203,3.443L8.684,2.963L8.298,2.577C8.253,2.53 8.228,2.468 8.228,2.403C8.228,2.266 8.341,2.153 8.478,2.153C8.543,2.153 8.605,2.178 8.652,2.223L9.777,3.348C9.822,3.395 9.847,3.457 9.847,3.522C9.847,3.659 9.734,3.772 9.597,3.772C9.532,3.772 9.47,3.747 9.423,3.702L9.038,3.316L8.557,3.797C9.029,4.344 9.313,5.029 9.366,5.75L10.025,5.75L10.025,5.1C10.025,4.963 10.138,4.85 10.275,4.85C10.412,4.85 10.525,4.963 10.525,5.1L10.525,6.9C10.525,7.037 10.412,7.15 10.275,7.15C10.138,7.15 10.025,7.037 10.025,6.9L10.025,6.25L9.366,6.25C9.313,6.971 9.029,7.656 8.557,8.203L9.038,8.684L9.423,8.298C9.47,8.253 9.532,8.228 9.597,8.228C9.734,8.228 9.847,8.341 9.847,8.478C9.847,8.543 9.822,8.605 9.777,8.652L8.652,9.777C8.605,9.822 8.543,9.847 8.478,9.847C8.341,9.847 8.228,9.734 8.228,9.597C8.228,9.532 8.253,9.47 8.298,9.423L8.684,9.038L8.203,8.557C7.656,9.029 6.971,9.313 6.25,9.366L6.25,10.025L6.9,10.025C7.037,10.025 7.15,10.138 7.15,10.275C7.15,10.412 7.037,10.525 6.9,10.525L5.1,10.525C4.963,10.525 4.85,10.412 4.85,10.275C4.85,10.138 4.963,10.025 5.1,10.025L5.75,10.025L5.75,9.366C5.029,9.313 4.344,9.029 3.797,8.557L3.316,9.038L3.702,9.423C3.747,9.47 3.772,9.532 3.772,9.597C3.772,9.734 3.659,9.847 3.522,9.847C3.457,9.847 3.395,9.822 3.348,9.777L2.223,8.652C2.174,8.605 2.147,8.54 2.147,8.472C2.147,8.335 2.26,8.222 2.397,8.222C2.465,8.222 2.53,8.249 2.577,8.298L2.963,8.684L3.443,8.203C2.97,7.656 2.687,6.971 2.634,6.25L1.975,6.25L1.975,6.9C1.975,7.037 1.862,7.15 1.725,7.15C1.588,7.15 1.475,7.037 1.475,6.9L1.475,5.1C1.475,4.963 1.588,4.85 1.725,4.85C1.862,4.85 1.975,4.963 1.975,5.1L1.975,5.75L2.634,5.75C2.687,5.029 2.97,4.344 3.443,3.797L2.963,3.316L2.577,3.702C2.53,3.747 2.468,3.772 2.403,3.772C2.266,3.772 2.153,3.659 2.153,3.522C2.153,3.457 2.178,3.395 2.223,3.348L3.348,2.223C3.395,2.174 3.46,2.147 3.528,2.147C3.665,2.147 3.778,2.26 3.778,2.397C3.778,2.465 3.751,2.53 3.702,2.577L3.316,2.963L3.797,3.443C4.344,2.97 5.029,2.687 5.75,2.634L5.75,1.975L5.1,1.975C4.963,1.975 4.85,1.862 4.85,1.725" style="fill:rgb(87,157,79);"/>
                    <clipPath id="_clip7">
                        <path d="M4.85,1.725C4.85,1.588 4.963,1.475 5.1,1.475L6.9,1.475C7.037,1.475 7.15,1.588 7.15,1.725C7.15,1.862 7.037,1.975 6.9,1.975L6.25,1.975L6.25,2.634C6.994,2.689 7.671,2.984 8.203,3.443L8.684,2.963L8.298,2.577C8.253,2.53 8.228,2.468 8.228,2.403C8.228,2.266 8.341,2.153 8.478,2.153C8.543,2.153 8.605,2.178 8.652,2.223L9.777,3.348C9.822,3.395 9.847,3.457 9.847,3.522C9.847,3.659 9.734,3.772 9.597,3.772C9.532,3.772 9.47,3.747 9.423,3.702L9.038,3.316L8.557,3.797C9.029,4.344 9.313,5.029 9.366,5.75L10.025,5.75L10.025,5.1C10.025,4.963 10.138,4.85 10.275,4.85C10.412,4.85 10.525,4.963 10.525,5.1L10.525,6.9C10.525,7.037 10.412,7.15 10.275,7.15C10.138,7.15 10.025,7.037 10.025,6.9L10.025,6.25L9.366,6.25C9.313,6.971 9.029,7.656 8.557,8.203L9.038,8.684L9.423,8.298C9.47,8.253 9.532,8.228 9.597,8.228C9.734,8.228 9.847,8.341 9.847,8.478C9.847,8.543 9.822,8.605 9.777,8.652L8.652,9.777C8.605,9.822 8.543,9.847 8.478,9.847C8.341,9.847 8.228,9.734 8.228,9.597C8.228,9.532 8.253,9.47 8.298,9.423L8.684,9.038L8.203,8.557C7.656,9.029 6.971,9.313 6.25,9.366L6.25,10.025L6.9,10.025C7.037,10.025 7.15,10.138 7.15,10.275C7.15,10.412 7.037,10.525 6.9,10.525L5.1,10.525C4.963,10.525 4.85,10.412 4.85,10.275C4.85,10.138 4.963,10.025 5.1,10.025L5.75,10.025L5.75,9.366C5.029,9.313 4.344,9.029 3.797,8.557L3.316,9.038L3.702,9.423C3.747,9.47 3.772,9.532 3.772,9.597C3.772,9.734 3.659,9.847 3.522,9.847C3.457,9.847 3.395,9.822 3.348,9.777L2.223,8.652C2.174,8.605 2.147,8.54 2.147,8.472C2.147,8.335 2.26,8.222 2.397,8.222C2.465,8.222 2.53,8.249 2.577,8.298L2.963,8.684L3.443,8.203C2.97,7.656 2.687,6.971 2.634,6.25L1.975,6.25L1.975,6.9C1.975,7.037 1.862,7.15 1.725,7.15C1.588,7.15 1.475,7.037 1.475,6.9L1.475,5.1C1.475,4.963 1.588,4.85 1.725,4.85C1.862,4.85 1.975,4.963 1.975,5.1L1.975,5.75L2.634,5.75C2.687,5.029 2.97,4.344 3.443,3.797L2.963,3.316L2.577,3.702C2.53,3.747 2.468,3.772 2.403,3.772C2.266,3.772 2.153,3.659 2.153,3.522C2.153,3.457 2.178,3.395 2.223,3.348L3.348,2.223C3.395,2.174 3.46,2.147 3.528,2.147C3.665,2.147 3.778,2.26 3.778,2.397C3.778,2.465 3.751,2.53 3.702,2.577L3.316,2.963L3.797,3.443C4.344,2.97 5.029,2.687 5.75,2.634L5.75,1.975L5.1,1.975C4.963,1.975 4.85,1.862 4.85,1.725"/>
                    </clipPath>
                    <g clip-path="url(#_clip7)">
                        <g transform="matrix(0.00953872,0,0,0.00953872,-21.5223,0.849091)">
                            <path d="M2931.46,666.048C2945.7,664.767 2959.84,669.37 2970.41,678.729C2980.98,688.088 2987.01,701.337 2987.01,715.228C2987.28,715.271 2987.28,715.313 2987.28,715.355C2987.28,732.253 2975.5,747.009 2958.65,751.224C2915.24,761.966 2872.05,763.176 2829.05,755.028C2802.19,750.098 2782.74,727.302 2782.74,700.751C2782.61,700.749 2782.61,700.747 2782.61,700.745C2782.61,690.308 2787.19,680.365 2795.2,673.404C2803.21,666.443 2813.89,663.123 2824.57,664.275C2861.12,668.175 2896.76,668.747 2931.46,666.048Z" style="fill:white;"/>
                            <clipPath id="_clip8">
                                <path d="M2931.46,666.048C2945.7,664.767 2959.84,669.37 2970.41,678.729C2980.98,688.088 2987.01,701.337 2987.01,715.228C2987.28,715.271 2987.28,715.313 2987.28,715.355C2987.28,732.253 2975.5,747.009 2958.65,751.224C2915.24,761.966 2872.05,763.176 2829.05,755.028C2802.19,750.098 2782.74,727.302 2782.74,700.751C2782.61,700.749 2782.61,700.747 2782.61,700.745C2782.61,690.308 2787.19,680.365 2795.2,673.404C2803.21,666.443 2813.89,663.123 2824.57,664.275C2861.12,668.175 2896.76,668.747 2931.46,666.048Z"/>
                            </clipPath>
                            <g clip-path="url(#_clip8)">
                                <path d="M2840.88,665.875L2840.88,760.327" style="fill:none;stroke:black;stroke-width:14.53px;"/>
                                <path d="M2930.87,665.875L2930.87,760.327" style="fill:none;stroke:black;stroke-width:14.53px;"/>
                            </g>
                            <path d="M2931.46,666.048C2945.7,664.767 2959.84,669.37 2970.41,678.729C2980.98,688.088 2987.01,701.337 2987.01,715.228C2987.28,715.271 2987.28,715.313 2987.28,715.355C2987.28,732.253 2975.5,747.009 2958.65,751.224C2915.24,761.966 2872.05,763.176 2829.05,755.028C2802.19,750.098 2782.74,727.302 2782.74,700.751C2782.61,700.749 2782.61,700.747 2782.61,700.745C2782.61,690.308 2787.19,680.365 2795.2,673.404C2803.21,666.443 2813.89,663.123 2824.57,664.275C2861.12,668.175 2896.76,668.747 2931.46,666.048Z" style="fill:none;stroke:black;stroke-width:14.53px;"/>
                        </g>
                        <g>
                            <g transform="matrix(0.487956,0.00415536,-0.00415536,0.487956,2.95366,2.4444)">
                                <path d="M5.844,7.357C5.844,8.28 5.06,9.244 4.203,8.903C4.059,8.845 2.481,8.28 2.481,7.357C2.481,6.565 3.04,5.894 3.782,5.719C3.904,5.69 5.673,6.638 5.794,6.95C5.842,7.075 5.844,7.217 5.844,7.357" style="fill:white;"/>
                                <clipPath id="_clip9">
                                    <path d="M5.844,7.357C5.844,8.28 5.06,9.244 4.203,8.903C4.059,8.845 2.481,8.28 2.481,7.357C2.481,6.565 3.04,5.894 3.782,5.719C3.904,5.69 5.673,6.638 5.794,6.95C5.842,7.075 5.844,7.217 5.844,7.357"/>
                                </clipPath>
                                <g clip-path="url(#_clip9)">
                                    <path d="M4.506,8.299C5.017,8.299 5.437,7.879 5.437,7.368C5.437,6.857 5.017,6.437 4.506,6.437C3.995,6.437 3.574,6.857 3.574,7.368C3.574,7.879 3.995,8.299 4.506,8.299" style="fill:rgb(25,25,25);"/>
                                    <clipPath id="_clip10">
                                        <path d="M4.506,8.299C5.017,8.299 5.437,7.879 5.437,7.368C5.437,6.857 5.017,6.437 4.506,6.437C3.995,6.437 3.574,6.857 3.574,7.368C3.574,7.879 3.995,8.299 4.506,8.299"/>
                                    </clipPath>
                                    <g clip-path="url(#_clip10)">
                                        <g transform="matrix(1.28442,0,1.73472e-18,1.28968,-2.09173,-1.94568)">
                                            <ellipse cx="7.677" cy="7.025" rx="0.323" ry="0.308" style="fill:white;"/>
                                        </g>
                                        <g transform="matrix(1.28442,0,1.73472e-18,1.28968,-5.44277,-1.93963)">
                                            <ellipse cx="7.677" cy="7.025" rx="0.323" ry="0.308" style="fill:white;"/>
                                        </g>
                                    </g>
                                </g>
                            </g>
                            <g transform="matrix(0.0103529,0.000103685,0.000902567,0.00983876,-24.2206,0.565794)">
                                <path d="M2745.94,437.183L2854.53,506.631" style="fill:none;stroke:black;stroke-width:25.35px;"/>
                            </g>
                        </g>
                        <g>
                            <g transform="matrix(-0.487956,0.00415536,0.00415536,0.487956,9.14212,2.4444)">
                                <path d="M5.844,7.357C5.844,8.28 5.06,9.244 4.203,8.903C4.059,8.845 2.481,8.28 2.481,7.357C2.481,6.565 3.04,5.894 3.782,5.719C3.904,5.69 5.673,6.638 5.794,6.95C5.842,7.075 5.844,7.217 5.844,7.357" style="fill:white;"/>
                                <clipPath id="_clip11">
                                    <path d="M5.844,7.357C5.844,8.28 5.06,9.244 4.203,8.903C4.059,8.845 2.481,8.28 2.481,7.357C2.481,6.565 3.04,5.894 3.782,5.719C3.904,5.69 5.673,6.638 5.794,6.95C5.842,7.075 5.844,7.217 5.844,7.357"/>
                                </clipPath>
                                <g clip-path="url(#_clip11)">
                                    <path d="M4.506,8.299C5.017,8.299 5.437,7.879 5.437,7.368C5.437,6.857 5.017,6.437 4.506,6.437C3.995,6.437 3.574,6.857 3.574,7.368C3.574,7.879 3.995,8.299 4.506,8.299" style="fill:rgb(25,25,25);"/>
                                    <clipPath id="_clip12">
                                        <path d="M4.506,8.299C5.017,8.299 5.437,7.879 5.437,7.368C5.437,6.857 5.017,6.437 4.506,6.437C3.995,6.437 3.574,6.857 3.574,7.368C3.574,7.879 3.995,8.299 4.506,8.299"/>
                                    </clipPath>
                                    <g clip-path="url(#_clip12)">
                                        <g transform="matrix(1.28442,0,1.73472e-18,1.28968,-2.09173,-1.94568)">
                                            <ellipse cx="7.677" cy="7.025" rx="0.323" ry="0.308" style="fill:white;"/>
                                        </g>
                                        <g transform="matrix(1.28442,0,1.73472e-18,1.28968,-5.44277,-1.93963)">
                                            <ellipse cx="7.677" cy="7.025" rx="0.323" ry="0.308" style="fill:white;"/>
                                        </g>
                                    </g>
                                </g>
                            </g>
                            <g transform="matrix(-0.0103529,0.000103685,-0.000902567,0.00983876,36.3163,0.565794)">
                                <path d="M2745.94,437.183L2854.53,506.631" style="fill:none;stroke:black;stroke-width:25.35px;"/>
                            </g>
                        </g>
                    </g>
                </g>
                <g transform="matrix(19.3133,0,0,18.4692,69.3645,748.063)">
                    <path d="M4.85,1.725C4.85,1.588 4.963,1.475 5.1,1.475L6.9,1.475C7.037,1.475 7.15,1.588 7.15,1.725C7.15,1.862 7.037,1.975 6.9,1.975L6.25,1.975L6.25,2.634C6.994,2.689 7.671,2.984 8.203,3.443L8.684,2.963L8.298,2.577C8.253,2.53 8.228,2.468 8.228,2.403C8.228,2.266 8.341,2.153 8.478,2.153C8.543,2.153 8.605,2.178 8.652,2.223L9.777,3.348C9.822,3.395 9.847,3.457 9.847,3.522C9.847,3.659 9.734,3.772 9.597,3.772C9.532,3.772 9.47,3.747 9.423,3.702L9.038,3.316L8.557,3.797C9.029,4.344 9.313,5.029 9.366,5.75L10.025,5.75L10.025,5.1C10.025,4.963 10.138,4.85 10.275,4.85C10.412,4.85 10.525,4.963 10.525,5.1L10.525,6.9C10.525,7.037 10.412,7.15 10.275,7.15C10.138,7.15 10.025,7.037 10.025,6.9L10.025,6.25L9.366,6.25C9.313,6.971 9.029,7.656 8.557,8.203L9.038,8.684L9.423,8.298C9.47,8.253 9.532,8.228 9.597,8.228C9.734,8.228 9.847,8.341 9.847,8.478C9.847,8.543 9.822,8.605 9.777,8.652L8.652,9.777C8.605,9.822 8.543,9.847 8.478,9.847C8.341,9.847 8.228,9.734 8.228,9.597C8.228,9.532 8.253,9.47 8.298,9.423L8.684,9.038L8.203,8.557C7.656,9.029 6.971,9.313 6.25,9.366L6.25,10.025L6.9,10.025C7.037,10.025 7.15,10.138 7.15,10.275C7.15,10.412 7.037,10.525 6.9,10.525L5.1,10.525C4.963,10.525 4.85,10.412 4.85,10.275C4.85,10.138 4.963,10.025 5.1,10.025L5.75,10.025L5.75,9.366C5.029,9.313 4.344,9.029 3.797,8.557L3.316,9.038L3.702,9.423C3.747,9.47 3.772,9.532 3.772,9.597C3.772,9.734 3.659,9.847 3.522,9.847C3.457,9.847 3.395,9.822 3.348,9.777L2.223,8.652C2.174,8.605 2.147,8.54 2.147,8.472C2.147,8.335 2.26,8.222 2.397,8.222C2.465,8.222 2.53,8.249 2.577,8.298L2.963,8.684L3.443,8.203C2.97,7.656 2.687,6.971 2.634,6.25L1.975,6.25L1.975,6.9C1.975,7.037 1.862,7.15 1.725,7.15C1.588,7.15 1.475,7.037 1.475,6.9L1.475,5.1C1.475,4.963 1.588,4.85 1.725,4.85C1.862,4.85 1.975,4.963 1.975,5.1L1.975,5.75L2.634,5.75C2.687,5.029 2.97,4.344 3.443,3.797L2.963,3.316L2.577,3.702C2.53,3.747 2.468,3.772 2.403,3.772C2.266,3.772 2.153,3.659 2.153,3.522C2.153,3.457 2.178,3.395 2.223,3.348L3.348,2.223C3.395,2.174 3.46,2.147 3.528,2.147C3.665,2.147 3.778,2.26 3.778,2.397C3.778,2.465 3.751,2.53 3.702,2.577L3.316,2.963L3.797,3.443C4.344,2.97 5.029,2.687 5.75,2.634L5.75,1.975L5.1,1.975C4.963,1.975 4.85,1.862 4.85,1.725" style="fill:rgb(87,157,79);"/>
                    <clipPath id="_clip13">
                        <path d="M4.85,1.725C4.85,1.588 4.963,1.475 5.1,1.475L6.9,1.475C7.037,1.475 7.15,1.588 7.15,1.725C7.15,1.862 7.037,1.975 6.9,1.975L6.25,1.975L6.25,2.634C6.994,2.689 7.671,2.984 8.203,3.443L8.684,2.963L8.298,2.577C8.253,2.53 8.228,2.468 8.228,2.403C8.228,2.266 8.341,2.153 8.478,2.153C8.543,2.153 8.605,2.178 8.652,2.223L9.777,3.348C9.822,3.395 9.847,3.457 9.847,3.522C9.847,3.659 9.734,3.772 9.597,3.772C9.532,3.772 9.47,3.747 9.423,3.702L9.038,3.316L8.557,3.797C9.029,4.344 9.313,5.029 9.366,5.75L10.025,5.75L10.025,5.1C10.025,4.963 10.138,4.85 10.275,4.85C10.412,4.85 10.525,4.963 10.525,5.1L10.525,6.9C10.525,7.037 10.412,7.15 10.275,7.15C10.138,7.15 10.025,7.037 10.025,6.9L10.025,6.25L9.366,6.25C9.313,6.971 9.029,7.656 8.557,8.203L9.038,8.684L9.423,8.298C9.47,8.253 9.532,8.228 9.597,8.228C9.734,8.228 9.847,8.341 9.847,8.478C9.847,8.543 9.822,8.605 9.777,8.652L8.652,9.777C8.605,9.822 8.543,9.847 8.478,9.847C8.341,9.847 8.228,9.734 8.228,9.597C8.228,9.532 8.253,9.47 8.298,9.423L8.684,9.038L8.203,8.557C7.656,9.029 6.971,9.313 6.25,9.366L6.25,10.025L6.9,10.025C7.037,10.025 7.15,10.138 7.15,10.275C7.15,10.412 7.037,10.525 6.9,10.525L5.1,10.525C4.963,10.525 4.85,10.412 4.85,10.275C4.85,10.138 4.963,10.025 5.1,10.025L5.75,10.025L5.75,9.366C5.029,9.313 4.344,9.029 3.797,8.557L3.316,9.038L3.702,9.423C3.747,9.47 3.772,9.532 3.772,9.597C3.772,9.734 3.659,9.847 3.522,9.847C3.457,9.847 3.395,9.822 3.348,9.777L2.223,8.652C2.174,8.605 2.147,8.54 2.147,8.472C2.147,8.335 2.26,8.222 2.397,8.222C2.465,8.222 2.53,8.249 2.577,8.298L2.963,8.684L3.443,8.203C2.97,7.656 2.687,6.971 2.634,6.25L1.975,6.25L1.975,6.9C1.975,7.037 1.862,7.15 1.725,7.15C1.588,7.15 1.475,7.037 1.475,6.9L1.475,5.1C1.475,4.963 1.588,4.85 1.725,4.85C1.862,4.85 1.975,4.963 1.975,5.1L1.975,5.75L2.634,5.75C2.687,5.029 2.97,4.344 3.443,3.797L2.963,3.316L2.577,3.702C2.53,3.747 2.468,3.772 2.403,3.772C2.266,3.772 2.153,3.659 2.153,3.522C2.153,3.457 2.178,3.395 2.223,3.348L3.348,2.223C3.395,2.174 3.46,2.147 3.528,2.147C3.665,2.147 3.778,2.26 3.778,2.397C3.778,2.465 3.751,2.53 3.702,2.577L3.316,2.963L3.797,3.443C4.344,2.97 5.029,2.687 5.75,2.634L5.75,1.975L5.1,1.975C4.963,1.975 4.85,1.862 4.85,1.725"/>
                    </clipPath>
                    <g clip-path="url(#_clip13)">
                        <g transform="matrix(0.00953872,0,0,0.00953872,-21.5223,0.849091)">
                            <path d="M2933.64,665.874C2947.35,664.583 2960.95,669.381 2971.11,679.094C2981.27,688.807 2987.06,702.54 2987.06,716.936C2987.28,718.382 2987.28,719.797 2987.28,721.173C2987.28,734.208 2978.95,745.636 2966.93,749.09C2919.43,762.137 2872.19,763.793 2825.18,754.269C2800.56,749.398 2782.73,726.896 2782.73,700.686C2782.61,700.683 2782.61,700.68 2782.61,700.677C2782.61,690.205 2786.87,680.227 2794.32,673.229C2801.77,666.232 2811.71,662.874 2821.67,663.995C2860,668.225 2897.33,668.844 2933.64,665.874Z" style="fill:white;"/>
                            <clipPath id="_clip14">
                                <path d="M2933.64,665.874C2947.35,664.583 2960.95,669.381 2971.11,679.094C2981.27,688.807 2987.06,702.54 2987.06,716.936C2987.28,718.382 2987.28,719.797 2987.28,721.173C2987.28,734.208 2978.95,745.636 2966.93,749.09C2919.43,762.137 2872.19,763.793 2825.18,754.269C2800.56,749.398 2782.73,726.896 2782.73,700.686C2782.61,700.683 2782.61,700.68 2782.61,700.677C2782.61,690.205 2786.87,680.227 2794.32,673.229C2801.77,666.232 2811.71,662.874 2821.67,663.995C2860,668.225 2897.33,668.844 2933.64,665.874Z"/>
                            </clipPath>
                            <g clip-path="url(#_clip14)">
                                <path d="M2840.88,665.875L2840.88,760.327" style="fill:none;stroke:black;stroke-width:14.53px;"/>
                                <path d="M2930.87,665.875L2930.87,760.327" style="fill:none;stroke:black;stroke-width:14.53px;"/>
                            </g>
                            <path d="M2933.64,665.874C2947.35,664.583 2960.95,669.381 2971.11,679.094C2981.27,688.807 2987.06,702.54 2987.06,716.936C2987.28,718.382 2987.28,719.797 2987.28,721.173C2987.28,734.208 2978.95,745.636 2966.93,749.09C2919.43,762.137 2872.19,763.793 2825.18,754.269C2800.56,749.398 2782.73,726.896 2782.73,700.686C2782.61,700.683 2782.61,700.68 2782.61,700.677C2782.61,690.205 2786.87,680.227 2794.32,673.229C2801.77,666.232 2811.71,662.874 2821.67,663.995C2860,668.225 2897.33,668.844 2933.64,665.874Z" style="fill:none;stroke:black;stroke-width:14.53px;"/>
                        </g>
                        <g>
                            <g transform="matrix(0.487956,0.00415536,-0.00415536,0.487956,2.95366,2.4444)">
                                <path d="M5.844,7.357C5.844,8.28 5.06,9.244 4.203,8.903C4.059,8.845 2.481,8.28 2.481,7.357C2.481,6.565 3.04,5.894 3.782,5.719C3.904,5.69 5.673,6.638 5.794,6.95C5.842,7.075 5.844,7.217 5.844,7.357" style="fill:white;"/>
                                <clipPath id="_clip15">
                                    <path d="M5.844,7.357C5.844,8.28 5.06,9.244 4.203,8.903C4.059,8.845 2.481,8.28 2.481,7.357C2.481,6.565 3.04,5.894 3.782,5.719C3.904,5.69 5.673,6.638 5.794,6.95C5.842,7.075 5.844,7.217 5.844,7.357"/>
                                </clipPath>
                                <g clip-path="url(#_clip15)">
                                    <path d="M4.506,8.299C5.017,8.299 5.437,7.879 5.437,7.368C5.437,6.857 5.017,6.437 4.506,6.437C3.995,6.437 3.574,6.857 3.574,7.368C3.574,7.879 3.995,8.299 4.506,8.299" style="fill:rgb(25,25,25);"/>
                                    <clipPath id="_clip16">
                                        <path d="M4.506,8.299C5.017,8.299 5.437,7.879 5.437,7.368C5.437,6.857 5.017,6.437 4.506,6.437C3.995,6.437 3.574,6.857 3.574,7.368C3.574,7.879 3.995,8.299 4.506,8.299"/>
                                    </clipPath>
                                    <g clip-path="url(#_clip16)">
                                        <g transform="matrix(1.28442,0,1.73472e-18,1.28968,-2.09173,-1.94568)">
                                            <ellipse cx="7.677" cy="7.025" rx="0.323" ry="0.308" style="fill:white;"/>
                                        </g>
                                        <g transform="matrix(1.28442,0,1.73472e-18,1.28968,-5.44277,-1.93963)">
                                            <ellipse cx="7.677" cy="7.025" rx="0.323" ry="0.308" style="fill:white;"/>
                                        </g>
                                    </g>
                                </g>
                            </g>
                            <g transform="matrix(0.0103529,0.000103685,0.000902567,0.00983876,-24.2206,0.565794)">
                                <path d="M2745.94,437.183L2854.53,506.631" style="fill:none;stroke:black;stroke-width:25.35px;"/>
                            </g>
                        </g>
                        <g>
                            <g transform="matrix(-0.487956,0.00415536,0.00415536,0.487956,9.14212,2.4444)">
                                <path d="M5.844,7.357C5.844,8.28 5.06,9.244 4.203,8.903C4.059,8.845 2.481,8.28 2.481,7.357C2.481,6.565 3.04,5.894 3.782,5.719C3.904,5.69 5.673,6.638 5.794,6.95C5.842,7.075 5.844,7.217 5.844,7.357" style="fill:white;"/>
                                <clipPath id="_clip17">
                                    <path d="M5.844,7.357C5.844,8.28 5.06,9.244 4.203,8.903C4.059,8.845 2.481,8.28 2.481,7.357C2.481,6.565 3.04,5.894 3.782,5.719C3.904,5.69 5.673,6.638 5.794,6.95C5.842,7.075 5.844,7.217 5.844,7.357"/>
                                </clipPath>
                                <g clip-path="url(#_clip17)">
                                    <path d="M4.506,8.299C5.017,8.299 5.437,7.879 5.437,7.368C5.437,6.857 5.017,6.437 4.506,6.437C3.995,6.437 3.574,6.857 3.574,7.368C3.574,7.879 3.995,8.299 4.506,8.299" style="fill:rgb(25,25,25);"/>
                                    <clipPath id="_clip18">
                                        <path d="M4.506,8.299C5.017,8.299 5.437,7.879 5.437,7.368C5.437,6.857 5.017,6.437 4.506,6.437C3.995,6.437 3.574,6.857 3.574,7.368C3.574,7.879 3.995,8.299 4.506,8.299"/>
                                    </clipPath>
                                    <g clip-path="url(#_clip18)">
                                        <g transform="matrix(1.28442,0,1.73472e-18,1.28968,-2.09173,-1.94568)">
                                            <ellipse cx="7.677" cy="7.025" rx="0.323" ry="0.308" style="fill:white;"/>
                                        </g>
                                        <g transform="matrix(1.28442,0,1.73472e-18,1.28968,-5.44277,-1.93963)">
                                            <ellipse cx="7.677" cy="7.025" rx="0.323" ry="0.308" style="fill:white;"/>
                                        </g>
                                    </g>
                                </g>
                            </g>
                            <g transform="matrix(-0.0103529,0.000103685,-0.000902567,0.00983876,36.3163,0.565794)">
                                <path d="M2745.94,437.183L2854.53,506.631" style="fill:none;stroke:black;stroke-width:25.35px;"/>
                            </g>
                        </g>
                    </g>
                </g>
                <g transform="matrix(15.7308,0,0,15.0433,909.421,804.139)">
                    <path d="M4.85,1.725C4.85,1.588 4.963,1.475 5.1,1.475L6.9,1.475C7.037,1.475 7.15,1.588 7.15,1.725C7.15,1.862 7.037,1.975 6.9,1.975L6.25,1.975L6.25,2.634C6.994,2.689 7.671,2.984 8.203,3.443L8.684,2.963L8.298,2.577C8.253,2.53 8.228,2.468 8.228,2.403C8.228,2.266 8.341,2.153 8.478,2.153C8.543,2.153 8.605,2.178 8.652,2.223L9.777,3.348C9.822,3.395 9.847,3.457 9.847,3.522C9.847,3.659 9.734,3.772 9.597,3.772C9.532,3.772 9.47,3.747 9.423,3.702L9.038,3.316L8.557,3.797C9.029,4.344 9.313,5.029 9.366,5.75L10.025,5.75L10.025,5.1C10.025,4.963 10.138,4.85 10.275,4.85C10.412,4.85 10.525,4.963 10.525,5.1L10.525,6.9C10.525,7.037 10.412,7.15 10.275,7.15C10.138,7.15 10.025,7.037 10.025,6.9L10.025,6.25L9.366,6.25C9.313,6.971 9.029,7.656 8.557,8.203L9.038,8.684L9.423,8.298C9.47,8.253 9.532,8.228 9.597,8.228C9.734,8.228 9.847,8.341 9.847,8.478C9.847,8.543 9.822,8.605 9.777,8.652L8.652,9.777C8.605,9.822 8.543,9.847 8.478,9.847C8.341,9.847 8.228,9.734 8.228,9.597C8.228,9.532 8.253,9.47 8.298,9.423L8.684,9.038L8.203,8.557C7.656,9.029 6.971,9.313 6.25,9.366L6.25,10.025L6.9,10.025C7.037,10.025 7.15,10.138 7.15,10.275C7.15,10.412 7.037,10.525 6.9,10.525L5.1,10.525C4.963,10.525 4.85,10.412 4.85,10.275C4.85,10.138 4.963,10.025 5.1,10.025L5.75,10.025L5.75,9.366C5.029,9.313 4.344,9.029 3.797,8.557L3.316,9.038L3.702,9.423C3.747,9.47 3.772,9.532 3.772,9.597C3.772,9.734 3.659,9.847 3.522,9.847C3.457,9.847 3.395,9.822 3.348,9.777L2.223,8.652C2.174,8.605 2.147,8.54 2.147,8.472C2.147,8.335 2.26,8.222 2.397,8.222C2.465,8.222 2.53,8.249 2.577,8.298L2.963,8.684L3.443,8.203C2.97,7.656 2.687,6.971 2.634,6.25L1.975,6.25L1.975,6.9C1.975,7.037 1.862,7.15 1.725,7.15C1.588,7.15 1.475,7.037 1.475,6.9L1.475,5.1C1.475,4.963 1.588,4.85 1.725,4.85C1.862,4.85 1.975,4.963 1.975,5.1L1.975,5.75L2.634,5.75C2.687,5.029 2.97,4.344 3.443,3.797L2.963,3.316L2.577,3.702C2.53,3.747 2.468,3.772 2.403,3.772C2.266,3.772 2.153,3.659 2.153,3.522C2.153,3.457 2.178,3.395 2.223,3.348L3.348,2.223C3.395,2.174 3.46,2.147 3.528,2.147C3.665,2.147 3.778,2.26 3.778,2.397C3.778,2.465 3.751,2.53 3.702,2.577L3.316,2.963L3.797,3.443C4.344,2.97 5.029,2.687 5.75,2.634L5.75,1.975L5.1,1.975C4.963,1.975 4.85,1.862 4.85,1.725" style="fill:rgb(87,157,79);"/>
                    <clipPath id="_clip19">
                        <path d="M4.85,1.725C4.85,1.588 4.963,1.475 5.1,1.475L6.9,1.475C7.037,1.475 7.15,1.588 7.15,1.725C7.15,1.862 7.037,1.975 6.9,1.975L6.25,1.975L6.25,2.634C6.994,2.689 7.671,2.984 8.203,3.443L8.684,2.963L8.298,2.577C8.253,2.53 8.228,2.468 8.228,2.403C8.228,2.266 8.341,2.153 8.478,2.153C8.543,2.153 8.605,2.178 8.652,2.223L9.777,3.348C9.822,3.395 9.847,3.457 9.847,3.522C9.847,3.659 9.734,3.772 9.597,3.772C9.532,3.772 9.47,3.747 9.423,3.702L9.038,3.316L8.557,3.797C9.029,4.344 9.313,5.029 9.366,5.75L10.025,5.75L10.025,5.1C10.025,4.963 10.138,4.85 10.275,4.85C10.412,4.85 10.525,4.963 10.525,5.1L10.525,6.9C10.525,7.037 10.412,7.15 10.275,7.15C10.138,7.15 10.025,7.037 10.025,6.9L10.025,6.25L9.366,6.25C9.313,6.971 9.029,7.656 8.557,8.203L9.038,8.684L9.423,8.298C9.47,8.253 9.532,8.228 9.597,8.228C9.734,8.228 9.847,8.341 9.847,8.478C9.847,8.543 9.822,8.605 9.777,8.652L8.652,9.777C8.605,9.822 8.543,9.847 8.478,9.847C8.341,9.847 8.228,9.734 8.228,9.597C8.228,9.532 8.253,9.47 8.298,9.423L8.684,9.038L8.203,8.557C7.656,9.029 6.971,9.313 6.25,9.366L6.25,10.025L6.9,10.025C7.037,10.025 7.15,10.138 7.15,10.275C7.15,10.412 7.037,10.525 6.9,10.525L5.1,10.525C4.963,10.525 4.85,10.412 4.85,10.275C4.85,10.138 4.963,10.025 5.1,10.025L5.75,10.025L5.75,9.366C5.029,9.313 4.344,9.029 3.797,8.557L3.316,9.038L3.702,9.423C3.747,9.47 3.772,9.532 3.772,9.597C3.772,9.734 3.659,9.847 3.522,9.847C3.457,9.847 3.395,9.822 3.348,9.777L2.223,8.652C2.174,8.605 2.147,8.54 2.147,8.472C2.147,8.335 2.26,8.222 2.397,8.222C2.465,8.222 2.53,8.249 2.577,8.298L2.963,8.684L3.443,8.203C2.97,7.656 2.687,6.971 2.634,6.25L1.975,6.25L1.975,6.9C1.975,7.037 1.862,7.15 1.725,7.15C1.588,7.15 1.475,7.037 1.475,6.9L1.475,5.1C1.475,4.963 1.588,4.85 1.725,4.85C1.862,4.85 1.975,4.963 1.975,5.1L1.975,5.75L2.634,5.75C2.687,5.029 2.97,4.344 3.443,3.797L2.963,3.316L2.577,3.702C2.53,3.747 2.468,3.772 2.403,3.772C2.266,3.772 2.153,3.659 2.153,3.522C2.153,3.457 2.178,3.395 2.223,3.348L3.348,2.223C3.395,2.174 3.46,2.147 3.528,2.147C3.665,2.147 3.778,2.26 3.778,2.397C3.778,2.465 3.751,2.53 3.702,2.577L3.316,2.963L3.797,3.443C4.344,2.97 5.029,2.687 5.75,2.634L5.75,1.975L5.1,1.975C4.963,1.975 4.85,1.862 4.85,1.725"/>
                    </clipPath>
                    <g clip-path="url(#_clip19)">
                        <g transform="matrix(0.00953872,0,0,0.00953872,-21.5223,0.849091)">
                            <path d="M2936.43,665.638C2949.41,664.348 2962.3,668.84 2971.94,678.01C2981.59,687.18 2987.08,700.176 2987.08,713.805C2987.28,714.594 2987.28,715.375 2987.28,716.149C2987.28,732.341 2976.81,746.488 2961.83,750.556C2916.1,762.222 2870.65,763.446 2825.41,754.314C2800.66,749.439 2782.73,726.83 2782.73,700.491C2782.61,700.486 2782.61,700.48 2782.61,700.475C2782.61,690.053 2786.85,680.123 2794.27,673.16C2801.68,666.197 2811.58,662.858 2821.49,663.975C2860.87,668.33 2899.19,668.879 2936.43,665.638Z" style="fill:white;"/>
                            <clipPath id="_clip20">
                                <path d="M2936.43,665.638C2949.41,664.348 2962.3,668.84 2971.94,678.01C2981.59,687.18 2987.08,700.176 2987.08,713.805C2987.28,714.594 2987.28,715.375 2987.28,716.149C2987.28,732.341 2976.81,746.488 2961.83,750.556C2916.1,762.222 2870.65,763.446 2825.41,754.314C2800.66,749.439 2782.73,726.83 2782.73,700.491C2782.61,700.486 2782.61,700.48 2782.61,700.475C2782.61,690.053 2786.85,680.123 2794.27,673.16C2801.68,666.197 2811.58,662.858 2821.49,663.975C2860.87,668.33 2899.19,668.879 2936.43,665.638Z"/>
                            </clipPath>
                            <g clip-path="url(#_clip20)">
                                <path d="M2840.88,665.875L2840.88,760.327" style="fill:none;stroke:black;stroke-width:14.53px;"/>
                                <path d="M2930.87,665.875L2930.87,760.327" style="fill:none;stroke:black;stroke-width:14.53px;"/>
                            </g>
                            <path d="M2936.43,665.638C2949.41,664.348 2962.3,668.84 2971.94,678.01C2981.59,687.18 2987.08,700.176 2987.08,713.805C2987.28,714.594 2987.28,715.375 2987.28,716.149C2987.28,732.341 2976.81,746.488 2961.83,750.556C2916.1,762.222 2870.65,763.446 2825.41,754.314C2800.66,749.439 2782.73,726.83 2782.73,700.491C2782.61,700.486 2782.61,700.48 2782.61,700.475C2782.61,690.053 2786.85,680.123 2794.27,673.16C2801.68,666.197 2811.58,662.858 2821.49,663.975C2860.87,668.33 2899.19,668.879 2936.43,665.638Z" style="fill:none;stroke:black;stroke-width:14.53px;"/>
                        </g>
                        <g>
                            <g transform="matrix(0.487956,0.00415536,-0.00415536,0.487956,2.95366,2.4444)">
                                <path d="M5.844,7.357C5.844,8.28 5.06,9.244 4.203,8.903C4.059,8.845 2.481,8.28 2.481,7.357C2.481,6.565 3.04,5.894 3.782,5.719C3.904,5.69 5.673,6.638 5.794,6.95C5.842,7.075 5.844,7.217 5.844,7.357" style="fill:white;"/>
                                <clipPath id="_clip21">
                                    <path d="M5.844,7.357C5.844,8.28 5.06,9.244 4.203,8.903C4.059,8.845 2.481,8.28 2.481,7.357C2.481,6.565 3.04,5.894 3.782,5.719C3.904,5.69 5.673,6.638 5.794,6.95C5.842,7.075 5.844,7.217 5.844,7.357"/>
                                </clipPath>
                                <g clip-path="url(#_clip21)">
                                    <path d="M4.506,8.299C5.017,8.299 5.437,7.879 5.437,7.368C5.437,6.857 5.017,6.437 4.506,6.437C3.995,6.437 3.574,6.857 3.574,7.368C3.574,7.879 3.995,8.299 4.506,8.299" style="fill:rgb(25,25,25);"/>
                                    <clipPath id="_clip22">
                                        <path d="M4.506,8.299C5.017,8.299 5.437,7.879 5.437,7.368C5.437,6.857 5.017,6.437 4.506,6.437C3.995,6.437 3.574,6.857 3.574,7.368C3.574,7.879 3.995,8.299 4.506,8.299"/>
                                    </clipPath>
                                    <g clip-path="url(#_clip22)">
                                        <g transform="matrix(1.28442,0,1.73472e-18,1.28968,-2.09173,-1.94568)">
                                            <ellipse cx="7.677" cy="7.025" rx="0.323" ry="0.308" style="fill:white;"/>
                                        </g>
                                        <g transform="matrix(1.28442,0,1.73472e-18,1.28968,-5.44277,-1.93963)">
                                            <ellipse cx="7.677" cy="7.025" rx="0.323" ry="0.308" style="fill:white;"/>
                                        </g>
                                    </g>
                                </g>
                            </g>
                            <g transform="matrix(0.0103529,0.000103685,0.000902567,0.00983876,-24.2206,0.565794)">
                                <path d="M2745.94,437.183L2854.53,506.631" style="fill:none;stroke:black;stroke-width:25.35px;"/>
                            </g>
                        </g>
                        <g>
                            <g transform="matrix(-0.487956,0.00415536,0.00415536,0.487956,9.14212,2.4444)">
                                <path d="M5.844,7.357C5.844,8.28 5.06,9.244 4.203,8.903C4.059,8.845 2.481,8.28 2.481,7.357C2.481,6.565 3.04,5.894 3.782,5.719C3.904,5.69 5.673,6.638 5.794,6.95C5.842,7.075 5.844,7.217 5.844,7.357" style="fill:white;"/>
                                <clipPath id="_clip23">
                                    <path d="M5.844,7.357C5.844,8.28 5.06,9.244 4.203,8.903C4.059,8.845 2.481,8.28 2.481,7.357C2.481,6.565 3.04,5.894 3.782,5.719C3.904,5.69 5.673,6.638 5.794,6.95C5.842,7.075 5.844,7.217 5.844,7.357"/>
                                </clipPath>
                                <g clip-path="url(#_clip23)">
                                    <path d="M4.506,8.299C5.017,8.299 5.437,7.879 5.437,7.368C5.437,6.857 5.017,6.437 4.506,6.437C3.995,6.437 3.574,6.857 3.574,7.368C3.574,7.879 3.995,8.299 4.506,8.299" style="fill:rgb(25,25,25);"/>
                                    <clipPath id="_clip24">
                                        <path d="M4.506,8.299C5.017,8.299 5.437,7.879 5.437,7.368C5.437,6.857 5.017,6.437 4.506,6.437C3.995,6.437 3.574,6.857 3.574,7.368C3.574,7.879 3.995,8.299 4.506,8.299"/>
                                    </clipPath>
                                    <g clip-path="url(#_clip24)">
                                        <g transform="matrix(1.28442,0,1.73472e-18,1.28968,-2.09173,-1.94568)">
                                            <ellipse cx="7.677" cy="7.025" rx="0.323" ry="0.308" style="fill:white;"/>
                                        </g>
                                        <g transform="matrix(1.28442,0,1.73472e-18,1.28968,-5.44277,-1.93963)">
                                            <ellipse cx="7.677" cy="7.025" rx="0.323" ry="0.308" style="fill:white;"/>
                                        </g>
                                    </g>
                                </g>
                            </g>
                            <g transform="matrix(-0.0103529,0.000103685,-0.000902567,0.00983876,36.3163,0.565794)">
                                <path d="M2745.94,437.183L2854.53,506.631" style="fill:none;stroke:black;stroke-width:25.35px;"/>
                            </g>
                        </g>
                    </g>
                </g>
                <g transform="matrix(13.9599,0,0,12.4332,-9.03816,533.752)">
                    <path d="M4.85,1.725C4.85,1.588 4.963,1.475 5.1,1.475L6.9,1.475C7.037,1.475 7.15,1.588 7.15,1.725C7.15,1.862 7.037,1.975 6.9,1.975L6.25,1.975L6.25,2.634C6.994,2.689 7.671,2.984 8.203,3.443L8.684,2.963L8.298,2.577C8.253,2.53 8.228,2.468 8.228,2.403C8.228,2.266 8.341,2.153 8.478,2.153C8.543,2.153 8.605,2.178 8.652,2.223L9.777,3.348C9.822,3.395 9.847,3.457 9.847,3.522C9.847,3.659 9.734,3.772 9.597,3.772C9.532,3.772 9.47,3.747 9.423,3.702L9.038,3.316L8.557,3.797C9.029,4.344 9.313,5.029 9.366,5.75L10.025,5.75L10.025,5.1C10.025,4.963 10.138,4.85 10.275,4.85C10.412,4.85 10.525,4.963 10.525,5.1L10.525,6.9C10.525,7.037 10.412,7.15 10.275,7.15C10.138,7.15 10.025,7.037 10.025,6.9L10.025,6.25L9.366,6.25C9.313,6.971 9.029,7.656 8.557,8.203L9.038,8.684L9.423,8.298C9.47,8.253 9.532,8.228 9.597,8.228C9.734,8.228 9.847,8.341 9.847,8.478C9.847,8.543 9.822,8.605 9.777,8.652L8.652,9.777C8.605,9.822 8.543,9.847 8.478,9.847C8.341,9.847 8.228,9.734 8.228,9.597C8.228,9.532 8.253,9.47 8.298,9.423L8.684,9.038L8.203,8.557C7.656,9.029 6.971,9.313 6.25,9.366L6.25,10.025L6.9,10.025C7.037,10.025 7.15,10.138 7.15,10.275C7.15,10.412 7.037,10.525 6.9,10.525L5.1,10.525C4.963,10.525 4.85,10.412 4.85,10.275C4.85,10.138 4.963,10.025 5.1,10.025L5.75,10.025L5.75,9.366C5.029,9.313 4.344,9.029 3.797,8.557L3.316,9.038L3.702,9.423C3.747,9.47 3.772,9.532 3.772,9.597C3.772,9.734 3.659,9.847 3.522,9.847C3.457,9.847 3.395,9.822 3.348,9.777L2.223,8.652C2.174,8.605 2.147,8.54 2.147,8.472C2.147,8.335 2.26,8.222 2.397,8.222C2.465,8.222 2.53,8.249 2.577,8.298L2.963,8.684L3.443,8.203C2.97,7.656 2.687,6.971 2.634,6.25L1.975,6.25L1.975,6.9C1.975,7.037 1.862,7.15 1.725,7.15C1.588,7.15 1.475,7.037 1.475,6.9L1.475,5.1C1.475,4.963 1.588,4.85 1.725,4.85C1.862,4.85 1.975,4.963 1.975,5.1L1.975,5.75L2.634,5.75C2.687,5.029 2.97,4.344 3.443,3.797L2.963,3.316L2.577,3.702C2.53,3.747 2.468,3.772 2.403,3.772C2.266,3.772 2.153,3.659 2.153,3.522C2.153,3.457 2.178,3.395 2.223,3.348L3.348,2.223C3.395,2.174 3.46,2.147 3.528,2.147C3.665,2.147 3.778,2.26 3.778,2.397C3.778,2.465 3.751,2.53 3.702,2.577L3.316,2.963L3.797,3.443C4.344,2.97 5.029,2.687 5.75,2.634L5.75,1.975L5.1,1.975C4.963,1.975 4.85,1.862 4.85,1.725" style="fill:rgb(87,157,79);"/>
                    <clipPath id="_clip25">
                        <path d="M4.85,1.725C4.85,1.588 4.963,1.475 5.1,1.475L6.9,1.475C7.037,1.475 7.15,1.588 7.15,1.725C7.15,1.862 7.037,1.975 6.9,1.975L6.25,1.975L6.25,2.634C6.994,2.689 7.671,2.984 8.203,3.443L8.684,2.963L8.298,2.577C8.253,2.53 8.228,2.468 8.228,2.403C8.228,2.266 8.341,2.153 8.478,2.153C8.543,2.153 8.605,2.178 8.652,2.223L9.777,3.348C9.822,3.395 9.847,3.457 9.847,3.522C9.847,3.659 9.734,3.772 9.597,3.772C9.532,3.772 9.47,3.747 9.423,3.702L9.038,3.316L8.557,3.797C9.029,4.344 9.313,5.029 9.366,5.75L10.025,5.75L10.025,5.1C10.025,4.963 10.138,4.85 10.275,4.85C10.412,4.85 10.525,4.963 10.525,5.1L10.525,6.9C10.525,7.037 10.412,7.15 10.275,7.15C10.138,7.15 10.025,7.037 10.025,6.9L10.025,6.25L9.366,6.25C9.313,6.971 9.029,7.656 8.557,8.203L9.038,8.684L9.423,8.298C9.47,8.253 9.532,8.228 9.597,8.228C9.734,8.228 9.847,8.341 9.847,8.478C9.847,8.543 9.822,8.605 9.777,8.652L8.652,9.777C8.605,9.822 8.543,9.847 8.478,9.847C8.341,9.847 8.228,9.734 8.228,9.597C8.228,9.532 8.253,9.47 8.298,9.423L8.684,9.038L8.203,8.557C7.656,9.029 6.971,9.313 6.25,9.366L6.25,10.025L6.9,10.025C7.037,10.025 7.15,10.138 7.15,10.275C7.15,10.412 7.037,10.525 6.9,10.525L5.1,10.525C4.963,10.525 4.85,10.412 4.85,10.275C4.85,10.138 4.963,10.025 5.1,10.025L5.75,10.025L5.75,9.366C5.029,9.313 4.344,9.029 3.797,8.557L3.316,9.038L3.702,9.423C3.747,9.47 3.772,9.532 3.772,9.597C3.772,9.734 3.659,9.847 3.522,9.847C3.457,9.847 3.395,9.822 3.348,9.777L2.223,8.652C2.174,8.605 2.147,8.54 2.147,8.472C2.147,8.335 2.26,8.222 2.397,8.222C2.465,8.222 2.53,8.249 2.577,8.298L2.963,8.684L3.443,8.203C2.97,7.656 2.687,6.971 2.634,6.25L1.975,6.25L1.975,6.9C1.975,7.037 1.862,7.15 1.725,7.15C1.588,7.15 1.475,7.037 1.475,6.9L1.475,5.1C1.475,4.963 1.588,4.85 1.725,4.85C1.862,4.85 1.975,4.963 1.975,5.1L1.975,5.75L2.634,5.75C2.687,5.029 2.97,4.344 3.443,3.797L2.963,3.316L2.577,3.702C2.53,3.747 2.468,3.772 2.403,3.772C2.266,3.772 2.153,3.659 2.153,3.522C2.153,3.457 2.178,3.395 2.223,3.348L3.348,2.223C3.395,2.174 3.46,2.147 3.528,2.147C3.665,2.147 3.778,2.26 3.778,2.397C3.778,2.465 3.751,2.53 3.702,2.577L3.316,2.963L3.797,3.443C4.344,2.97 5.029,2.687 5.75,2.634L5.75,1.975L5.1,1.975C4.963,1.975 4.85,1.862 4.85,1.725"/>
                    </clipPath>
                    <g clip-path="url(#_clip25)">
                        <g transform="matrix(0.00953872,0,0,0.00953872,-21.5223,0.849091)">
                            <path d="M2941.63,665.161C2953.28,663.889 2964.86,668.2 2973.53,677.031C2982.2,685.863 2987.14,698.393 2987.14,711.535C2987.28,714.099 2987.28,716.605 2987.28,719.011C2987.28,733.276 2978.66,745.725 2966.35,749.246C2918.05,762.426 2870.01,763.817 2822.22,753.653C2799.32,748.867 2782.71,726.43 2782.71,700.277C2782.61,700.276 2782.61,700.276 2782.61,700.276C2782.62,689.858 2786.55,679.929 2793.44,672.955C2800.34,665.981 2809.54,662.617 2818.77,663.697C2860.94,668.508 2901.91,669.005 2941.63,665.161Z" style="fill:white;"/>
                            <clipPath id="_clip26">
                                <path d="M2941.63,665.161C2953.28,663.889 2964.86,668.2 2973.53,677.031C2982.2,685.863 2987.14,698.393 2987.14,711.535C2987.28,714.099 2987.28,716.605 2987.28,719.011C2987.28,733.276 2978.66,745.725 2966.35,749.246C2918.05,762.426 2870.01,763.817 2822.22,753.653C2799.32,748.867 2782.71,726.43 2782.71,700.277C2782.61,700.276 2782.61,700.276 2782.61,700.276C2782.62,689.858 2786.55,679.929 2793.44,672.955C2800.34,665.981 2809.54,662.617 2818.77,663.697C2860.94,668.508 2901.91,669.005 2941.63,665.161Z"/>
                            </clipPath>
                            <g clip-path="url(#_clip26)">
                                <path d="M2840.88,665.875L2840.88,760.327" style="fill:none;stroke:black;stroke-width:14.53px;"/>
                                <path d="M2930.87,665.875L2930.87,760.327" style="fill:none;stroke:black;stroke-width:14.53px;"/>
                            </g>
                            <path d="M2941.63,665.161C2953.28,663.889 2964.86,668.2 2973.53,677.031C2982.2,685.863 2987.14,698.393 2987.14,711.535C2987.28,714.099 2987.28,716.605 2987.28,719.011C2987.28,733.276 2978.66,745.725 2966.35,749.246C2918.05,762.426 2870.01,763.817 2822.22,753.653C2799.32,748.867 2782.71,726.43 2782.71,700.277C2782.61,700.276 2782.61,700.276 2782.61,700.276C2782.62,689.858 2786.55,679.929 2793.44,672.955C2800.34,665.981 2809.54,662.617 2818.77,663.697C2860.94,668.508 2901.91,669.005 2941.63,665.161Z" style="fill:none;stroke:black;stroke-width:14.53px;"/>
                        </g>
                        <g>
                            <g transform="matrix(0.487956,0.00415536,-0.00415536,0.487956,2.95366,2.4444)">
                                <path d="M5.844,7.357C5.844,8.28 5.06,9.244 4.203,8.903C4.059,8.845 2.481,8.28 2.481,7.357C2.481,6.565 3.04,5.894 3.782,5.719C3.904,5.69 5.673,6.638 5.794,6.95C5.842,7.075 5.844,7.217 5.844,7.357" style="fill:white;"/>
                                <clipPath id="_clip27">
                                    <path d="M5.844,7.357C5.844,8.28 5.06,9.244 4.203,8.903C4.059,8.845 2.481,8.28 2.481,7.357C2.481,6.565 3.04,5.894 3.782,5.719C3.904,5.69 5.673,6.638 5.794,6.95C5.842,7.075 5.844,7.217 5.844,7.357"/>
                                </clipPath>
                                <g clip-path="url(#_clip27)">
                                    <path d="M4.506,8.299C5.017,8.299 5.437,7.879 5.437,7.368C5.437,6.857 5.017,6.437 4.506,6.437C3.995,6.437 3.574,6.857 3.574,7.368C3.574,7.879 3.995,8.299 4.506,8.299" style="fill:rgb(25,25,25);"/>
                                    <clipPath id="_clip28">
                                        <path d="M4.506,8.299C5.017,8.299 5.437,7.879 5.437,7.368C5.437,6.857 5.017,6.437 4.506,6.437C3.995,6.437 3.574,6.857 3.574,7.368C3.574,7.879 3.995,8.299 4.506,8.299"/>
                                    </clipPath>
                                    <g clip-path="url(#_clip28)">
                                        <g transform="matrix(1.28442,0,1.73472e-18,1.28968,-2.09173,-1.94568)">
                                            <ellipse cx="7.677" cy="7.025" rx="0.323" ry="0.308" style="fill:white;"/>
                                        </g>
                                        <g transform="matrix(1.28442,0,1.73472e-18,1.28968,-5.44277,-1.93963)">
                                            <ellipse cx="7.677" cy="7.025" rx="0.323" ry="0.308" style="fill:white;"/>
                                        </g>
                                    </g>
                                </g>
                            </g>
                            <g transform="matrix(0.0103529,0.000103685,0.000902567,0.00983876,-24.2206,0.565794)">
                                <path d="M2745.94,437.183L2854.53,506.631" style="fill:none;stroke:black;stroke-width:25.35px;"/>
                            </g>
                        </g>
                        <g>
                            <g transform="matrix(-0.487956,0.00415536,0.00415536,0.487956,9.14212,2.4444)">
                                <path d="M5.844,7.357C5.844,8.28 5.06,9.244 4.203,8.903C4.059,8.845 2.481,8.28 2.481,7.357C2.481,6.565 3.04,5.894 3.782,5.719C3.904,5.69 5.673,6.638 5.794,6.95C5.842,7.075 5.844,7.217 5.844,7.357" style="fill:white;"/>
                                <clipPath id="_clip29">
                                    <path d="M5.844,7.357C5.844,8.28 5.06,9.244 4.203,8.903C4.059,8.845 2.481,8.28 2.481,7.357C2.481,6.565 3.04,5.894 3.782,5.719C3.904,5.69 5.673,6.638 5.794,6.95C5.842,7.075 5.844,7.217 5.844,7.357"/>
                                </clipPath>
                                <g clip-path="url(#_clip29)">
                                    <path d="M4.506,8.299C5.017,8.299 5.437,7.879 5.437,7.368C5.437,6.857 5.017,6.437 4.506,6.437C3.995,6.437 3.574,6.857 3.574,7.368C3.574,7.879 3.995,8.299 4.506,8.299" style="fill:rgb(25,25,25);"/>
                                    <clipPath id="_clip30">
                                        <path d="M4.506,8.299C5.017,8.299 5.437,7.879 5.437,7.368C5.437,6.857 5.017,6.437 4.506,6.437C3.995,6.437 3.574,6.857 3.574,7.368C3.574,7.879 3.995,8.299 4.506,8.299"/>
                                    </clipPath>
                                    <g clip-path="url(#_clip30)">
                                        <g transform="matrix(1.28442,0,1.73472e-18,1.28968,-2.09173,-1.94568)">
                                            <ellipse cx="7.677" cy="7.025" rx="0.323" ry="0.308" style="fill:white;"/>
                                        </g>
                                        <g transform="matrix(1.28442,0,1.73472e-18,1.28968,-5.44277,-1.93963)">
                                            <ellipse cx="7.677" cy="7.025" rx="0.323" ry="0.308" style="fill:white;"/>
                                        </g>
                                    </g>
                                </g>
                            </g>
                            <g transform="matrix(-0.0103529,0.000103685,-0.000902567,0.00983876,36.3163,0.565794)">
                                <path d="M2745.94,437.183L2854.53,506.631" style="fill:none;stroke:black;stroke-width:25.35px;"/>
                            </g>
                        </g>
                    </g>
                </g>
                <g transform="matrix(14.2346,0,0,12.6779,914.372,537.838)">
                    <path d="M4.85,1.725C4.85,1.588 4.963,1.475 5.1,1.475L6.9,1.475C7.037,1.475 7.15,1.588 7.15,1.725C7.15,1.862 7.037,1.975 6.9,1.975L6.25,1.975L6.25,2.634C6.994,2.689 7.671,2.984 8.203,3.443L8.684,2.963L8.298,2.577C8.253,2.53 8.228,2.468 8.228,2.403C8.228,2.266 8.341,2.153 8.478,2.153C8.543,2.153 8.605,2.178 8.652,2.223L9.777,3.348C9.822,3.395 9.847,3.457 9.847,3.522C9.847,3.659 9.734,3.772 9.597,3.772C9.532,3.772 9.47,3.747 9.423,3.702L9.038,3.316L8.557,3.797C9.029,4.344 9.313,5.029 9.366,5.75L10.025,5.75L10.025,5.1C10.025,4.963 10.138,4.85 10.275,4.85C10.412,4.85 10.525,4.963 10.525,5.1L10.525,6.9C10.525,7.037 10.412,7.15 10.275,7.15C10.138,7.15 10.025,7.037 10.025,6.9L10.025,6.25L9.366,6.25C9.313,6.971 9.029,7.656 8.557,8.203L9.038,8.684L9.423,8.298C9.47,8.253 9.532,8.228 9.597,8.228C9.734,8.228 9.847,8.341 9.847,8.478C9.847,8.543 9.822,8.605 9.777,8.652L8.652,9.777C8.605,9.822 8.543,9.847 8.478,9.847C8.341,9.847 8.228,9.734 8.228,9.597C8.228,9.532 8.253,9.47 8.298,9.423L8.684,9.038L8.203,8.557C7.656,9.029 6.971,9.313 6.25,9.366L6.25,10.025L6.9,10.025C7.037,10.025 7.15,10.138 7.15,10.275C7.15,10.412 7.037,10.525 6.9,10.525L5.1,10.525C4.963,10.525 4.85,10.412 4.85,10.275C4.85,10.138 4.963,10.025 5.1,10.025L5.75,10.025L5.75,9.366C5.029,9.313 4.344,9.029 3.797,8.557L3.316,9.038L3.702,9.423C3.747,9.47 3.772,9.532 3.772,9.597C3.772,9.734 3.659,9.847 3.522,9.847C3.457,9.847 3.395,9.822 3.348,9.777L2.223,8.652C2.174,8.605 2.147,8.54 2.147,8.472C2.147,8.335 2.26,8.222 2.397,8.222C2.465,8.222 2.53,8.249 2.577,8.298L2.963,8.684L3.443,8.203C2.97,7.656 2.687,6.971 2.634,6.25L1.975,6.25L1.975,6.9C1.975,7.037 1.862,7.15 1.725,7.15C1.588,7.15 1.475,7.037 1.475,6.9L1.475,5.1C1.475,4.963 1.588,4.85 1.725,4.85C1.862,4.85 1.975,4.963 1.975,5.1L1.975,5.75L2.634,5.75C2.687,5.029 2.97,4.344 3.443,3.797L2.963,3.316L2.577,3.702C2.53,3.747 2.468,3.772 2.403,3.772C2.266,3.772 2.153,3.659 2.153,3.522C2.153,3.457 2.178,3.395 2.223,3.348L3.348,2.223C3.395,2.174 3.46,2.147 3.528,2.147C3.665,2.147 3.778,2.26 3.778,2.397C3.778,2.465 3.751,2.53 3.702,2.577L3.316,2.963L3.797,3.443C4.344,2.97 5.029,2.687 5.75,2.634L5.75,1.975L5.1,1.975C4.963,1.975 4.85,1.862 4.85,1.725" style="fill:rgb(87,157,79);"/>
                    <clipPath id="_clip31">
                        <path d="M4.85,1.725C4.85,1.588 4.963,1.475 5.1,1.475L6.9,1.475C7.037,1.475 7.15,1.588 7.15,1.725C7.15,1.862 7.037,1.975 6.9,1.975L6.25,1.975L6.25,2.634C6.994,2.689 7.671,2.984 8.203,3.443L8.684,2.963L8.298,2.577C8.253,2.53 8.228,2.468 8.228,2.403C8.228,2.266 8.341,2.153 8.478,2.153C8.543,2.153 8.605,2.178 8.652,2.223L9.777,3.348C9.822,3.395 9.847,3.457 9.847,3.522C9.847,3.659 9.734,3.772 9.597,3.772C9.532,3.772 9.47,3.747 9.423,3.702L9.038,3.316L8.557,3.797C9.029,4.344 9.313,5.029 9.366,5.75L10.025,5.75L10.025,5.1C10.025,4.963 10.138,4.85 10.275,4.85C10.412,4.85 10.525,4.963 10.525,5.1L10.525,6.9C10.525,7.037 10.412,7.15 10.275,7.15C10.138,7.15 10.025,7.037 10.025,6.9L10.025,6.25L9.366,6.25C9.313,6.971 9.029,7.656 8.557,8.203L9.038,8.684L9.423,8.298C9.47,8.253 9.532,8.228 9.597,8.228C9.734,8.228 9.847,8.341 9.847,8.478C9.847,8.543 9.822,8.605 9.777,8.652L8.652,9.777C8.605,9.822 8.543,9.847 8.478,9.847C8.341,9.847 8.228,9.734 8.228,9.597C8.228,9.532 8.253,9.47 8.298,9.423L8.684,9.038L8.203,8.557C7.656,9.029 6.971,9.313 6.25,9.366L6.25,10.025L6.9,10.025C7.037,10.025 7.15,10.138 7.15,10.275C7.15,10.412 7.037,10.525 6.9,10.525L5.1,10.525C4.963,10.525 4.85,10.412 4.85,10.275C4.85,10.138 4.963,10.025 5.1,10.025L5.75,10.025L5.75,9.366C5.029,9.313 4.344,9.029 3.797,8.557L3.316,9.038L3.702,9.423C3.747,9.47 3.772,9.532 3.772,9.597C3.772,9.734 3.659,9.847 3.522,9.847C3.457,9.847 3.395,9.822 3.348,9.777L2.223,8.652C2.174,8.605 2.147,8.54 2.147,8.472C2.147,8.335 2.26,8.222 2.397,8.222C2.465,8.222 2.53,8.249 2.577,8.298L2.963,8.684L3.443,8.203C2.97,7.656 2.687,6.971 2.634,6.25L1.975,6.25L1.975,6.9C1.975,7.037 1.862,7.15 1.725,7.15C1.588,7.15 1.475,7.037 1.475,6.9L1.475,5.1C1.475,4.963 1.588,4.85 1.725,4.85C1.862,4.85 1.975,4.963 1.975,5.1L1.975,5.75L2.634,5.75C2.687,5.029 2.97,4.344 3.443,3.797L2.963,3.316L2.577,3.702C2.53,3.747 2.468,3.772 2.403,3.772C2.266,3.772 2.153,3.659 2.153,3.522C2.153,3.457 2.178,3.395 2.223,3.348L3.348,2.223C3.395,2.174 3.46,2.147 3.528,2.147C3.665,2.147 3.778,2.26 3.778,2.397C3.778,2.465 3.751,2.53 3.702,2.577L3.316,2.963L3.797,3.443C4.344,2.97 5.029,2.687 5.75,2.634L5.75,1.975L5.1,1.975C4.963,1.975 4.85,1.862 4.85,1.725"/>
                    </clipPath>
                    <g clip-path="url(#_clip31)">
                        <g transform="matrix(0.00953872,0,0,0.00953872,-21.5223,0.849091)">
                            <path d="M2940.44,665.274C2952.4,663.995 2964.29,668.439 2973.18,677.513C2982.06,686.588 2987.13,699.451 2987.13,712.94C2987.28,715.18 2987.28,717.368 2987.28,719.477C2987.28,733.454 2978.84,745.656 2966.78,749.121C2918.25,762.44 2869.99,763.853 2821.97,753.601C2799.21,748.822 2782.71,726.514 2782.71,700.516C2782.61,700.515 2782.61,700.515 2782.61,700.514C2782.62,690.037 2786.57,680.051 2793.5,673.037C2800.43,666.022 2809.69,662.636 2818.97,663.72C2860.66,668.463 2901.16,668.988 2940.44,665.274Z" style="fill:white;"/>
                            <clipPath id="_clip32">
                                <path d="M2940.44,665.274C2952.4,663.995 2964.29,668.439 2973.18,677.513C2982.06,686.588 2987.13,699.451 2987.13,712.94C2987.28,715.18 2987.28,717.368 2987.28,719.477C2987.28,733.454 2978.84,745.656 2966.78,749.121C2918.25,762.44 2869.99,763.853 2821.97,753.601C2799.21,748.822 2782.71,726.514 2782.71,700.516C2782.61,700.515 2782.61,700.515 2782.61,700.514C2782.62,690.037 2786.57,680.051 2793.5,673.037C2800.43,666.022 2809.69,662.636 2818.97,663.72C2860.66,668.463 2901.16,668.988 2940.44,665.274Z"/>
                            </clipPath>
                            <g clip-path="url(#_clip32)">
                                <path d="M2840.88,665.875L2840.88,760.327" style="fill:none;stroke:black;stroke-width:14.53px;"/>
                                <path d="M2930.87,665.875L2930.87,760.327" style="fill:none;stroke:black;stroke-width:14.53px;"/>
                            </g>
                            <path d="M2940.44,665.274C2952.4,663.995 2964.29,668.439 2973.18,677.513C2982.06,686.588 2987.13,699.451 2987.13,712.94C2987.28,715.18 2987.28,717.368 2987.28,719.477C2987.28,733.454 2978.84,745.656 2966.78,749.121C2918.25,762.44 2869.99,763.853 2821.97,753.601C2799.21,748.822 2782.71,726.514 2782.71,700.516C2782.61,700.515 2782.61,700.515 2782.61,700.514C2782.62,690.037 2786.57,680.051 2793.5,673.037C2800.43,666.022 2809.69,662.636 2818.97,663.72C2860.66,668.463 2901.16,668.988 2940.44,665.274Z" style="fill:none;stroke:black;stroke-width:14.53px;"/>
                        </g>
                        <g>
                            <g transform="matrix(0.487956,0.00415536,-0.00415536,0.487956,2.95366,2.4444)">
                                <path d="M5.844,7.357C5.844,8.28 5.06,9.244 4.203,8.903C4.059,8.845 2.481,8.28 2.481,7.357C2.481,6.565 3.04,5.894 3.782,5.719C3.904,5.69 5.673,6.638 5.794,6.95C5.842,7.075 5.844,7.217 5.844,7.357" style="fill:white;"/>
                                <clipPath id="_clip33">
                                    <path d="M5.844,7.357C5.844,8.28 5.06,9.244 4.203,8.903C4.059,8.845 2.481,8.28 2.481,7.357C2.481,6.565 3.04,5.894 3.782,5.719C3.904,5.69 5.673,6.638 5.794,6.95C5.842,7.075 5.844,7.217 5.844,7.357"/>
                                </clipPath>
                                <g clip-path="url(#_clip33)">
                                    <path d="M4.506,8.299C5.017,8.299 5.437,7.879 5.437,7.368C5.437,6.857 5.017,6.437 4.506,6.437C3.995,6.437 3.574,6.857 3.574,7.368C3.574,7.879 3.995,8.299 4.506,8.299" style="fill:rgb(25,25,25);"/>
                                    <clipPath id="_clip34">
                                        <path d="M4.506,8.299C5.017,8.299 5.437,7.879 5.437,7.368C5.437,6.857 5.017,6.437 4.506,6.437C3.995,6.437 3.574,6.857 3.574,7.368C3.574,7.879 3.995,8.299 4.506,8.299"/>
                                    </clipPath>
                                    <g clip-path="url(#_clip34)">
                                        <g transform="matrix(1.28442,0,1.73472e-18,1.28968,-2.09173,-1.94568)">
                                            <ellipse cx="7.677" cy="7.025" rx="0.323" ry="0.308" style="fill:white;"/>
                                        </g>
                                        <g transform="matrix(1.28442,0,1.73472e-18,1.28968,-5.44277,-1.93963)">
                                            <ellipse cx="7.677" cy="7.025" rx="0.323" ry="0.308" style="fill:white;"/>
                                        </g>
                                    </g>
                                </g>
                            </g>
                            <g transform="matrix(0.0103529,0.000103685,0.000902567,0.00983876,-24.2206,0.565794)">
                                <path d="M2745.94,437.183L2854.53,506.631" style="fill:none;stroke:black;stroke-width:25.35px;"/>
                            </g>
                        </g>
                        <g>
                            <g transform="matrix(-0.487956,0.00415536,0.00415536,0.487956,9.14212,2.4444)">
                                <path d="M5.844,7.357C5.844,8.28 5.06,9.244 4.203,8.903C4.059,8.845 2.481,8.28 2.481,7.357C2.481,6.565 3.04,5.894 3.782,5.719C3.904,5.69 5.673,6.638 5.794,6.95C5.842,7.075 5.844,7.217 5.844,7.357" style="fill:white;"/>
                                <clipPath id="_clip35">
                                    <path d="M5.844,7.357C5.844,8.28 5.06,9.244 4.203,8.903C4.059,8.845 2.481,8.28 2.481,7.357C2.481,6.565 3.04,5.894 3.782,5.719C3.904,5.69 5.673,6.638 5.794,6.95C5.842,7.075 5.844,7.217 5.844,7.357"/>
                                </clipPath>
                                <g clip-path="url(#_clip35)">
                                    <path d="M4.506,8.299C5.017,8.299 5.437,7.879 5.437,7.368C5.437,6.857 5.017,6.437 4.506,6.437C3.995,6.437 3.574,6.857 3.574,7.368C3.574,7.879 3.995,8.299 4.506,8.299" style="fill:rgb(25,25,25);"/>
                                    <clipPath id="_clip36">
                                        <path d="M4.506,8.299C5.017,8.299 5.437,7.879 5.437,7.368C5.437,6.857 5.017,6.437 4.506,6.437C3.995,6.437 3.574,6.857 3.574,7.368C3.574,7.879 3.995,8.299 4.506,8.299"/>
                                    </clipPath>
                                    <g clip-path="url(#_clip36)">
                                        <g transform="matrix(1.28442,0,1.73472e-18,1.28968,-2.09173,-1.94568)">
                                            <ellipse cx="7.677" cy="7.025" rx="0.323" ry="0.308" style="fill:white;"/>
                                        </g>
                                        <g transform="matrix(1.28442,0,1.73472e-18,1.28968,-5.44277,-1.93963)">
                                            <ellipse cx="7.677" cy="7.025" rx="0.323" ry="0.308" style="fill:white;"/>
                                        </g>
                                    </g>
                                </g>
                            </g>
                            <g transform="matrix(-0.0103529,0.000103685,-0.000902567,0.00983876,36.3163,0.565794)">
                                <path d="M2745.94,437.183L2854.53,506.631" style="fill:none;stroke:black;stroke-width:25.35px;"/>
                            </g>
                        </g>
                    </g>
                </g>
                <g transform="matrix(23.3483,0,0,24.0419,451.89,-15.8645)">
                    <path d="M4.85,1.725C4.85,1.588 4.963,1.475 5.1,1.475L6.9,1.475C7.037,1.475 7.15,1.588 7.15,1.725C7.15,1.862 7.037,1.975 6.9,1.975L6.25,1.975L6.25,2.634C6.994,2.689 7.671,2.984 8.203,3.443L8.684,2.963L8.298,2.577C8.253,2.53 8.228,2.468 8.228,2.403C8.228,2.266 8.341,2.153 8.478,2.153C8.543,2.153 8.605,2.178 8.652,2.223L9.777,3.348C9.822,3.395 9.847,3.457 9.847,3.522C9.847,3.659 9.734,3.772 9.597,3.772C9.532,3.772 9.47,3.747 9.423,3.702L9.038,3.316L8.557,3.797C9.029,4.344 9.313,5.029 9.366,5.75L10.025,5.75L10.025,5.1C10.025,4.963 10.138,4.85 10.275,4.85C10.412,4.85 10.525,4.963 10.525,5.1L10.525,6.9C10.525,7.037 10.412,7.15 10.275,7.15C10.138,7.15 10.025,7.037 10.025,6.9L10.025,6.25L9.366,6.25C9.313,6.971 9.029,7.656 8.557,8.203L9.038,8.684L9.423,8.298C9.47,8.253 9.532,8.228 9.597,8.228C9.734,8.228 9.847,8.341 9.847,8.478C9.847,8.543 9.822,8.605 9.777,8.652L8.652,9.777C8.605,9.822 8.543,9.847 8.478,9.847C8.341,9.847 8.228,9.734 8.228,9.597C8.228,9.532 8.253,9.47 8.298,9.423L8.684,9.038L8.203,8.557C7.656,9.029 6.971,9.313 6.25,9.366L6.25,10.025L6.9,10.025C7.037,10.025 7.15,10.138 7.15,10.275C7.15,10.412 7.037,10.525 6.9,10.525L5.1,10.525C4.963,10.525 4.85,10.412 4.85,10.275C4.85,10.138 4.963,10.025 5.1,10.025L5.75,10.025L5.75,9.366C5.029,9.313 4.344,9.029 3.797,8.557L3.316,9.038L3.702,9.423C3.747,9.47 3.772,9.532 3.772,9.597C3.772,9.734 3.659,9.847 3.522,9.847C3.457,9.847 3.395,9.822 3.348,9.777L2.223,8.652C2.174,8.605 2.147,8.54 2.147,8.472C2.147,8.335 2.26,8.222 2.397,8.222C2.465,8.222 2.53,8.249 2.577,8.298L2.963,8.684L3.443,8.203C2.97,7.656 2.687,6.971 2.634,6.25L1.975,6.25L1.975,6.9C1.975,7.037 1.862,7.15 1.725,7.15C1.588,7.15 1.475,7.037 1.475,6.9L1.475,5.1C1.475,4.963 1.588,4.85 1.725,4.85C1.862,4.85 1.975,4.963 1.975,5.1L1.975,5.75L2.634,5.75C2.687,5.029 2.97,4.344 3.443,3.797L2.963,3.316L2.577,3.702C2.53,3.747 2.468,3.772 2.403,3.772C2.266,3.772 2.153,3.659 2.153,3.522C2.153,3.457 2.178,3.395 2.223,3.348L3.348,2.223C3.395,2.174 3.46,2.147 3.528,2.147C3.665,2.147 3.778,2.26 3.778,2.397C3.778,2.465 3.751,2.53 3.702,2.577L3.316,2.963L3.797,3.443C4.344,2.97 5.029,2.687 5.75,2.634L5.75,1.975L5.1,1.975C4.963,1.975 4.85,1.862 4.85,1.725" style="fill:rgb(87,157,79);"/>
                    <clipPath id="_clip37">
                        <path d="M4.85,1.725C4.85,1.588 4.963,1.475 5.1,1.475L6.9,1.475C7.037,1.475 7.15,1.588 7.15,1.725C7.15,1.862 7.037,1.975 6.9,1.975L6.25,1.975L6.25,2.634C6.994,2.689 7.671,2.984 8.203,3.443L8.684,2.963L8.298,2.577C8.253,2.53 8.228,2.468 8.228,2.403C8.228,2.266 8.341,2.153 8.478,2.153C8.543,2.153 8.605,2.178 8.652,2.223L9.777,3.348C9.822,3.395 9.847,3.457 9.847,3.522C9.847,3.659 9.734,3.772 9.597,3.772C9.532,3.772 9.47,3.747 9.423,3.702L9.038,3.316L8.557,3.797C9.029,4.344 9.313,5.029 9.366,5.75L10.025,5.75L10.025,5.1C10.025,4.963 10.138,4.85 10.275,4.85C10.412,4.85 10.525,4.963 10.525,5.1L10.525,6.9C10.525,7.037 10.412,7.15 10.275,7.15C10.138,7.15 10.025,7.037 10.025,6.9L10.025,6.25L9.366,6.25C9.313,6.971 9.029,7.656 8.557,8.203L9.038,8.684L9.423,8.298C9.47,8.253 9.532,8.228 9.597,8.228C9.734,8.228 9.847,8.341 9.847,8.478C9.847,8.543 9.822,8.605 9.777,8.652L8.652,9.777C8.605,9.822 8.543,9.847 8.478,9.847C8.341,9.847 8.228,9.734 8.228,9.597C8.228,9.532 8.253,9.47 8.298,9.423L8.684,9.038L8.203,8.557C7.656,9.029 6.971,9.313 6.25,9.366L6.25,10.025L6.9,10.025C7.037,10.025 7.15,10.138 7.15,10.275C7.15,10.412 7.037,10.525 6.9,10.525L5.1,10.525C4.963,10.525 4.85,10.412 4.85,10.275C4.85,10.138 4.963,10.025 5.1,10.025L5.75,10.025L5.75,9.366C5.029,9.313 4.344,9.029 3.797,8.557L3.316,9.038L3.702,9.423C3.747,9.47 3.772,9.532 3.772,9.597C3.772,9.734 3.659,9.847 3.522,9.847C3.457,9.847 3.395,9.822 3.348,9.777L2.223,8.652C2.174,8.605 2.147,8.54 2.147,8.472C2.147,8.335 2.26,8.222 2.397,8.222C2.465,8.222 2.53,8.249 2.577,8.298L2.963,8.684L3.443,8.203C2.97,7.656 2.687,6.971 2.634,6.25L1.975,6.25L1.975,6.9C1.975,7.037 1.862,7.15 1.725,7.15C1.588,7.15 1.475,7.037 1.475,6.9L1.475,5.1C1.475,4.963 1.588,4.85 1.725,4.85C1.862,4.85 1.975,4.963 1.975,5.1L1.975,5.75L2.634,5.75C2.687,5.029 2.97,4.344 3.443,3.797L2.963,3.316L2.577,3.702C2.53,3.747 2.468,3.772 2.403,3.772C2.266,3.772 2.153,3.659 2.153,3.522C2.153,3.457 2.178,3.395 2.223,3.348L3.348,2.223C3.395,2.174 3.46,2.147 3.528,2.147C3.665,2.147 3.778,2.26 3.778,2.397C3.778,2.465 3.751,2.53 3.702,2.577L3.316,2.963L3.797,3.443C4.344,2.97 5.029,2.687 5.75,2.634L5.75,1.975L5.1,1.975C4.963,1.975 4.85,1.862 4.85,1.725"/>
                    </clipPath>
                    <g clip-path="url(#_clip37)">
                        <g transform="matrix(0.00953872,0,0,0.00953872,-21.5223,0.849091)">
                            <path d="M2932.94,665.93C2946.79,664.646 2960.56,669.096 2970.86,678.186C2981.15,687.276 2987.02,700.163 2987.02,713.676C2987.28,715.844 2987.28,717.961 2987.28,719.999C2987.28,733.903 2977.73,746.103 2963.94,749.829C2918.89,761.818 2874.06,763.498 2829.44,755.101C2802.36,750.168 2782.74,727.204 2782.74,700.447C2782.61,700.445 2782.61,700.443 2782.61,700.441C2782.61,690.079 2787.16,680.208 2795.11,673.299C2803.06,666.39 2813.67,663.098 2824.27,664.246C2861.44,668.226 2897.68,668.77 2932.94,665.93Z" style="fill:white;"/>
                            <clipPath id="_clip38">
                                <path d="M2932.94,665.93C2946.79,664.646 2960.56,669.096 2970.86,678.186C2981.15,687.276 2987.02,700.163 2987.02,713.676C2987.28,715.844 2987.28,717.961 2987.28,719.999C2987.28,733.903 2977.73,746.103 2963.94,749.829C2918.89,761.818 2874.06,763.498 2829.44,755.101C2802.36,750.168 2782.74,727.204 2782.74,700.447C2782.61,700.445 2782.61,700.443 2782.61,700.441C2782.61,690.079 2787.16,680.208 2795.11,673.299C2803.06,666.39 2813.67,663.098 2824.27,664.246C2861.44,668.226 2897.68,668.77 2932.94,665.93Z"/>
                            </clipPath>
                            <g clip-path="url(#_clip38)">
                                <path d="M2840.88,665.875L2840.88,760.327" style="fill:none;stroke:black;stroke-width:14.53px;"/>
                                <path d="M2930.87,665.875L2930.87,760.327" style="fill:none;stroke:black;stroke-width:14.53px;"/>
                            </g>
                            <path d="M2932.94,665.93C2946.79,664.646 2960.56,669.096 2970.86,678.186C2981.15,687.276 2987.02,700.163 2987.02,713.676C2987.28,715.844 2987.28,717.961 2987.28,719.999C2987.28,733.903 2977.73,746.103 2963.94,749.829C2918.89,761.818 2874.06,763.498 2829.44,755.101C2802.36,750.168 2782.74,727.204 2782.74,700.447C2782.61,700.445 2782.61,700.443 2782.61,700.441C2782.61,690.079 2787.16,680.208 2795.11,673.299C2803.06,666.39 2813.67,663.098 2824.27,664.246C2861.44,668.226 2897.68,668.77 2932.94,665.93Z" style="fill:none;stroke:black;stroke-width:14.53px;"/>
                        </g>
                        <g>
                            <g transform="matrix(0.487956,0.00415536,-0.00415536,0.487956,2.95366,2.4444)">
                                <path d="M5.844,7.357C5.844,8.28 5.06,9.244 4.203,8.903C4.059,8.845 2.481,8.28 2.481,7.357C2.481,6.565 3.04,5.894 3.782,5.719C3.904,5.69 5.673,6.638 5.794,6.95C5.842,7.075 5.844,7.217 5.844,7.357" style="fill:white;"/>
                                <clipPath id="_clip39">
                                    <path d="M5.844,7.357C5.844,8.28 5.06,9.244 4.203,8.903C4.059,8.845 2.481,8.28 2.481,7.357C2.481,6.565 3.04,5.894 3.782,5.719C3.904,5.69 5.673,6.638 5.794,6.95C5.842,7.075 5.844,7.217 5.844,7.357"/>
                                </clipPath>
                                <g clip-path="url(#_clip39)">
                                    <path d="M4.506,8.299C5.017,8.299 5.437,7.879 5.437,7.368C5.437,6.857 5.017,6.437 4.506,6.437C3.995,6.437 3.574,6.857 3.574,7.368C3.574,7.879 3.995,8.299 4.506,8.299" style="fill:rgb(25,25,25);"/>
                                    <clipPath id="_clip40">
                                        <path d="M4.506,8.299C5.017,8.299 5.437,7.879 5.437,7.368C5.437,6.857 5.017,6.437 4.506,6.437C3.995,6.437 3.574,6.857 3.574,7.368C3.574,7.879 3.995,8.299 4.506,8.299"/>
                                    </clipPath>
                                    <g clip-path="url(#_clip40)">
                                        <g transform="matrix(1.28442,0,1.73472e-18,1.28968,-2.09173,-1.94568)">
                                            <ellipse cx="7.677" cy="7.025" rx="0.323" ry="0.308" style="fill:white;"/>
                                        </g>
                                        <g transform="matrix(1.28442,0,1.73472e-18,1.28968,-5.44277,-1.93963)">
                                            <ellipse cx="7.677" cy="7.025" rx="0.323" ry="0.308" style="fill:white;"/>
                                        </g>
                                    </g>
                                </g>
                            </g>
                            <g transform="matrix(0.0103529,0.000103685,0.000902567,0.00983876,-24.2206,0.565794)">
                                <path d="M2745.94,437.183L2854.53,506.631" style="fill:none;stroke:black;stroke-width:25.35px;"/>
                            </g>
                        </g>
                        <g>
                            <g transform="matrix(-0.487956,0.00415536,0.00415536,0.487956,9.14212,2.4444)">
                                <path d="M5.844,7.357C5.844,8.28 5.06,9.244 4.203,8.903C4.059,8.845 2.481,8.28 2.481,7.357C2.481,6.565 3.04,5.894 3.782,5.719C3.904,5.69 5.673,6.638 5.794,6.95C5.842,7.075 5.844,7.217 5.844,7.357" style="fill:white;"/>
                                <clipPath id="_clip41">
                                    <path d="M5.844,7.357C5.844,8.28 5.06,9.244 4.203,8.903C4.059,8.845 2.481,8.28 2.481,7.357C2.481,6.565 3.04,5.894 3.782,5.719C3.904,5.69 5.673,6.638 5.794,6.95C5.842,7.075 5.844,7.217 5.844,7.357"/>
                                </clipPath>
                                <g clip-path="url(#_clip41)">
                                    <path d="M4.506,8.299C5.017,8.299 5.437,7.879 5.437,7.368C5.437,6.857 5.017,6.437 4.506,6.437C3.995,6.437 3.574,6.857 3.574,7.368C3.574,7.879 3.995,8.299 4.506,8.299" style="fill:rgb(25,25,25);"/>
                                    <clipPath id="_clip42">
                                        <path d="M4.506,8.299C5.017,8.299 5.437,7.879 5.437,7.368C5.437,6.857 5.017,6.437 4.506,6.437C3.995,6.437 3.574,6.857 3.574,7.368C3.574,7.879 3.995,8.299 4.506,8.299"/>
                                    </clipPath>
                                    <g clip-path="url(#_clip42)">
                                        <g transform="matrix(1.28442,0,1.73472e-18,1.28968,-2.09173,-1.94568)">
                                            <ellipse cx="7.677" cy="7.025" rx="0.323" ry="0.308" style="fill:white;"/>
                                        </g>
                                        <g transform="matrix(1.28442,0,1.73472e-18,1.28968,-5.44277,-1.93963)">
                                            <ellipse cx="7.677" cy="7.025" rx="0.323" ry="0.308" style="fill:white;"/>
                                        </g>
                                    </g>
                                </g>
                            </g>
                            <g transform="matrix(-0.0103529,0.000103685,-0.000902567,0.00983876,36.3163,0.565794)">
                                <path d="M2745.94,437.183L2854.53,506.631" style="fill:none;stroke:black;stroke-width:25.35px;"/>
                            </g>
                        </g>
                    </g>
                </g>
            </g>
            <g>
                <g transform="matrix(112.078,0,0,114.855,-115.017,-219.834)">
                    <path d="M6.539,9.486C6.552,9.48 6.566,9.47 6.582,9.458C6.669,9.394 6.78,9.285 6.845,9.25C6.878,9.233 6.919,9.244 6.937,9.276C6.955,9.307 6.944,9.347 6.911,9.365C6.851,9.399 6.751,9.507 6.671,9.57C6.639,9.595 6.609,9.614 6.584,9.624C6.528,9.646 6.475,9.628 6.429,9.577C6.39,9.535 6.355,9.46 6.318,9.401C6.31,9.389 6.296,9.373 6.288,9.365C6.251,9.376 6.225,9.409 6.198,9.44C6.15,9.494 6.104,9.552 6.049,9.584C6.008,9.608 5.963,9.62 5.911,9.615C5.869,9.611 5.833,9.595 5.801,9.572C5.765,9.545 5.735,9.508 5.704,9.469C5.677,9.434 5.652,9.394 5.609,9.38C5.582,9.402 5.542,9.469 5.51,9.503C5.463,9.554 5.416,9.595 5.381,9.607C5.346,9.619 5.3,9.612 5.255,9.573C5.202,9.528 5.138,9.428 5.094,9.38C5.069,9.354 5.07,9.313 5.097,9.288C5.124,9.264 5.166,9.265 5.191,9.291C5.238,9.339 5.333,9.526 5.357,9.476C5.361,9.466 5.339,9.473 5.331,9.476C5.351,9.468 5.373,9.438 5.4,9.408C5.453,9.347 5.511,9.278 5.555,9.252C5.59,9.23 5.625,9.228 5.652,9.235C5.687,9.245 5.718,9.263 5.746,9.286C5.788,9.319 5.822,9.366 5.857,9.407C5.877,9.431 5.896,9.456 5.927,9.459C5.966,9.462 5.991,9.433 6.018,9.404C6.062,9.358 6.104,9.302 6.154,9.264C6.189,9.238 6.227,9.219 6.271,9.211C6.323,9.203 6.373,9.223 6.415,9.274C6.453,9.319 6.486,9.394 6.521,9.451C6.527,9.461 6.533,9.477 6.539,9.486ZM5.607,9.38C5.607,9.38 5.607,9.38 5.607,9.38C5.607,9.38 5.607,9.38 5.607,9.38ZM5.609,9.38C5.619,9.383 5.64,9.389 5.634,9.38C5.628,9.37 5.62,9.372 5.609,9.38ZM6.299,9.362C6.299,9.362 6.299,9.362 6.299,9.362C6.299,9.362 6.299,9.362 6.299,9.362ZM6.54,9.487C6.544,9.492 6.547,9.494 6.55,9.49C6.553,9.486 6.547,9.486 6.54,9.487ZM6.53,9.49C6.53,9.49 6.53,9.49 6.53,9.49C6.53,9.49 6.53,9.49 6.53,9.49Z" style="fill:rgb(7,71,72);"/>
                </g>
                <g transform="matrix(90.4347,0,0,66.4591,26.7967,179.113)">
                    <g transform="matrix(20.3378,-6.52501,8.69374,24.5394,-9.56483,-2.41657)">
                        <path d="M0.556,0.572C0.552,0.569 0.552,0.56 0.556,0.557C0.572,0.548 0.635,0.524 0.651,0.52C0.656,0.519 0.656,0.533 0.651,0.536C0.638,0.543 0.574,0.565 0.574,0.565C0.574,0.565 0.625,0.582 0.635,0.589C0.64,0.592 0.64,0.606 0.635,0.605C0.622,0.602 0.57,0.58 0.556,0.572Z" style="fill:rgb(0,89,84);fill-rule:nonzero;"/>
                    </g>
                    <g transform="matrix(-20.9592,-4.11216,-5.77682,25.3849,20.0737,-4.17915)">
                        <path d="M0.556,0.572C0.552,0.569 0.552,0.56 0.556,0.557C0.572,0.548 0.635,0.524 0.651,0.52C0.656,0.519 0.656,0.533 0.651,0.536C0.638,0.543 0.574,0.565 0.574,0.565C0.574,0.565 0.625,0.582 0.635,0.589C0.64,0.592 0.64,0.606 0.635,0.605C0.622,0.602 0.57,0.58 0.556,0.572Z" style="fill:rgb(0,89,84);fill-rule:nonzero;"/>
                    </g>
                </g>
            </g>
        </g>
    </g>
</svg>
