<?xml version="1.0" encoding="UTF-8" standalone="no"?>
<!DOCTYPE svg PUBLIC "-//W3C//DTD SVG 1.1//EN" "http://www.w3.org/Graphics/SVG/1.1/DTD/svg11.dtd">
<svg width="100%" height="100%" viewBox="0 0 1080 1080" version="1.1" xmlns="http://www.w3.org/2000/svg" xmlns:xlink="http://www.w3.org/1999/xlink" xml:space="preserve" xmlns:serif="http://www.serif.com/" style="fill-rule:evenodd;clip-rule:evenodd;stroke-linecap:round;stroke-linejoin:round;stroke-miterlimit:10;">
    <g transform="matrix(1,0,0,1,-3559.89,0)">
        <g id="tombstone" transform="matrix(1,0,0,1,3559.89,0)">
            <rect x="0" y="0" width="1080" height="1080" style="fill:none;"/>
            <g id="Layer4">
            </g>
            <g id="SVGRepo_iconCarrier" transform="matrix(1.20348,0,0,1.30294,69.6817,66.4227)">
                <g>
                    <path d="M79.291,705.623L79.291,701.709C79.291,662.942 94.691,625.764 122.102,598.351" style="fill:none;fill-rule:nonzero;stroke:rgb(144,188,66);stroke-width:23.44px;"/>
                    <path d="M36.48,546.785C63.892,574.198 79.291,611.376 79.291,650.143L79.291,705.623C79.291,705.623 68.941,642.187 12.895,626.715" style="fill:none;fill-rule:nonzero;stroke:rgb(144,188,66);stroke-width:23.44px;"/>
                    <path d="M720.709,705.623L720.709,701.709C720.709,662.942 705.309,625.764 677.898,598.351" style="fill:none;fill-rule:nonzero;stroke:rgb(144,188,66);stroke-width:23.44px;"/>
                    <path d="M763.52,546.785C736.108,574.198 720.709,611.376 720.709,650.143L720.709,705.623C720.709,705.623 731.059,642.187 787.105,626.715" style="fill:none;fill-rule:nonzero;stroke:rgb(144,188,66);stroke-width:23.44px;"/>
                </g>
                <path d="M787.02,746.255L12.975,746.255C58.82,716.687 108.277,692.226 160.516,673.678C235.396,647.068 315.999,632.576 400.007,632.576C484.015,632.576 564.618,647.067 639.481,673.678C691.72,692.244 741.175,716.687 787.02,746.255Z" style="fill:rgb(13,185,159);fill-rule:nonzero;"/>
                <path d="M639.479,293.247L639.479,673.678C564.617,647.068 484.013,632.576 400.005,632.576C315.997,632.576 235.394,647.067 160.514,673.678L160.514,293.247C160.514,160.988 267.729,53.756 399.988,53.756C532.265,53.756 639.479,160.988 639.479,293.247Z" style="fill:rgb(204,204,204);fill-rule:nonzero;"/>
                <path d="M203.491,293.247C203.491,184.889 291.64,96.731 399.99,96.731C508.348,96.731 596.504,184.888 596.504,293.247L596.504,615.334C532.712,598.242 466.852,589.603 400.005,589.603C333.16,589.603 267.297,598.242 203.489,615.336L203.489,293.247L203.491,293.247Z" style="fill:rgb(179,179,179);fill-rule:nonzero;"/>
                <g>
                    <path d="M255.24,413.213C262.36,413.213 268.132,407.441 268.132,400.321L268.132,344.457L296.493,344.457C312.13,344.457 324.854,357.179 324.854,372.818L324.854,400.32C324.854,407.44 330.626,413.212 337.746,413.212C344.866,413.212 350.638,407.44 350.638,400.32L350.638,372.818C350.638,356.305 343.199,341.502 331.505,331.563C343.198,321.624 350.638,306.824 350.638,290.308C350.638,260.451 326.349,236.161 296.491,236.161L255.236,236.161C248.116,236.161 242.344,241.933 242.344,249.054L242.344,400.316C242.347,407.441 248.119,413.213 255.24,413.213ZM268.132,261.951L296.493,261.951C312.13,261.951 324.854,274.672 324.854,290.312C324.854,305.949 312.132,318.672 296.493,318.672L268.132,318.672L268.132,261.951Z" style="fill:rgb(51,51,51);fill-rule:nonzero;"/>
                    <path d="M479.443,413.213C486.565,413.213 492.335,407.441 492.335,400.321L492.335,344.457L520.696,344.457C550.551,344.457 574.843,320.168 574.843,290.31C574.843,260.452 550.553,236.163 520.696,236.163L479.442,236.163C472.32,236.163 466.549,241.935 466.549,249.055L466.549,400.318C466.549,407.441 472.321,413.213 479.443,413.213ZM492.335,261.951L520.696,261.951C536.335,261.951 549.057,274.672 549.057,290.312C549.057,305.949 536.335,318.672 520.696,318.672L492.335,318.672L492.335,261.951Z" style="fill:rgb(51,51,51);fill-rule:nonzero;"/>
                    <path d="M406.898,413.213C414.02,413.213 419.79,407.441 419.79,400.321L419.79,249.058C419.79,241.938 414.02,236.166 406.898,236.166C399.777,236.166 394.005,241.938 394.005,249.058L394.005,400.321C394.005,407.441 399.776,413.213 406.898,413.213Z" style="fill:rgb(51,51,51);fill-rule:nonzero;"/>
                    <path d="M572.751,457.402C572.751,450.282 566.981,444.51 559.859,444.51L240.141,444.51C233.021,444.51 227.249,450.282 227.249,457.402C227.249,464.523 233.021,470.295 240.141,470.295L559.859,470.295C566.979,470.295 572.751,464.524 572.751,457.402Z" style="fill:rgb(51,51,51);fill-rule:nonzero;"/>
                    <path d="M536.424,511.549C536.424,504.429 530.654,498.657 523.532,498.657L276.469,498.657C269.349,498.657 263.577,504.429 263.577,511.549C263.577,518.67 269.349,524.442 276.469,524.442L523.534,524.442C530.653,524.442 536.424,518.67 536.424,511.549Z" style="fill:rgb(51,51,51);fill-rule:nonzero;"/>
                    <path d="M794.014,735.412C774.806,723.031 755.087,711.623 734.937,701.17C739.019,686.072 752.617,649.611 790.536,639.142C797.398,637.248 801.428,630.147 799.531,623.282C797.636,616.42 790.547,612.387 783.672,614.287C761.022,620.54 744.95,633.379 733.626,647.42C734.314,612.837 748.106,580.429 772.634,555.901C777.67,550.867 777.67,542.704 772.636,537.67C767.6,532.635 759.436,532.635 754.405,537.67C731.717,560.354 716.744,588.69 710.761,619.5C704.17,608.623 696.231,598.461 687.009,589.239C681.976,584.206 673.812,584.204 668.778,589.239C663.743,594.273 663.743,602.437 668.779,607.471C690.561,629.253 703.856,657.25 707.047,687.459C689.119,679.114 670.884,671.509 652.378,664.673L652.378,293.24C652.378,154.075 539.159,40.856 399.995,40.856C260.84,40.856 147.628,154.075 147.628,293.24L147.628,664.672C129.119,671.508 110.883,679.112 92.953,687.459C96.146,657.248 109.438,629.251 131.221,607.471C136.255,602.437 136.255,594.275 131.221,589.24C126.186,584.206 118.022,584.206 112.989,589.24C103.767,598.462 95.83,608.625 89.239,619.5C83.256,588.692 68.283,560.357 45.597,537.671C40.563,532.637 32.399,532.637 27.366,537.671C22.331,542.706 22.331,550.87 27.366,555.903C51.895,580.434 65.686,612.842 66.375,647.423C55.052,633.379 38.981,620.542 16.328,614.287C9.466,612.393 2.364,616.418 0.469,623.282C-1.427,630.147 2.602,637.248 9.464,639.142C47.4,649.615 60.994,686.1 65.067,701.169C44.917,711.622 25.197,723.031 5.988,735.412C1.181,738.509 -1.011,744.403 0.605,749.891C2.219,755.376 7.253,759.142 12.973,759.142L787.03,759.142C792.747,759.142 797.781,755.376 799.397,749.891C801.009,744.405 798.82,738.511 794.014,735.412ZM173.413,293.24C173.413,168.293 275.057,66.642 399.993,66.642C524.94,66.642 626.59,168.294 626.59,293.24L626.59,655.708C553.965,631.957 477.609,619.695 399.998,619.695C322.388,619.695 246.035,631.959 173.411,655.706L173.413,293.24ZM59.57,733.356C163.378,675.739 280.147,645.478 399.999,645.478C519.851,645.478 636.618,675.739 740.428,733.356L59.57,733.356Z" style="fill:rgb(51,51,51);fill-rule:nonzero;"/>
                </g>
            </g>
        </g>
    </g>
</svg>
