<?xml version="1.0" encoding="UTF-8" standalone="no"?><!DOCTYPE svg PUBLIC "-//W3C//DTD SVG 1.1//EN" "http://www.w3.org/Graphics/SVG/1.1/DTD/svg11.dtd"><svg width="100%" height="100%" viewBox="0 0 6810 969" version="1.1" xmlns="http://www.w3.org/2000/svg" xmlns:xlink="http://www.w3.org/1999/xlink" xml:space="preserve" xmlns:serif="http://www.serif.com/" style="fill-rule:evenodd;clip-rule:evenodd;stroke-linecap:round;stroke-linejoin:round;"><path d="M6738.26,268.481l-326.667,-123.195c-260.278,-98.264 -567.87,-98.264 -828.148,0l-97.778,36.945c-260.278,98.264 -567.87,98.264 -828.148,-0l-97.778,-36.945c-260.278,-98.264 -567.87,-98.264 -828.148,0c-0,0 -305.663,115.273 -325.643,122.808c-0.66,0.249 -1.388,0.249 -2.048,0c-19.98,-7.535 -325.642,-122.808 -325.642,-122.808c-260.278,-98.264 -567.871,-98.264 -828.149,0l-97.777,36.945c-260.278,98.264 -567.87,98.264 -828.148,-0l-97.778,-36.945c-260.278,-98.264 -567.87,-98.264 -828.148,0l-326.667,123.195" style="fill:none;fill-rule:nonzero;stroke:#7abfff;stroke-width:143.18px;"/><path d="M6738.26,897.369l-326.667,-123.333c-260.278,-98.264 -567.87,-98.264 -828.148,0l-97.778,36.945c-260.278,98.264 -567.87,98.264 -828.148,-0l-97.778,-36.945c-260.278,-98.264 -567.87,-98.264 -828.148,0c-0,0 -305.653,115.4 -325.642,122.946c-0.66,0.25 -1.389,0.25 -2.05,0c-19.988,-7.546 -325.641,-122.946 -325.641,-122.946c-260.278,-98.264 -567.871,-98.264 -828.149,0l-97.777,36.945c-260.278,98.264 -567.87,98.264 -828.148,-0l-97.778,-36.945c-260.278,-98.264 -567.87,-98.264 -828.148,0l-326.667,123.333" style="fill:none;fill-rule:nonzero;stroke:#7abfff;stroke-width:143.18px;"/></svg>